999
dxflib 2.0.4.8
  0
SECTION
  2
HEADER
  9
$ACADVER
  1
AC1015
  9
$HANDSEED
  5
FFFF
  9
$DIMASZ
 40
2.5
  9
$DIMGAP
 40
0.625
  9
$DIMEXO
 40
0.625
  9
$INSUNITS
 70
4
  9
$DIMTXT
 40
2.5
  9
$DIMSTYLE
  2
Standard
  9
$PLIMMAX
 10
210.0
 20
297.0
  9
$PLIMMIN
 10
0.0
 20
0.0
  9
$DIMEXE
 40
1.25
  0
ENDSEC
  0
SECTION
  2
TABLES
  0
TABLE
  2
VPORT
  5
8
100
AcDbSymbolTable
 70
1
  0
VPORT
  5
30
100
AcDbSymbolTableRecord
100
AcDbViewportTableRecord
  2
*Active
 70
0
 10
0.0
 20
0.0
 11
1.0
 21
1.0
 12
286.3055555555554861
 22
148.5
 13
0.0
 23
0.0
 14
10.0
 24
10.0
 15
10.0
 25
10.0
 16
0.0
 26
0.0
 36
1.0
 17
0.0
 27
0.0
 37
0.0
 40
297.0
 41
1.92798353909465
 42
50.0
 43
0.0
 44
0.0
 50
0.0
 51
0.0
 71
0
 72
100
 73
1
 74
3
 75
1
 76
1
 77
0
 78
0
281
0
 65
1
110
0.0
120
0.0
130
0.0
111
1.0
121
0.0
131
0.0
112
0.0
122
1.0
132
0.0
 79
0
146
0.0
  0
ENDTAB
  0
TABLE
  2
LTYPE
  5
5
100
AcDbSymbolTable
 70
21
  0
LTYPE
  5
14
100
AcDbSymbolTableRecord
100
AcDbLinetypeTableRecord
  2
ByBlock
 70
0
  3

 72
65
 73
0
 40
0.0
  0
LTYPE
  5
15
100
AcDbSymbolTableRecord
100
AcDbLinetypeTableRecord
  2
ByLayer
 70
0
  3

 72
65
 73
0
 40
0.0
  0
LTYPE
  5
16
100
AcDbSymbolTableRecord
100
AcDbLinetypeTableRecord
  2
CONTINUOUS
 70
0
  3
Solid line
 72
65
 73
0
 40
0.0
  0
LTYPE
  5
31
100
AcDbSymbolTableRecord
100
AcDbLinetypeTableRecord
  2
DOT
 70
0
  3
Dot . . . . . . . . . . . . . . . . . . . . . .
 72
65
 73
2
 40
6.3499999999999996
 49
0.0
 74
0
 49
-6.3499999999999996
 74
0
  0
LTYPE
  5
32
100
AcDbSymbolTableRecord
100
AcDbLinetypeTableRecord
  2
DOT2
 70
0
  3
Dot (.5x) .....................................
 72
65
 73
2
 40
3.1749999999999998
 49
0.0
 74
0
 49
-3.1749999999999998
 74
0
  0
LTYPE
  5
33
100
AcDbSymbolTableRecord
100
AcDbLinetypeTableRecord
  2
DOTX2
 70
0
  3
Dot (2x) .  .  .  .  .  .  .  .  .  .  .  .  .
 72
65
 73
2
 40
12.6999999999999993
 49
0.0
 74
0
 49
-12.6999999999999993
 74
0
  0
LTYPE
  5
34
100
AcDbSymbolTableRecord
100
AcDbLinetypeTableRecord
  2
DASHED
 70
0
  3
Dashed __ __ __ __ __ __ __ __ __ __ __ __ __ _
 72
65
 73
2
 40
19.0500000000000007
 49
12.6999999999999993
 74
0
 49
-6.3499999999999996
 74
0
  0
LTYPE
  5
35
100
AcDbSymbolTableRecord
100
AcDbLinetypeTableRecord
  2
DASHED2
 70
0
  3
Dashed (.5x) _ _ _ _ _ _ _ _ _ _ _ _ _ _ _ _ _
 72
65
 73
2
 40
9.5250000000000004
 49
6.3499999999999996
 74
0
 49
-3.1749999999999998
 74
0
  0
LTYPE
  5
36
100
AcDbSymbolTableRecord
100
AcDbLinetypeTableRecord
  2
DASHEDX2
 70
0
  3
Dashed (2x) ____  ____  ____  ____  ____  ___
 72
65
 73
2
 40
38.1000000000000014
 49
25.3999999999999986
 74
0
 49
-12.6999999999999993
 74
0
  0
LTYPE
  5
37
100
AcDbSymbolTableRecord
100
AcDbLinetypeTableRecord
  2
DASHDOT
 70
0
  3
Dash dot __ . __ . __ . __ . __ . __ . __ . __
 72
65
 73
4
 40
25.3999999999999986
 49
12.6999999999999993
 74
0
 49
-6.3499999999999996
 74
0
 49
0.0
 74
0
 49
-6.3499999999999996
 74
0
  0
LTYPE
  5
38
100
AcDbSymbolTableRecord
100
AcDbLinetypeTableRecord
  2
DASHDOT2
 70
0
  3
Dash dot (.5x) _._._._._._._._._._._._._._._.
 72
65
 73
4
 40
12.6999999999999993
 49
6.3499999999999996
 74
0
 49
-3.1749999999999998
 74
0
 49
0.0
 74
0
 49
-3.1749999999999998
 74
0
  0
LTYPE
  5
39
100
AcDbSymbolTableRecord
100
AcDbLinetypeTableRecord
  2
DASHDOTX2
 70
0
  3
Dash dot (2x) ____  .  ____  .  ____  .  ___
 72
65
 73
4
 40
50.7999999999999972
 49
25.3999999999999986
 74
0
 49
-12.6999999999999993
 74
0
 49
0.0
 74
0
 49
-12.6999999999999993
 74
0
  0
LTYPE
  5
3A
100
AcDbSymbolTableRecord
100
AcDbLinetypeTableRecord
  2
DIVIDE
 70
0
  3
Divide ____ . . ____ . . ____ . . ____ . . ____
 72
65
 73
6
 40
31.75
 49
12.6999999999999993
 74
0
 49
-6.3499999999999996
 74
0
 49
0.0
 74
0
 49
-6.3499999999999996
 74
0
 49
0.0
 74
0
 49
-6.3499999999999996
 74
0
  0
LTYPE
  5
3B
100
AcDbSymbolTableRecord
100
AcDbLinetypeTableRecord
  2
DIVIDE2
 70
0
  3
Divide (.5x) __..__..__..__..__..__..__..__.._
 72
65
 73
6
 40
15.875
 49
6.3499999999999996
 74
0
 49
-3.1749999999999998
 74
0
 49
0.0
 74
0
 49
-3.1749999999999998
 74
0
 49
0.0
 74
0
 49
-3.1749999999999998
 74
0
  0
LTYPE
  5
3C
100
AcDbSymbolTableRecord
100
AcDbLinetypeTableRecord
  2
DIVIDEX2
 70
0
  3
Divide (2x) ________  .  .  ________  .  .  _
 72
65
 73
6
 40
63.5
 49
25.3999999999999986
 74
0
 49
-12.6999999999999993
 74
0
 49
0.0
 74
0
 49
-12.6999999999999993
 74
0
 49
0.0
 74
0
 49
-12.6999999999999993
 74
0
  0
LTYPE
  5
3D
100
AcDbSymbolTableRecord
100
AcDbLinetypeTableRecord
  2
CENTER
 70
0
  3
Center ____ _ ____ _ ____ _ ____ _ ____ _ ____
 72
65
 73
4
 40
50.7999999999999972
 49
31.75
 74
0
 49
-6.3499999999999996
 74
0
 49
6.3499999999999996
 74
0
 49
-6.3499999999999996
 74
0
  0
LTYPE
  5
3E
100
AcDbSymbolTableRecord
100
AcDbLinetypeTableRecord
  2
CENTER2
 70
0
  3
Center (.5x) ___ _ ___ _ ___ _ ___ _ ___ _ ___
 72
65
 73
4
 40
28.5749999999999993
 49
19.0500000000000007
 74
0
 49
-3.1749999999999998
 74
0
 49
3.1749999999999998
 74
0
 49
-3.1749999999999998
 74
0
  0
LTYPE
  5
3F
100
AcDbSymbolTableRecord
100
AcDbLinetypeTableRecord
  2
CENTERX2
 70
0
  3
Center (2x) ________  __  ________  __  _____
 72
65
 73
4
 40
101.5999999999999943
 49
63.5
 74
0
 49
-12.6999999999999993
 74
0
 49
12.6999999999999993
 74
0
 49
-12.6999999999999993
 74
0
  0
LTYPE
  5
40
100
AcDbSymbolTableRecord
100
AcDbLinetypeTableRecord
  2
BORDER
 70
0
  3
Border __ __ . __ __ . __ __ . __ __ . __ __ .
 72
65
 73
6
 40
44.4500000000000028
 49
12.6999999999999993
 74
0
 49
-6.3499999999999996
 74
0
 49
12.6999999999999993
 74
0
 49
-6.3499999999999996
 74
0
 49
0.0
 74
0
 49
-6.3499999999999996
 74
0
  0
LTYPE
  5
41
100
AcDbSymbolTableRecord
100
AcDbLinetypeTableRecord
  2
BORDER2
 70
0
  3
Border (.5x) __.__.__.__.__.__.__.__.__.__.__.
 72
65
 73
6
 40
22.2250000000000014
 49
6.3499999999999996
 74
0
 49
-3.1749999999999998
 74
0
 49
6.3499999999999996
 74
0
 49
-3.1749999999999998
 74
0
 49
0.0
 74
0
 49
-3.1749999999999998
 74
0
  0
LTYPE
  5
42
100
AcDbSymbolTableRecord
100
AcDbLinetypeTableRecord
  2
BORDERX2
 70
0
  3
Border (2x) ____  ____  .  ____  ____  .  ___
 72
65
 73
6
 40
88.9000000000000057
 49
25.3999999999999986
 74
0
 49
-12.6999999999999993
 74
0
 49
25.3999999999999986
 74
0
 49
-12.6999999999999993
 74
0
 49
0.0
 74
0
 49
-12.6999999999999993
 74
0
  0
ENDTAB
  0
TABLE
  2
LAYER
  5
2
100
AcDbSymbolTable
 70
14
  0
LAYER
  5
10
100
AcDbSymbolTableRecord
100
AcDbLayerTableRecord
  2
0
 70
1
 62
7
  6
CONTINUOUS
370
0
390
F
  0
LAYER
  5
43
100
AcDbSymbolTableRecord
100
AcDbLayerTableRecord
  2
Dimensions
 70
1
 62
5
  6
CONTINUOUS
370
0
390
F
  0
LAYER
  5
44
100
AcDbSymbolTableRecord
100
AcDbLayerTableRecord
  2
helperlines
 70
1
 62
3
  6
DOT
370
0
390
F
  0
LAYER
  5
45
100
AcDbSymbolTableRecord
100
AcDbLayerTableRecord
  2
nut2
 70
1
 62
6
  6
CONTINUOUS
370
0
390
F
  0
LAYER
  5
46
100
AcDbSymbolTableRecord
100
AcDbLayerTableRecord
  2
dim_nut2
 70
1
 62
5
  6
CONTINUOUS
370
0
390
F
  0
LAYER
  5
47
100
AcDbSymbolTableRecord
100
AcDbLayerTableRecord
  2
nut3
 70
1
 62
4
  6
CONTINUOUS
370
0
390
F
  0
LAYER
  5
48
100
AcDbSymbolTableRecord
100
AcDbLayerTableRecord
  2
nutplace
 70
1
 62
3
  6
CONTINUOUS
370
0
390
F
  0
LAYER
  5
49
100
AcDbSymbolTableRecord
100
AcDbLayerTableRecord
  2
tslot
 70
1
 62
7
  6
CONTINUOUS
370
13
390
F
  0
LAYER
  5
4A
100
AcDbSymbolTableRecord
100
AcDbLayerTableRecord
  2
nut1
 70
1
 62
2
  6
CONTINUOUS
370
13
390
F
  0
LAYER
  5
4B
100
AcDbSymbolTableRecord
100
AcDbLayerTableRecord
  2
tslotrounded
 70
1
 62
7
  6
CONTINUOUS
370
0
390
F
  0
LAYER
  5
4C
100
AcDbSymbolTableRecord
100
AcDbLayerTableRecord
  2
tslotmodel1
 70
1
 62
3
  6
CONTINUOUS
370
-3
390
F
  0
LAYER
  5
4D
100
AcDbSymbolTableRecord
100
AcDbLayerTableRecord
  2
tslotrounded2
 70
1
 62
2
  6
CONTINUOUS
370
0
390
F
  0
LAYER
  5
4E
100
AcDbSymbolTableRecord
100
AcDbLayerTableRecord
  2
nutinplace
 70
1
 62
7
  6
CONTINUOUS
370
0
390
F
  0
LAYER
  5
4F
100
AcDbSymbolTableRecord
100
AcDbLayerTableRecord
  2
nut4
 70
0
 62
2
  6
CONTINUOUS
370
0
390
F
  0
ENDTAB
  0
TABLE
  2
STYLE
  5
3
100
AcDbSymbolTable
 70
1
  0
STYLE
  5
11
100
AcDbSymbolTableRecord
100
AcDbTextStyleTableRecord
  2
Standard
 70
0
 40
0.0
 41
0.75
 50
0.0
 71
0
 42
2.5
  3
txt
  4

  0
ENDTAB
  0
TABLE
  2
VIEW
  5
6
100
AcDbSymbolTable
 70
0
  0
ENDTAB
  0
TABLE
  2
UCS
  5
7
100
AcDbSymbolTable
 70
0
  0
ENDTAB
  0
TABLE
  2
APPID
  5
9
100
AcDbSymbolTable
 70
1
  0
APPID
  5
12
100
AcDbSymbolTableRecord
100
AcDbRegAppTableRecord
  2
ACAD
 70
0
  0
ENDTAB
  0
TABLE
  2
DIMSTYLE
  5
A
100
AcDbSymbolTable
 70
1
100
AcDbDimStyleTable
 71
0
  0
DIMSTYLE
105
27
100
AcDbSymbolTableRecord
100
AcDbDimStyleTableRecord
  2
Standard
 41
2.5
 42
0.625
 43
3.75
 44
1.25
 70
0
 73
0
 74
0
 77
1
 78
8
140
2.5
141
2.5
143
0.03937007874016
147
0.625
171
3
172
1
271
2
272
2
274
3
278
44
283
0
284
8
340
11
  0
ENDTAB
  0
TABLE
  2
BLOCK_RECORD
  5
1
100
AcDbSymbolTable
 70
1
  0
BLOCK_RECORD
  5
1F
100
AcDbSymbolTableRecord
100
AcDbBlockTableRecord
  2
*Model_Space
340
22
  0
BLOCK_RECORD
  5
1B
100
AcDbSymbolTableRecord
100
AcDbBlockTableRecord
  2
*Paper_Space
340
1E
  0
BLOCK_RECORD
  5
23
100
AcDbSymbolTableRecord
100
AcDbBlockTableRecord
  2
*Paper_Space0
340
26
  0
ENDTAB
  0
ENDSEC
  0
SECTION
  2
BLOCKS
  0
BLOCK
  5
20
100
AcDbEntity
  8
0
100
AcDbBlockBegin
  2
*Model_Space
 70
0
 10
0.0
 20
0.0
 30
0.0
  3
*Model_Space
  1

  0
ENDBLK
  5
21
100
AcDbEntity
  8
0
100
AcDbBlockEnd
  0
BLOCK
  5
1C
100
AcDbEntity
 67
1
  8
0
100
AcDbBlockBegin
  2
*Paper_Space
 70
0
 10
0.0
 20
0.0
 30
0.0
  3
*Paper_Space
  1

  0
ENDBLK
  5
1D
100
AcDbEntity
 67
1
  8
0
100
AcDbBlockEnd
  0
BLOCK
  5
24
100
AcDbEntity
  8
0
100
AcDbBlockBegin
  2
*Paper_Space0
 70
0
 10
0.0
 20
0.0
 30
0.0
  3
*Paper_Space0
  1

  0
ENDBLK
  5
25
100
AcDbEntity
  8
0
100
AcDbBlockEnd
  0
ENDSEC
  0
SECTION
  2
ENTITIES
  0
LINE
  5
50
100
AcDbEntity
100
AcDbLine
  8
helperlines
 62
256
370
-1
  6
ByLayer
 10
0.0
 20
0.0
 30
0.0
 11
30.0
 21
0.0
 31
0.0
  0
LINE
  5
51
100
AcDbEntity
100
AcDbLine
  8
helperlines
 62
256
370
-1
  6
ByLayer
 10
30.0
 20
0.0
 30
0.0
 11
30.0
 21
30.0
 31
0.0
  0
LINE
  5
52
100
AcDbEntity
100
AcDbLine
  8
helperlines
 62
256
370
-1
  6
ByLayer
 10
30.0
 20
30.0
 30
0.0
 11
0.0
 21
30.0
 31
0.0
  0
LINE
  5
53
100
AcDbEntity
100
AcDbLine
  8
helperlines
 62
256
370
-1
  6
ByLayer
 10
0.0
 20
30.0
 30
0.0
 11
0.0
 21
0.0
 31
0.0
  0
DIMENSION
  5
54
100
AcDbEntity
  8
Dimensions
 62
256
370
-1
  6
ByLayer
100
AcDbDimension
 10
29.9999999999999964
 20
-27.0
 30
0.0
 11
15.0000000000000018
 21
-25.125
 31
0.0
 70
0
 71
5
 72
1
 41
1.0
 42
0.0
  1

  3
Standard
100
AcDbAlignedDimension
 13
0.0
 23
0.0
 33
0.0
 14
30.0
 24
0.0
 34
0.0
 50
0.0
100
AcDbRotatedDimension
  0
LINE
  5
55
100
AcDbEntity
100
AcDbLine
  8
helperlines
 62
256
370
-1
  6
ByLayer
 10
15.0
 20
30.0
 30
0.0
 11
15.0
 21
0.0
 31
0.0
  0
LINE
  5
56
100
AcDbEntity
100
AcDbLine
  8
helperlines
 62
256
370
-1
  6
ByLayer
 10
0.0
 20
30.0
 30
0.0
 11
30.0
 21
0.0
 31
0.0
  0
LINE
  5
57
100
AcDbEntity
100
AcDbLine
  8
helperlines
 62
256
370
-1
  6
ByLayer
 10
30.0
 20
30.0
 30
0.0
 11
0.0
 21
0.0
 31
0.0
  0
LINE
  5
58
100
AcDbEntity
100
AcDbLine
  8
helperlines
 62
256
370
-1
  6
ByLayer
 10
0.0
 20
15.0
 30
0.0
 11
30.0
 21
15.0
 31
0.0
  0
DIMENSION
  5
59
100
AcDbEntity
  8
Dimensions
 62
256
370
-1
  6
ByLayer
100
AcDbDimension
 10
23.6999999999999993
 20
-20.0
 30
0.0
 11
14.9999999999999964
 21
-18.125
 31
0.0
 70
0
 71
5
 72
0
 41
1.0
 42
0.0
  1

  3
Standard
100
AcDbAlignedDimension
 13
6.2999999999999936
 23
2.9140722291414272
 33
0.0
 14
23.6999999999999993
 24
2.9000000000000004
 34
0.0
 50
0.0
100
AcDbRotatedDimension
  0
DIMENSION
  5
5A
100
AcDbEntity
  8
Dimensions
 62
256
370
-1
  6
ByLayer
100
AcDbDimension
 10
39.0
 20
-0.0000000000000026
 30
0.0
 11
37.125
 21
4.6000000000000032
 31
0.0
 70
0
 71
5
 72
0
 41
1.0
 42
0.0
  1

  3
Standard
100
AcDbAlignedDimension
 13
17.7459526774637339
 23
9.2000000000000099
 33
0.0
 14
18.0
 24
0.0
 34
0.0
 50
90.0
100
AcDbRotatedDimension
  0
DIMENSION
  5
5B
100
AcDbEntity
  8
Dimensions
 62
256
370
-1
  6
ByLayer
100
AcDbDimension
 10
19.6299999999997965
 20
-10.0000000000000018
 30
0.0
 11
14.9999999999999716
 21
-8.1250000000000018
 31
0.0
 70
0
 71
5
 72
0
 41
1.0
 42
0.0
  1

  3
Standard
100
AcDbAlignedDimension
 13
10.3700000000001467
 23
0.9500000000000206
 33
0.0
 14
19.6299999999997965
 24
0.9500000000000015
 34
0.0
 50
0.0
100
AcDbRotatedDimension
  0
DIMENSION
  5
5C
100
AcDbEntity
  8
Dimensions
 62
256
370
-1
  6
ByLayer
100
AcDbDimension
 10
18.6299999999998107
 20
-5.0
 30
0.0
 11
14.9999999999999734
 21
-3.125
 31
0.0
 70
0
 71
5
 72
0
 41
1.0
 42
0.0
  1

  3
Standard
100
AcDbAlignedDimension
 13
11.370000000000136
 23
1.4500000000000135
 33
0.0
 14
18.6299999999998107
 24
1.4500000000000046
 34
0.0
 50
0.0
100
AcDbRotatedDimension
  0
LINE
  5
5D
100
AcDbEntity
100
AcDbLine
  8
nut2
 62
256
370
-1
  6
ByLayer
 10
10.4000000000000004
 20
-1.5999999999999996
 30
0.0
 11
10.4000000000000004
 21
0.2000000000000004
 31
0.0
  0
LINE
  5
5E
100
AcDbEntity
100
AcDbLine
  8
nut2
 62
256
370
-1
  6
ByLayer
 10
10.4000000000000004
 20
0.2000000000000004
 30
0.0
 11
11.5999999999999996
 21
0.2000000000000004
 31
0.0
  0
LINE
  5
5F
100
AcDbEntity
100
AcDbLine
  8
nut2
 62
256
370
-1
  6
ByLayer
 10
11.5999999999999996
 20
0.2000000000000004
 30
0.0
 11
11.6000000000000014
 21
2.7000000000000002
 31
0.0
  0
LINE
  5
60
100
AcDbEntity
100
AcDbLine
  8
nut2
 62
256
370
-1
  6
ByLayer
 10
11.6000000000000014
 20
2.7000000000000002
 30
0.0
 11
7.0000000000000009
 21
2.7000000000000002
 31
0.0
  0
LINE
  5
61
100
AcDbEntity
100
AcDbLine
  8
nut2
 62
256
370
-1
  6
ByLayer
 10
7.0000000000000009
 20
2.7000000000000002
 30
0.0
 11
7.0
 21
5.0
 31
0.0
  0
LINE
  5
62
100
AcDbEntity
100
AcDbLine
  8
nut2
 62
256
370
-1
  6
ByLayer
 10
7.0
 20
5.0
 30
0.0
 11
10.5
 21
8.5
 31
0.0
  0
LINE
  5
63
100
AcDbEntity
100
AcDbLine
  8
nut2
 62
256
370
-1
  6
ByLayer
 10
10.5
 20
8.5
 30
0.0
 11
19.5
 21
8.5
 31
0.0
  0
LINE
  5
64
100
AcDbEntity
100
AcDbLine
  8
nut2
 62
256
370
-1
  6
ByLayer
 10
19.5
 20
8.5
 30
0.0
 11
23.0
 21
5.0
 31
0.0
  0
LINE
  5
65
100
AcDbEntity
100
AcDbLine
  8
nut2
 62
256
370
-1
  6
ByLayer
 10
23.0
 20
5.0
 30
0.0
 11
23.0
 21
2.7000000000000002
 31
0.0
  0
LINE
  5
66
100
AcDbEntity
100
AcDbLine
  8
nut2
 62
256
370
-1
  6
ByLayer
 10
23.0
 20
2.7000000000000002
 30
0.0
 11
18.4000000000000021
 21
2.7000000000000002
 31
0.0
  0
LINE
  5
67
100
AcDbEntity
100
AcDbLine
  8
nut2
 62
256
370
-1
  6
ByLayer
 10
18.4000000000000021
 20
2.7000000000000002
 30
0.0
 11
18.4000000000000021
 21
0.2000000000000006
 31
0.0
  0
LINE
  5
68
100
AcDbEntity
100
AcDbLine
  8
nut2
 62
256
370
-1
  6
ByLayer
 10
18.4000000000000021
 20
0.2000000000000006
 30
0.0
 11
19.6000000000000014
 21
0.2000000000000006
 31
0.0
  0
LINE
  5
69
100
AcDbEntity
100
AcDbLine
  8
nut2
 62
256
370
-1
  6
ByLayer
 10
19.6000000000000014
 20
0.2000000000000006
 30
0.0
 11
19.6000000000000014
 21
-1.5999999999999994
 31
0.0
  0
LINE
  5
6A
100
AcDbEntity
100
AcDbLine
  8
nut2
 62
256
370
-1
  6
ByLayer
 10
19.6000000000000014
 20
-1.5999999999999994
 30
0.0
 11
10.4000000000000004
 21
-1.5999999999999994
 31
0.0
  0
DIMENSION
  5
6B
100
AcDbEntity
  8
dim_nut2
 62
256
370
-1
  6
ByLayer
100
AcDbDimension
 10
22.9999999999999964
 20
-40.0
 30
0.0
 11
15.0
 21
-38.125
 31
0.0
 70
0
 71
5
 72
1
 41
1.0
 42
0.0
  1

  3
Standard
100
AcDbAlignedDimension
 13
7.0
 23
3.8500000000000001
 33
0.0
 14
23.0
 24
3.8500000000000001
 34
0.0
 50
0.0
100
AcDbRotatedDimension
  0
DIMENSION
  5
6C
100
AcDbEntity
  8
dim_nut2
 62
256
370
-1
  6
ByLayer
100
AcDbDimension
 10
19.5999999999999979
 20
-35.0
 30
0.0
 11
15.0
 21
-33.125
 31
0.0
 70
0
 71
5
 72
1
 41
1.0
 42
0.0
  1

  3
Standard
100
AcDbAlignedDimension
 13
10.4000000000000004
 23
-0.6999999999999996
 33
0.0
 14
19.6000000000000014
 24
-0.6999999999999994
 34
0.0
 50
0.0
100
AcDbRotatedDimension
  0
DIMENSION
  5
6D
100
AcDbEntity
  8
dim_nut2
 62
256
370
-1
  6
ByLayer
100
AcDbDimension
 10
18.3999999999999986
 20
-27.0
 30
0.0
 11
15.0000000000000018
 21
-25.125
 31
0.0
 70
0
 71
5
 72
1
 41
1.0
 42
0.0
  1

  3
Standard
100
AcDbAlignedDimension
 13
11.6000000000000014
 23
1.4500000000000004
 33
0.0
 14
18.4000000000000021
 24
1.4500000000000004
 34
0.0
 50
0.0
100
AcDbRotatedDimension
  0
DIMENSION
  5
6E
100
AcDbEntity
  8
dim_nut2
 62
256
370
-1
  6
ByLayer
100
AcDbDimension
 10
19.5
 20
4.9999999999999991
 30
0.0
 11
15.0
 21
6.8749999999999991
 31
0.0
 70
0
 71
5
 72
1
 41
1.0
 42
0.0
  1

  3
Standard
100
AcDbAlignedDimension
 13
10.5
 23
8.5
 33
0.0
 14
19.5
 24
8.5
 34
0.0
 50
0.0
100
AcDbRotatedDimension
  0
DIMENSION
  5
6F
100
AcDbEntity
  8
dim_nut2
 62
256
370
-1
  6
ByLayer
100
AcDbDimension
 10
37.0
 20
-1.6000000000000021
 30
0.0
 11
35.125
 21
3.4499999999999988
 31
0.0
 70
0
 71
5
 72
1
 41
1.0
 42
0.0
  1

  3
Standard
100
AcDbAlignedDimension
 13
15.0
 23
8.5
 33
0.0
 14
15.0
 24
-1.5999999999999994
 34
0.0
 50
90.0
100
AcDbRotatedDimension
  0
DIMENSION
  5
70
100
AcDbEntity
  8
dim_nut2
 62
256
370
-1
  6
ByLayer
100
AcDbDimension
 10
-6.0
 20
0.0000000000000026
 30
0.0
 11
-7.875
 21
4.2500000000000018
 31
0.0
 70
0
 71
5
 72
1
 41
1.0
 42
0.0
  1

  3
Standard
100
AcDbAlignedDimension
 13
15.0
 23
8.5
 33
0.0
 14
15.0
 24
0.0
 34
0.0
 50
90.0
100
AcDbRotatedDimension
  0
DIMENSION
  5
71
100
AcDbEntity
  8
dim_nut2
 62
256
370
-1
  6
ByLayer
100
AcDbDimension
 10
32.0
 20
-0.0000000000000016
 30
0.0
 11
30.125
 21
1.3499999999999994
 31
0.0
 70
0
 71
5
 72
1
 41
1.0
 42
0.0
  1

  3
Standard
100
AcDbAlignedDimension
 13
18.4000000000000021
 23
2.7000000000000002
 33
0.0
 14
18.4000000000000021
 24
0.0000000000000001
 34
0.0
 50
90.0
100
AcDbRotatedDimension
  0
DIMENSION
  5
72
100
AcDbEntity
  8
dim_nut2
 62
256
370
-1
  6
ByLayer
100
AcDbDimension
 10
5.0
 20
2.7000000000000015
 30
0.0
 11
3.125
 21
5.6000000000000014
 31
0.0
 70
0
 71
5
 72
1
 41
1.0
 42
0.0
  1

  3
Standard
100
AcDbAlignedDimension
 13
15.0
 23
8.5
 33
0.0
 14
14.9000000000000004
 24
2.7000000000000002
 34
0.0
 50
90.0
100
AcDbRotatedDimension
  0
DIMENSION
  5
73
100
AcDbEntity
  8
dim_nut2
 62
256
370
-1
  6
ByLayer
100
AcDbDimension
 10
0.0000000000000025
 20
41.0
 30
0.0
 11
7.4999999999999991
 21
42.875
 31
0.0
 70
0
 71
5
 72
1
 41
1.0
 42
0.0
  1

  3
Standard
100
AcDbAlignedDimension
 13
15.0
 23
0.0
 33
0.0
 14
0.0
 24
0.0
 34
0.0
 50
0.0
100
AcDbRotatedDimension
  0
LINE
  5
74
100
AcDbEntity
100
AcDbLine
  8
nut3
 62
256
370
-1
  6
ByLayer
 10
11.5999999999999996
 20
0.2000000000000004
 30
0.0
 11
11.6000000000000014
 21
2.7000000000000002
 31
0.0
  0
LINE
  5
75
100
AcDbEntity
100
AcDbLine
  8
nut3
 62
256
370
-1
  6
ByLayer
 10
11.6000000000000014
 20
2.7000000000000002
 30
0.0
 11
7.0000000000000009
 21
2.7000000000000002
 31
0.0
  0
LINE
  5
76
100
AcDbEntity
100
AcDbLine
  8
nut3
 62
256
370
-1
  6
ByLayer
 10
7.0000000000000009
 20
2.7000000000000002
 30
0.0
 11
7.0
 21
5.0
 31
0.0
  0
LINE
  5
77
100
AcDbEntity
100
AcDbLine
  8
nut3
 62
256
370
-1
  6
ByLayer
 10
7.0
 20
5.0
 30
0.0
 11
10.5
 21
8.5
 31
0.0
  0
LINE
  5
78
100
AcDbEntity
100
AcDbLine
  8
nut3
 62
256
370
-1
  6
ByLayer
 10
10.5
 20
8.5
 30
0.0
 11
19.5
 21
8.5
 31
0.0
  0
LINE
  5
79
100
AcDbEntity
100
AcDbLine
  8
nut3
 62
256
370
-1
  6
ByLayer
 10
19.5
 20
8.5
 30
0.0
 11
23.0
 21
5.0
 31
0.0
  0
LINE
  5
7A
100
AcDbEntity
100
AcDbLine
  8
nut3
 62
256
370
-1
  6
ByLayer
 10
23.0
 20
5.0
 30
0.0
 11
23.0
 21
2.7000000000000002
 31
0.0
  0
LINE
  5
7B
100
AcDbEntity
100
AcDbLine
  8
nut3
 62
256
370
-1
  6
ByLayer
 10
23.0
 20
2.7000000000000002
 30
0.0
 11
18.4000000000000021
 21
2.7000000000000002
 31
0.0
  0
LINE
  5
7C
100
AcDbEntity
100
AcDbLine
  8
nut3
 62
256
370
-1
  6
ByLayer
 10
18.4000000000000021
 20
2.7000000000000002
 30
0.0
 11
18.4000000000000021
 21
0.2000000000000006
 31
0.0
  0
LINE
  5
7D
100
AcDbEntity
100
AcDbLine
  8
nut3
 62
256
370
-1
  6
ByLayer
 10
18.4000000000000021
 20
0.2000000000000006
 30
0.0
 11
23.0
 21
-3.0
 31
0.0
  0
LINE
  5
7E
100
AcDbEntity
100
AcDbLine
  8
nut3
 62
256
370
-1
  6
ByLayer
 10
23.0
 20
-3.0
 30
0.0
 11
23.0
 21
-5.0
 31
0.0
  0
LINE
  5
7F
100
AcDbEntity
100
AcDbLine
  8
nut3
 62
256
370
-1
  6
ByLayer
 10
23.0
 20
-5.0
 30
0.0
 11
7.0
 21
-5.0
 31
0.0
  0
LINE
  5
80
100
AcDbEntity
100
AcDbLine
  8
nut3
 62
256
370
-1
  6
ByLayer
 10
7.0
 20
-5.0
 30
0.0
 11
7.0
 21
-3.0
 31
0.0
  0
LINE
  5
81
100
AcDbEntity
100
AcDbLine
  8
nut3
 62
256
370
-1
  6
ByLayer
 10
7.0
 20
-3.0
 30
0.0
 11
11.5999999999999996
 21
0.2000000000000004
 31
0.0
  0
LINE
  5
82
100
AcDbEntity
100
AcDbLine
  8
nut3
 62
256
370
-1
  6
ByLayer
 10
11.5999999999999996
 20
0.2000000000000004
 30
0.0
 11
11.5999999999999996
 21
0.2000000000000004
 31
0.0
  0
DIMENSION
  5
83
100
AcDbEntity
  8
Dimensions
 62
256
370
-1
  6
ByLayer
100
AcDbDimension
 10
-5.0
 20
2.1492594840049803
 30
0.0
 11
-6.875
 21
3.464943143865276
 31
0.0
 70
0
 71
5
 72
1
 41
1.0
 42
0.0
  1

  3
Standard
100
AcDbAlignedDimension
 13
6.300000000000022
 23
4.7806268037255712
 33
0.0
 14
6.3211958295024964
 24
2.149259484004979
 34
0.0
 50
90.0
100
AcDbRotatedDimension
  0
ARC
  5
84
100
AcDbEntity
  8
nutplace
 62
256
370
-1
  6
ByLayer
100
AcDbCircle
 10
-7.5
 20
-2.2999999999999998
 30
0.0
 40
0.5
100
AcDbArc
 50
180.0
 51
270.0
  0
LINE
  5
85
100
AcDbEntity
100
AcDbLine
  8
nutplace
 62
256
370
-1
  6
ByLayer
 10
-7.9999999999999991
 20
-2.2999999999999998
 30
0.0
 11
-8.0
 21
-0.7071067811865479
 31
0.0
  0
ARC
  5
86
100
AcDbEntity
  8
nutplace
 62
256
370
-1
  6
ByLayer
100
AcDbCircle
 10
-7.5
 20
-0.7071067811865479
 30
0.0
 40
0.5
100
AcDbArc
 50
135.0
 51
180.0
  0
LINE
  5
87
100
AcDbEntity
100
AcDbLine
  8
nutplace
 62
256
370
-1
  6
ByLayer
 10
-7.853553390593274
 20
-0.353553390593274
 30
0.0
 11
-4.6464466094067269
 21
2.8535533905932731
 31
0.0
  0
ARC
  5
88
100
AcDbEntity
  8
nutplace
 62
256
370
-1
  6
ByLayer
100
AcDbCircle
 10
-4.2928932188134539
 20
2.5
 30
0.0
 40
0.5
100
AcDbArc
 50
90.0
 51
135.0
  0
LINE
  5
89
100
AcDbEntity
100
AcDbLine
  8
nutplace
 62
256
370
-1
  6
ByLayer
 10
-4.2928932188134539
 20
3.0
 30
0.0
 11
4.2928932188134539
 21
3.0
 31
0.0
  0
ARC
  5
8A
100
AcDbEntity
  8
nutplace
 62
256
370
-1
  6
ByLayer
100
AcDbCircle
 10
4.2928932188134539
 20
2.5
 30
0.0
 40
0.5
100
AcDbArc
 50
45.0
 51
90.0
  0
LINE
  5
8B
100
AcDbEntity
100
AcDbLine
  8
nutplace
 62
256
370
-1
  6
ByLayer
 10
4.6464466094067269
 20
2.8535533905932731
 30
0.0
 11
7.8535533905932731
 21
-0.353553390593274
 31
0.0
  0
ARC
  5
8C
100
AcDbEntity
  8
nutplace
 62
256
370
-1
  6
ByLayer
100
AcDbCircle
 10
7.5
 20
-0.707106781186547
 30
0.0
 40
0.5
100
AcDbArc
 50
0.0
 51
45.0
  0
LINE
  5
8D
100
AcDbEntity
100
AcDbLine
  8
nutplace
 62
256
370
-1
  6
ByLayer
 10
8.0
 20
-0.707106781186547
 30
0.0
 11
8.0
 21
-2.2999999999999998
 31
0.0
  0
LINE
  5
8E
100
AcDbEntity
100
AcDbLine
  8
nutplace
 62
256
370
-1
  6
ByLayer
 10
7.5
 20
-2.7999999999999998
 30
0.0
 11
-7.5
 21
-2.7999999999999998
 31
0.0
  0
ARC
  5
8F
100
AcDbEntity
  8
nutplace
 62
256
370
-1
  6
ByLayer
100
AcDbCircle
 10
7.5
 20
-2.2999999999999998
 30
0.0
 40
0.5
100
AcDbArc
 50
270.0
 51
0.0
  0
LINE
  5
90
100
AcDbEntity
100
AcDbLine
  8
tslot
 62
256
370
-1
  6
ByLayer
 10
0.0
 20
0.0
 30
0.0
 11
0.0
 21
11.0
 31
0.0
  0
LINE
  5
91
100
AcDbEntity
100
AcDbLine
  8
tslot
 62
256
370
-1
  6
ByLayer
 10
0.0
 20
11.0
 30
0.0
 11
2.0
 21
11.0
 31
0.0
  0
LINE
  5
92
100
AcDbEntity
100
AcDbLine
  8
tslot
 62
256
370
-1
  6
ByLayer
 10
2.0
 20
11.0
 30
0.0
 11
2.0
 21
6.3000000000000007
 31
0.0
  0
LINE
  5
93
100
AcDbEntity
100
AcDbLine
  8
tslot
 62
256
370
-1
  6
ByLayer
 10
4.7806268037255819
 20
6.3000000000000167
 30
0.0
 11
9.2000000000000117
 21
10.5000000000000178
 31
0.0
  0
LINE
  5
94
100
AcDbEntity
100
AcDbLine
  8
tslot
 62
256
370
-1
  6
ByLayer
 10
9.2000000000000117
 20
10.5000000000000178
 30
0.0
 11
9.2000000000000135
 21
19.4999999999999893
 31
0.0
  0
LINE
  5
95
100
AcDbEntity
100
AcDbLine
  8
tslot
 62
256
370
-1
  6
ByLayer
 10
9.2000000000000135
 20
19.4999999999999893
 30
0.0
 11
5.0020913964628306
 21
23.6979086035371758
 31
0.0
  0
LINE
  5
96
100
AcDbEntity
100
AcDbLine
  8
tslot
 62
256
370
-1
  6
ByLayer
 10
5.0020913964628306
 20
23.6979086035371758
 30
0.0
 11
2.0
 21
23.6999999999999993
 31
0.0
  0
LINE
  5
97
100
AcDbEntity
100
AcDbLine
  8
tslot
 62
256
370
-1
  6
ByLayer
 10
2.0
 20
23.6999999999999993
 30
0.0
 11
2.0
 21
19.0
 31
0.0
  0
LINE
  5
98
100
AcDbEntity
100
AcDbLine
  8
tslot
 62
256
370
-1
  6
ByLayer
 10
2.0
 20
19.0
 30
0.0
 11
1.2000000000000002
 21
19.0
 31
0.0
  0
LINE
  5
99
100
AcDbEntity
100
AcDbLine
  8
tslot
 62
256
370
-1
  6
ByLayer
 10
1.2000000000000002
 20
19.0
 30
0.0
 11
0.0
 21
19.0
 31
0.0
  0
LINE
  5
9A
100
AcDbEntity
100
AcDbLine
  8
tslot
 62
256
370
-1
  6
ByLayer
 10
0.0
 20
19.0
 30
0.0
 11
0.0
 21
30.0
 31
0.0
  0
LINE
  5
9B
100
AcDbEntity
100
AcDbLine
  8
tslot
 62
256
370
-1
  6
ByLayer
 10
0.0
 20
30.0
 30
0.0
 11
10.0
 21
30.0
 31
0.0
  0
LINE
  5
9C
100
AcDbEntity
100
AcDbLine
  8
tslot
 62
256
370
-1
  6
ByLayer
 10
10.0
 20
30.0
 30
0.0
 11
11.0
 21
30.0
 31
0.0
  0
LINE
  5
9D
100
AcDbEntity
100
AcDbLine
  8
tslot
 62
256
370
-1
  6
ByLayer
 10
11.0
 20
30.0
 30
0.0
 11
11.0
 21
28.0
 31
0.0
  0
LINE
  5
9E
100
AcDbEntity
100
AcDbLine
  8
tslot
 62
256
370
-1
  6
ByLayer
 10
11.0
 20
28.0
 30
0.0
 11
6.3000000000000007
 21
28.0
 31
0.0
  0
LINE
  5
9F
100
AcDbEntity
100
AcDbLine
  8
tslot
 62
256
370
-1
  6
ByLayer
 10
6.3000000000000007
 20
28.0
 30
0.0
 11
6.3000000000000007
 21
25.0
 31
0.0
  0
LINE
  5
A0
100
AcDbEntity
100
AcDbLine
  8
tslot
 62
256
370
-1
  6
ByLayer
 10
6.3000000000000007
 20
25.0
 30
0.0
 11
10.5000000000000018
 21
20.8000000000000007
 31
0.0
  0
LINE
  5
A1
100
AcDbEntity
100
AcDbLine
  8
tslot
 62
256
370
-1
  6
ByLayer
 10
10.5000000000000018
 20
20.8000000000000007
 30
0.0
 11
19.5
 21
20.8000000000000007
 31
0.0
  0
LINE
  5
A2
100
AcDbEntity
100
AcDbLine
  8
tslot
 62
256
370
-1
  6
ByLayer
 10
19.5
 20
20.8000000000000007
 30
0.0
 11
23.6999999999999993
 21
25.0
 31
0.0
  0
LINE
  5
A3
100
AcDbEntity
100
AcDbLine
  8
tslot
 62
256
370
-1
  6
ByLayer
 10
23.6999999999999993
 20
25.0
 30
0.0
 11
23.6999999999999993
 21
28.0
 31
0.0
  0
LINE
  5
A4
100
AcDbEntity
100
AcDbLine
  8
tslot
 62
256
370
-1
  6
ByLayer
 10
23.6999999999999993
 20
28.0
 30
0.0
 11
19.0
 21
28.0
 31
0.0
  0
LINE
  5
A5
100
AcDbEntity
100
AcDbLine
  8
tslot
 62
256
370
-1
  6
ByLayer
 10
19.0
 20
28.0
 30
0.0
 11
19.0
 21
30.0
 31
0.0
  0
LINE
  5
A6
100
AcDbEntity
100
AcDbLine
  8
tslot
 62
256
370
-1
  6
ByLayer
 10
19.0
 20
30.0
 30
0.0
 11
30.0
 21
30.0
 31
0.0
  0
LINE
  5
A7
100
AcDbEntity
100
AcDbLine
  8
tslot
 62
256
370
-1
  6
ByLayer
 10
30.0
 20
30.0
 30
0.0
 11
30.0
 21
19.0
 31
0.0
  0
LINE
  5
A8
100
AcDbEntity
100
AcDbLine
  8
tslot
 62
256
370
-1
  6
ByLayer
 10
30.0
 20
19.0
 30
0.0
 11
28.0
 21
19.0
 31
0.0
  0
LINE
  5
A9
100
AcDbEntity
100
AcDbLine
  8
tslot
 62
256
370
-1
  6
ByLayer
 10
28.0
 20
19.0
 30
0.0
 11
28.0
 21
23.6999999999999993
 31
0.0
  0
LINE
  5
AA
100
AcDbEntity
100
AcDbLine
  8
tslot
 62
256
370
-1
  6
ByLayer
 10
28.0
 20
23.6999999999999993
 30
0.0
 11
25.0
 21
23.6999999999999993
 31
0.0
  0
LINE
  5
AB
100
AcDbEntity
100
AcDbLine
  8
tslot
 62
256
370
-1
  6
ByLayer
 10
25.0
 20
23.6999999999999993
 30
0.0
 11
20.8000000000000007
 21
19.5
 31
0.0
  0
LINE
  5
AC
100
AcDbEntity
100
AcDbLine
  8
tslot
 62
256
370
-1
  6
ByLayer
 10
20.8000000000000007
 20
19.5
 30
0.0
 11
20.8000000000000007
 21
10.5
 31
0.0
  0
LINE
  5
AD
100
AcDbEntity
100
AcDbLine
  8
tslot
 62
256
370
-1
  6
ByLayer
 10
20.8000000000000007
 20
10.5
 30
0.0
 11
25.0
 21
6.3000000000000007
 31
0.0
  0
LINE
  5
AE
100
AcDbEntity
100
AcDbLine
  8
tslot
 62
256
370
-1
  6
ByLayer
 10
25.0
 20
6.3000000000000007
 30
0.0
 11
28.0
 21
6.3000000000000007
 31
0.0
  0
LINE
  5
AF
100
AcDbEntity
100
AcDbLine
  8
tslot
 62
256
370
-1
  6
ByLayer
 10
28.0
 20
6.3000000000000007
 30
0.0
 11
28.0
 21
11.0
 31
0.0
  0
LINE
  5
B0
100
AcDbEntity
100
AcDbLine
  8
tslot
 62
256
370
-1
  6
ByLayer
 10
28.0
 20
11.0
 30
0.0
 11
30.0
 21
11.0
 31
0.0
  0
LINE
  5
B1
100
AcDbEntity
100
AcDbLine
  8
tslot
 62
256
370
-1
  6
ByLayer
 10
30.0
 20
11.0
 30
0.0
 11
30.0
 21
0.0
 31
0.0
  0
LINE
  5
B2
100
AcDbEntity
100
AcDbLine
  8
tslot
 62
256
370
-1
  6
ByLayer
 10
30.0
 20
0.0
 30
0.0
 11
19.0
 21
0.0
 31
0.0
  0
LINE
  5
B3
100
AcDbEntity
100
AcDbLine
  8
tslot
 62
256
370
-1
  6
ByLayer
 10
19.0
 20
0.0
 30
0.0
 11
19.0
 21
2.0
 31
0.0
  0
LINE
  5
B4
100
AcDbEntity
100
AcDbLine
  8
tslot
 62
256
370
-1
  6
ByLayer
 10
19.0
 20
2.0
 30
0.0
 11
23.6999999999999993
 21
2.0
 31
0.0
  0
LINE
  5
B5
100
AcDbEntity
100
AcDbLine
  8
tslot
 62
256
370
-1
  6
ByLayer
 10
23.6999999999999993
 20
2.0
 30
0.0
 11
23.6999999999999993
 21
5.0
 31
0.0
  0
LINE
  5
B6
100
AcDbEntity
100
AcDbLine
  8
tslot
 62
256
370
-1
  6
ByLayer
 10
23.6999999999999993
 20
5.0
 30
0.0
 11
19.5
 21
9.2000000000000011
 31
0.0
  0
LINE
  5
B7
100
AcDbEntity
100
AcDbLine
  8
tslot
 62
256
370
-1
  6
ByLayer
 10
19.5
 20
9.2000000000000011
 30
0.0
 11
10.5
 21
9.2000000000000011
 31
0.0
  0
LINE
  5
B8
100
AcDbEntity
100
AcDbLine
  8
tslot
 62
256
370
-1
  6
ByLayer
 10
10.5
 20
9.2000000000000011
 30
0.0
 11
6.3000000000000007
 21
5.0
 31
0.0
  0
LINE
  5
B9
100
AcDbEntity
100
AcDbLine
  8
tslot
 62
256
370
-1
  6
ByLayer
 10
6.3000000000000007
 20
5.0
 30
0.0
 11
6.3000000000000007
 21
2.0
 31
0.0
  0
LINE
  5
BA
100
AcDbEntity
100
AcDbLine
  8
tslot
 62
256
370
-1
  6
ByLayer
 10
6.3000000000000007
 20
2.0
 30
0.0
 11
11.0
 21
2.0
 31
0.0
  0
LINE
  5
BB
100
AcDbEntity
100
AcDbLine
  8
tslot
 62
256
370
-1
  6
ByLayer
 10
11.0
 20
2.0
 30
0.0
 11
11.0
 21
0.0
 31
0.0
  0
LINE
  5
BC
100
AcDbEntity
100
AcDbLine
  8
tslot
 62
256
370
-1
  6
ByLayer
 10
11.0
 20
0.0
 30
0.0
 11
0.0
 21
0.0
 31
0.0
  0
LINE
  5
BD
100
AcDbEntity
100
AcDbLine
  8
tslot
 62
256
370
-1
  6
ByLayer
 10
2.0
 20
6.3000000000000007
 30
0.0
 11
4.7809999999999997
 21
6.2999999999999998
 31
0.0
  0
LINE
  5
BE
100
AcDbEntity
100
AcDbLine
  8
nut1
 62
256
370
-1
  6
ByLayer
 10
11.1999999999999993
 20
0.0
 30
0.0
 11
11.1999999999999993
 21
2.2000000000000002
 31
0.0
  0
LINE
  5
BF
100
AcDbEntity
100
AcDbLine
  8
nut1
 62
256
370
-1
  6
ByLayer
 10
11.1999999999999993
 20
2.2000000000000002
 30
0.0
 11
6.5
 21
2.2000000000000002
 31
0.0
  0
LINE
  5
C0
100
AcDbEntity
100
AcDbLine
  8
nut1
 62
256
370
-1
  6
ByLayer
 10
6.5
 20
2.2000000000000002
 30
0.0
 11
6.5
 21
5.0000000000000009
 31
0.0
  0
LINE
  5
C1
100
AcDbEntity
100
AcDbLine
  8
nut1
 62
256
370
-1
  6
ByLayer
 10
6.5
 20
5.0000000000000009
 30
0.0
 11
10.5
 21
9.0
 31
0.0
  0
LINE
  5
C2
100
AcDbEntity
100
AcDbLine
  8
nut1
 62
256
370
-1
  6
ByLayer
 10
10.5
 20
9.0
 30
0.0
 11
19.5
 21
9.0
 31
0.0
  0
LINE
  5
C3
100
AcDbEntity
100
AcDbLine
  8
nut1
 62
256
370
-1
  6
ByLayer
 10
19.5
 20
9.0
 30
0.0
 11
23.5
 21
5.0
 31
0.0
  0
LINE
  5
C4
100
AcDbEntity
100
AcDbLine
  8
nut1
 62
256
370
-1
  6
ByLayer
 10
23.5
 20
5.0
 30
0.0
 11
23.5
 21
2.1000000000000001
 31
0.0
  0
LINE
  5
C5
100
AcDbEntity
100
AcDbLine
  8
nut1
 62
256
370
-1
  6
ByLayer
 10
23.5
 20
2.1000000000000001
 30
0.0
 11
18.8000000000000007
 21
2.1000000000000001
 31
0.0
  0
LINE
  5
C6
100
AcDbEntity
100
AcDbLine
  8
nut1
 62
256
370
-1
  6
ByLayer
 10
18.8000000000000007
 20
2.1000000000000001
 30
0.0
 11
18.8000000000000007
 21
0.0
 31
0.0
  0
LINE
  5
C7
100
AcDbEntity
100
AcDbLine
  8
nut1
 62
256
370
-1
  6
ByLayer
 10
18.8000000000000007
 20
0.0
 30
0.0
 11
11.1999999999999993
 21
0.0
 31
0.0
  0
LINE
  5
C8
100
AcDbEntity
100
AcDbLine
  8
tslotrounded
 62
256
370
-1
  6
ByLayer
 10
0.0
 20
11.0
 30
0.0
 11
2.0
 21
11.0
 31
0.0
  0
LINE
  5
C9
100
AcDbEntity
100
AcDbLine
  8
tslotrounded
 62
256
370
-1
  6
ByLayer
 10
2.0
 20
11.0
 30
0.0
 11
2.0
 21
6.3000000000000007
 31
0.0
  0
LINE
  5
CA
100
AcDbEntity
100
AcDbLine
  8
tslotrounded
 62
256
370
-1
  6
ByLayer
 10
4.7806268037255819
 20
6.3000000000000167
 30
0.0
 11
9.2000000000000099
 21
10.5000000000000178
 31
0.0
  0
LINE
  5
CB
100
AcDbEntity
100
AcDbLine
  8
tslotrounded
 62
256
370
-1
  6
ByLayer
 10
9.2000000000000099
 20
10.5000000000000178
 30
0.0
 11
9.2000000000000135
 21
19.4999999999999893
 31
0.0
  0
LINE
  5
CC
100
AcDbEntity
100
AcDbLine
  8
tslotrounded
 62
256
370
-1
  6
ByLayer
 10
9.2000000000000135
 20
19.4999999999999893
 30
0.0
 11
5.0020913964628306
 21
23.6979086035371758
 31
0.0
  0
LINE
  5
CD
100
AcDbEntity
100
AcDbLine
  8
tslotrounded
 62
256
370
-1
  6
ByLayer
 10
5.0020913964628306
 20
23.6979086035371758
 30
0.0
 11
2.0
 21
23.6999999999999993
 31
0.0
  0
LINE
  5
CE
100
AcDbEntity
100
AcDbLine
  8
tslotrounded
 62
256
370
-1
  6
ByLayer
 10
2.0
 20
23.6999999999999993
 30
0.0
 11
2.0
 21
19.0
 31
0.0
  0
LINE
  5
CF
100
AcDbEntity
100
AcDbLine
  8
tslotrounded
 62
256
370
-1
  6
ByLayer
 10
2.0
 20
19.0
 30
0.0
 11
1.2000000000000028
 21
19.0
 31
0.0
  0
LINE
  5
D0
100
AcDbEntity
100
AcDbLine
  8
tslotrounded
 62
256
370
-1
  6
ByLayer
 10
1.2000000000000028
 20
19.0
 30
0.0
 11
0.0
 21
19.0
 31
0.0
  0
LINE
  5
D1
100
AcDbEntity
100
AcDbLine
  8
tslotrounded
 62
256
370
-1
  6
ByLayer
 10
10.0
 20
30.0
 30
0.0
 11
11.0
 21
30.0
 31
0.0
  0
LINE
  5
D2
100
AcDbEntity
100
AcDbLine
  8
tslotrounded
 62
256
370
-1
  6
ByLayer
 10
11.0
 20
30.0
 30
0.0
 11
11.0
 21
28.0
 31
0.0
  0
LINE
  5
D3
100
AcDbEntity
100
AcDbLine
  8
tslotrounded
 62
256
370
-1
  6
ByLayer
 10
11.0
 20
28.0
 30
0.0
 11
6.2999999999999972
 21
28.0
 31
0.0
  0
LINE
  5
D4
100
AcDbEntity
100
AcDbLine
  8
tslotrounded
 62
256
370
-1
  6
ByLayer
 10
6.2999999999999972
 20
28.0
 30
0.0
 11
6.2999999999999972
 21
25.0
 31
0.0
  0
LINE
  5
D5
100
AcDbEntity
100
AcDbLine
  8
tslotrounded
 62
256
370
-1
  6
ByLayer
 10
6.2999999999999972
 20
25.0
 30
0.0
 11
10.5
 21
20.8000000000000007
 31
0.0
  0
LINE
  5
D6
100
AcDbEntity
100
AcDbLine
  8
tslotrounded
 62
256
370
-1
  6
ByLayer
 10
10.5
 20
20.8000000000000007
 30
0.0
 11
19.5
 21
20.8000000000000007
 31
0.0
  0
LINE
  5
D7
100
AcDbEntity
100
AcDbLine
  8
tslotrounded
 62
256
370
-1
  6
ByLayer
 10
19.5
 20
20.8000000000000007
 30
0.0
 11
23.6999999999999993
 21
25.0
 31
0.0
  0
LINE
  5
D8
100
AcDbEntity
100
AcDbLine
  8
tslotrounded
 62
256
370
-1
  6
ByLayer
 10
23.6999999999999993
 20
25.0
 30
0.0
 11
23.6999999999999993
 21
28.0
 31
0.0
  0
LINE
  5
D9
100
AcDbEntity
100
AcDbLine
  8
tslotrounded
 62
256
370
-1
  6
ByLayer
 10
23.6999999999999993
 20
28.0
 30
0.0
 11
19.0
 21
28.0
 31
0.0
  0
LINE
  5
DA
100
AcDbEntity
100
AcDbLine
  8
tslotrounded
 62
256
370
-1
  6
ByLayer
 10
19.0
 20
28.0
 30
0.0
 11
19.0
 21
30.0
 31
0.0
  0
LINE
  5
DB
100
AcDbEntity
100
AcDbLine
  8
tslotrounded
 62
256
370
-1
  6
ByLayer
 10
30.0
 20
19.0
 30
0.0
 11
28.0
 21
19.0
 31
0.0
  0
LINE
  5
DC
100
AcDbEntity
100
AcDbLine
  8
tslotrounded
 62
256
370
-1
  6
ByLayer
 10
28.0
 20
19.0
 30
0.0
 11
28.0
 21
23.6999999999999993
 31
0.0
  0
LINE
  5
DD
100
AcDbEntity
100
AcDbLine
  8
tslotrounded
 62
256
370
-1
  6
ByLayer
 10
28.0
 20
23.6999999999999993
 30
0.0
 11
25.0
 21
23.6999999999999993
 31
0.0
  0
LINE
  5
DE
100
AcDbEntity
100
AcDbLine
  8
tslotrounded
 62
256
370
-1
  6
ByLayer
 10
25.0
 20
23.6999999999999993
 30
0.0
 11
20.8000000000000007
 21
19.5
 31
0.0
  0
LINE
  5
DF
100
AcDbEntity
100
AcDbLine
  8
tslotrounded
 62
256
370
-1
  6
ByLayer
 10
20.8000000000000007
 20
19.5
 30
0.0
 11
20.8000000000000007
 21
10.5
 31
0.0
  0
LINE
  5
E0
100
AcDbEntity
100
AcDbLine
  8
tslotrounded
 62
256
370
-1
  6
ByLayer
 10
20.8000000000000007
 20
10.5
 30
0.0
 11
25.0
 21
6.3000000000000007
 31
0.0
  0
LINE
  5
E1
100
AcDbEntity
100
AcDbLine
  8
tslotrounded
 62
256
370
-1
  6
ByLayer
 10
25.0
 20
6.3000000000000007
 30
0.0
 11
28.0
 21
6.3000000000000007
 31
0.0
  0
LINE
  5
E2
100
AcDbEntity
100
AcDbLine
  8
tslotrounded
 62
256
370
-1
  6
ByLayer
 10
28.0
 20
6.3000000000000007
 30
0.0
 11
28.0
 21
11.0
 31
0.0
  0
LINE
  5
E3
100
AcDbEntity
100
AcDbLine
  8
tslotrounded
 62
256
370
-1
  6
ByLayer
 10
28.0
 20
11.0
 30
0.0
 11
30.0
 21
11.0
 31
0.0
  0
LINE
  5
E4
100
AcDbEntity
100
AcDbLine
  8
tslotrounded
 62
256
370
-1
  6
ByLayer
 10
19.0
 20
0.0
 30
0.0
 11
19.0
 21
2.0
 31
0.0
  0
LINE
  5
E5
100
AcDbEntity
100
AcDbLine
  8
tslotrounded
 62
256
370
-1
  6
ByLayer
 10
19.0
 20
2.0
 30
0.0
 11
23.6999999999999993
 21
2.0
 31
0.0
  0
LINE
  5
E6
100
AcDbEntity
100
AcDbLine
  8
tslotrounded
 62
256
370
-1
  6
ByLayer
 10
23.6999999999999993
 20
2.0
 30
0.0
 11
23.6999999999999993
 21
5.0
 31
0.0
  0
LINE
  5
E7
100
AcDbEntity
100
AcDbLine
  8
tslotrounded
 62
256
370
-1
  6
ByLayer
 10
23.6999999999999993
 20
5.0
 30
0.0
 11
19.5
 21
9.2000000000000011
 31
0.0
  0
LINE
  5
E8
100
AcDbEntity
100
AcDbLine
  8
tslotrounded
 62
256
370
-1
  6
ByLayer
 10
19.5
 20
9.2000000000000011
 30
0.0
 11
10.5
 21
9.2000000000000011
 31
0.0
  0
LINE
  5
E9
100
AcDbEntity
100
AcDbLine
  8
tslotrounded
 62
256
370
-1
  6
ByLayer
 10
10.5
 20
9.2000000000000011
 30
0.0
 11
6.2999999999999972
 21
5.0
 31
0.0
  0
LINE
  5
EA
100
AcDbEntity
100
AcDbLine
  8
tslotrounded
 62
256
370
-1
  6
ByLayer
 10
6.2999999999999972
 20
5.0
 30
0.0
 11
6.2999999999999972
 21
2.0
 31
0.0
  0
LINE
  5
EB
100
AcDbEntity
100
AcDbLine
  8
tslotrounded
 62
256
370
-1
  6
ByLayer
 10
6.2999999999999972
 20
2.0
 30
0.0
 11
11.0
 21
2.0
 31
0.0
  0
LINE
  5
EC
100
AcDbEntity
100
AcDbLine
  8
tslotrounded
 62
256
370
-1
  6
ByLayer
 10
11.0
 20
2.0
 30
0.0
 11
11.0
 21
0.0
 31
0.0
  0
LINE
  5
ED
100
AcDbEntity
100
AcDbLine
  8
tslotrounded
 62
256
370
-1
  6
ByLayer
 10
2.0
 20
6.3000000000000007
 30
0.0
 11
4.7809999999999988
 21
6.2999999999999998
 31
0.0
  0
LINE
  5
EE
100
AcDbEntity
100
AcDbLine
  8
tslotrounded
 62
256
370
-1
  6
ByLayer
 10
11.0
 20
0.0
 30
0.0
 11
2.0
 21
0.0
 31
0.0
  0
LINE
  5
EF
100
AcDbEntity
100
AcDbLine
  8
tslotrounded
 62
256
370
-1
  6
ByLayer
 10
0.0
 20
2.0
 30
0.0
 11
0.0
 21
11.0
 31
0.0
  0
ARC
  5
F0
100
AcDbEntity
  8
tslotrounded
 62
256
370
-1
  6
ByLayer
100
AcDbCircle
 10
2.0
 20
2.0
 30
0.0
 40
2.0
100
AcDbArc
 50
180.0
 51
270.0
  0
LINE
  5
F1
100
AcDbEntity
100
AcDbLine
  8
tslotrounded
 62
256
370
-1
  6
ByLayer
 10
0.0
 20
19.0
 30
0.0
 11
0.0
 21
28.0
 31
0.0
  0
LINE
  5
F2
100
AcDbEntity
100
AcDbLine
  8
tslotrounded
 62
256
370
-1
  6
ByLayer
 10
2.0
 20
30.0
 30
0.0
 11
10.0
 21
30.0
 31
0.0
  0
ARC
  5
F3
100
AcDbEntity
  8
tslotrounded
 62
256
370
-1
  6
ByLayer
100
AcDbCircle
 10
2.0
 20
28.0
 30
0.0
 40
2.0
100
AcDbArc
 50
90.0
 51
180.0
  0
LINE
  5
F4
100
AcDbEntity
100
AcDbLine
  8
tslotrounded
 62
256
370
-1
  6
ByLayer
 10
19.0
 20
30.0
 30
0.0
 11
28.0
 21
30.0
 31
0.0
  0
LINE
  5
F5
100
AcDbEntity
100
AcDbLine
  8
tslotrounded
 62
256
370
-1
  6
ByLayer
 10
30.0
 20
28.0
 30
0.0
 11
30.0
 21
19.0
 31
0.0
  0
ARC
  5
F6
100
AcDbEntity
  8
tslotrounded
 62
256
370
-1
  6
ByLayer
100
AcDbCircle
 10
28.0
 20
28.0
 30
0.0
 40
2.0
100
AcDbArc
 50
0.0
 51
90.0
  0
LINE
  5
F7
100
AcDbEntity
100
AcDbLine
  8
tslotrounded
 62
256
370
-1
  6
ByLayer
 10
30.0
 20
11.0
 30
0.0
 11
30.0
 21
2.0
 31
0.0
  0
LINE
  5
F8
100
AcDbEntity
100
AcDbLine
  8
tslotrounded
 62
256
370
-1
  6
ByLayer
 10
28.0
 20
0.0
 30
0.0
 11
19.0
 21
0.0
 31
0.0
  0
ARC
  5
F9
100
AcDbEntity
  8
tslotrounded
 62
256
370
-1
  6
ByLayer
100
AcDbCircle
 10
28.0
 20
2.0
 30
0.0
 40
2.0
100
AcDbArc
 50
270.0
 51
0.0
  0
LINE
  5
FA
100
AcDbEntity
100
AcDbLine
  8
tslotmodel1
 62
256
370
-1
  6
ByLayer
 10
0.0
 20
10.0
 30
0.0
 11
1.2000000000000002
 21
10.0
 31
0.0
  0
LINE
  5
FB
100
AcDbEntity
100
AcDbLine
  8
tslotmodel1
 62
256
370
-1
  6
ByLayer
 10
1.2000000000000002
 20
10.0
 30
0.0
 11
1.2000000000000002
 21
11.0
 31
0.0
  0
LINE
  5
FC
100
AcDbEntity
100
AcDbLine
  8
tslotmodel1
 62
256
370
-1
  6
ByLayer
 10
1.2000000000000002
 20
11.0
 30
0.0
 11
2.0
 21
11.0
 31
0.0
  0
LINE
  5
FD
100
AcDbEntity
100
AcDbLine
  8
tslotmodel1
 62
256
370
-1
  6
ByLayer
 10
2.0
 20
11.0
 30
0.0
 11
2.0
 21
6.3000000000000007
 31
0.0
  0
LINE
  5
FE
100
AcDbEntity
100
AcDbLine
  8
tslotmodel1
 62
256
370
-1
  6
ByLayer
 10
2.0
 20
6.3000000000000007
 30
0.0
 11
5.0
 21
6.3000000000000007
 31
0.0
  0
LINE
  5
FF
100
AcDbEntity
100
AcDbLine
  8
tslotmodel1
 62
256
370
-1
  6
ByLayer
 10
5.0
 20
6.3000000000000007
 30
0.0
 11
9.2000000000000011
 21
10.5
 31
0.0
  0
LINE
  5
100
100
AcDbEntity
100
AcDbLine
  8
tslotmodel1
 62
256
370
-1
  6
ByLayer
 10
9.2000000000000011
 20
10.5
 30
0.0
 11
9.2000000000000011
 21
14.6000000000000014
 31
0.0
  0
LINE
  5
101
100
AcDbEntity
100
AcDbLine
  8
tslotmodel1
 62
256
370
-1
  6
ByLayer
 10
9.2000000000000011
 20
14.6000000000000014
 30
0.0
 11
10.0
 21
14.6000000000000014
 31
0.0
  0
LINE
  5
102
100
AcDbEntity
100
AcDbLine
  8
tslotmodel1
 62
256
370
-1
  6
ByLayer
 10
10.0
 20
14.6000000000000014
 30
0.0
 11
10.0
 21
15.0000000000000018
 31
0.0
  0
LINE
  5
103
100
AcDbEntity
100
AcDbLine
  8
tslotmodel1
 62
256
370
-1
  6
ByLayer
 10
10.0
 20
15.0000000000000018
 30
0.0
 11
10.0
 21
15.4000000000000004
 31
0.0
  0
LINE
  5
104
100
AcDbEntity
100
AcDbLine
  8
tslotmodel1
 62
256
370
-1
  6
ByLayer
 10
10.0
 20
15.4000000000000004
 30
0.0
 11
9.2000000000000011
 21
15.4000000000000004
 31
0.0
  0
LINE
  5
105
100
AcDbEntity
100
AcDbLine
  8
tslotmodel1
 62
256
370
-1
  6
ByLayer
 10
9.2000000000000011
 20
15.4000000000000004
 30
0.0
 11
9.2000000000000011
 21
19.5
 31
0.0
  0
LINE
  5
106
100
AcDbEntity
100
AcDbLine
  8
tslotmodel1
 62
256
370
-1
  6
ByLayer
 10
9.2000000000000135
 20
19.4999999999999893
 30
0.0
 11
5.0020913964628306
 21
23.6979086035371758
 31
0.0
  0
LINE
  5
107
100
AcDbEntity
100
AcDbLine
  8
tslotmodel1
 62
256
370
-1
  6
ByLayer
 10
5.0020913964628306
 20
23.6979086035371758
 30
0.0
 11
2.0
 21
23.6999999999999993
 31
0.0
  0
LINE
  5
108
100
AcDbEntity
100
AcDbLine
  8
tslotmodel1
 62
256
370
-1
  6
ByLayer
 10
2.0
 20
23.6999999999999993
 30
0.0
 11
2.0
 21
19.0
 31
0.0
  0
LINE
  5
109
100
AcDbEntity
100
AcDbLine
  8
tslotmodel1
 62
256
370
-1
  6
ByLayer
 10
2.0
 20
19.0
 30
0.0
 11
1.2000000000000002
 21
19.0
 31
0.0
  0
LINE
  5
10A
100
AcDbEntity
100
AcDbLine
  8
tslotmodel1
 62
256
370
-1
  6
ByLayer
 10
1.2000000000000002
 20
19.0
 30
0.0
 11
1.2000000000000002
 21
20.0
 31
0.0
  0
LINE
  5
10B
100
AcDbEntity
100
AcDbLine
  8
tslotmodel1
 62
256
370
-1
  6
ByLayer
 10
1.2000000000000002
 20
20.0
 30
0.0
 11
0.0
 21
20.0
 31
0.0
  0
LINE
  5
10C
100
AcDbEntity
100
AcDbLine
  8
tslotmodel1
 62
256
370
-1
  6
ByLayer
 10
0.0
 20
20.0
 30
0.0
 11
0.0
 21
30.0
 31
0.0
  0
LINE
  5
10D
100
AcDbEntity
100
AcDbLine
  8
tslotmodel1
 62
256
370
-1
  6
ByLayer
 10
0.0
 20
30.0
 30
0.0
 11
10.0
 21
30.0
 31
0.0
  0
LINE
  5
10E
100
AcDbEntity
100
AcDbLine
  8
tslotmodel1
 62
256
370
-1
  6
ByLayer
 10
10.0
 20
30.0
 30
0.0
 11
10.0
 21
28.8000000000000007
 31
0.0
  0
LINE
  5
10F
100
AcDbEntity
100
AcDbLine
  8
tslotmodel1
 62
256
370
-1
  6
ByLayer
 10
10.0
 20
28.8000000000000007
 30
0.0
 11
11.0
 21
28.8000000000000007
 31
0.0
  0
LINE
  5
110
100
AcDbEntity
100
AcDbLine
  8
tslotmodel1
 62
256
370
-1
  6
ByLayer
 10
11.0
 20
28.8000000000000007
 30
0.0
 11
11.0
 21
28.0
 31
0.0
  0
LINE
  5
111
100
AcDbEntity
100
AcDbLine
  8
tslotmodel1
 62
256
370
-1
  6
ByLayer
 10
11.0
 20
28.0
 30
0.0
 11
6.3000000000000007
 21
28.0
 31
0.0
  0
LINE
  5
112
100
AcDbEntity
100
AcDbLine
  8
tslotmodel1
 62
256
370
-1
  6
ByLayer
 10
6.3000000000000007
 20
28.0
 30
0.0
 11
6.3000000000000007
 21
25.0
 31
0.0
  0
LINE
  5
113
100
AcDbEntity
100
AcDbLine
  8
tslotmodel1
 62
256
370
-1
  6
ByLayer
 10
6.3000000000000007
 20
25.0
 30
0.0
 11
10.5
 21
20.8000000000000007
 31
0.0
  0
LINE
  5
114
100
AcDbEntity
100
AcDbLine
  8
tslotmodel1
 62
256
370
-1
  6
ByLayer
 10
10.5
 20
20.8000000000000007
 30
0.0
 11
14.6000000000000014
 21
20.8000000000000007
 31
0.0
  0
LINE
  5
115
100
AcDbEntity
100
AcDbLine
  8
tslotmodel1
 62
256
370
-1
  6
ByLayer
 10
14.6000000000000014
 20
20.8000000000000007
 30
0.0
 11
14.6000000000000014
 21
20.0
 31
0.0
  0
LINE
  5
116
100
AcDbEntity
100
AcDbLine
  8
tslotmodel1
 62
256
370
-1
  6
ByLayer
 10
14.6000000000000014
 20
20.0
 30
0.0
 11
15.4000000000000004
 21
20.0
 31
0.0
  0
LINE
  5
117
100
AcDbEntity
100
AcDbLine
  8
tslotmodel1
 62
256
370
-1
  6
ByLayer
 10
15.4000000000000004
 20
20.0
 30
0.0
 11
15.4000000000000004
 21
20.8000000000000007
 31
0.0
  0
LINE
  5
118
100
AcDbEntity
100
AcDbLine
  8
tslotmodel1
 62
256
370
-1
  6
ByLayer
 10
15.4000000000000004
 20
20.8000000000000007
 30
0.0
 11
19.5
 21
20.8000000000000007
 31
0.0
  0
LINE
  5
119
100
AcDbEntity
100
AcDbLine
  8
tslotmodel1
 62
256
370
-1
  6
ByLayer
 10
19.5
 20
20.8000000000000007
 30
0.0
 11
23.6999999999999993
 21
25.0
 31
0.0
  0
LINE
  5
11A
100
AcDbEntity
100
AcDbLine
  8
tslotmodel1
 62
256
370
-1
  6
ByLayer
 10
23.6999999999999993
 20
25.0
 30
0.0
 11
23.6999999999999993
 21
28.0
 31
0.0
  0
LINE
  5
11B
100
AcDbEntity
100
AcDbLine
  8
tslotmodel1
 62
256
370
-1
  6
ByLayer
 10
23.6999999999999993
 20
28.0
 30
0.0
 11
19.0
 21
28.0
 31
0.0
  0
LINE
  5
11C
100
AcDbEntity
100
AcDbLine
  8
tslotmodel1
 62
256
370
-1
  6
ByLayer
 10
19.0
 20
28.0
 30
0.0
 11
19.0
 21
28.8000000000000007
 31
0.0
  0
LINE
  5
11D
100
AcDbEntity
100
AcDbLine
  8
tslotmodel1
 62
256
370
-1
  6
ByLayer
 10
19.0
 20
28.8000000000000007
 30
0.0
 11
19.9999999999999964
 21
28.8000000000000007
 31
0.0
  0
LINE
  5
11E
100
AcDbEntity
100
AcDbLine
  8
tslotmodel1
 62
256
370
-1
  6
ByLayer
 10
19.9999999999999964
 20
28.8000000000000007
 30
0.0
 11
20.0
 21
30.0
 31
0.0
  0
LINE
  5
11F
100
AcDbEntity
100
AcDbLine
  8
tslotmodel1
 62
256
370
-1
  6
ByLayer
 10
20.0
 20
30.0
 30
0.0
 11
30.0
 21
30.0
 31
0.0
  0
LINE
  5
120
100
AcDbEntity
100
AcDbLine
  8
tslotmodel1
 62
256
370
-1
  6
ByLayer
 10
30.0
 20
30.0
 30
0.0
 11
30.0
 21
20.0
 31
0.0
  0
LINE
  5
121
100
AcDbEntity
100
AcDbLine
  8
tslotmodel1
 62
256
370
-1
  6
ByLayer
 10
30.0
 20
20.0
 30
0.0
 11
28.8000000000000007
 21
20.0
 31
0.0
  0
LINE
  5
122
100
AcDbEntity
100
AcDbLine
  8
tslotmodel1
 62
256
370
-1
  6
ByLayer
 10
28.8000000000000007
 20
20.0
 30
0.0
 11
28.8000000000000007
 21
19.0
 31
0.0
  0
LINE
  5
123
100
AcDbEntity
100
AcDbLine
  8
tslotmodel1
 62
256
370
-1
  6
ByLayer
 10
28.8000000000000007
 20
19.0
 30
0.0
 11
28.0
 21
19.0
 31
0.0
  0
LINE
  5
124
100
AcDbEntity
100
AcDbLine
  8
tslotmodel1
 62
256
370
-1
  6
ByLayer
 10
28.0
 20
19.0
 30
0.0
 11
28.0
 21
23.7000000000000028
 31
0.0
  0
LINE
  5
125
100
AcDbEntity
100
AcDbLine
  8
tslotmodel1
 62
256
370
-1
  6
ByLayer
 10
28.0
 20
23.7000000000000028
 30
0.0
 11
25.0
 21
23.7000000000000028
 31
0.0
  0
LINE
  5
126
100
AcDbEntity
100
AcDbLine
  8
tslotmodel1
 62
256
370
-1
  6
ByLayer
 10
25.0
 20
23.7000000000000028
 30
0.0
 11
20.8000000000000007
 21
19.4999999999999964
 31
0.0
  0
LINE
  5
127
100
AcDbEntity
100
AcDbLine
  8
tslotmodel1
 62
256
370
-1
  6
ByLayer
 10
20.8000000000000007
 20
19.4999999999999964
 30
0.0
 11
20.8000000000000007
 21
15.4000000000000004
 31
0.0
  0
LINE
  5
128
100
AcDbEntity
100
AcDbLine
  8
tslotmodel1
 62
256
370
-1
  6
ByLayer
 10
20.8000000000000007
 20
15.4000000000000004
 30
0.0
 11
20.0
 21
15.4000000000000004
 31
0.0
  0
LINE
  5
129
100
AcDbEntity
100
AcDbLine
  8
tslotmodel1
 62
256
370
-1
  6
ByLayer
 10
20.0
 20
15.4000000000000004
 30
0.0
 11
20.0
 21
14.6000000000000014
 31
0.0
  0
LINE
  5
12A
100
AcDbEntity
100
AcDbLine
  8
tslotmodel1
 62
256
370
-1
  6
ByLayer
 10
20.0
 20
14.6000000000000014
 30
0.0
 11
20.8000000000000007
 21
14.6000000000000014
 31
0.0
  0
LINE
  5
12B
100
AcDbEntity
100
AcDbLine
  8
tslotmodel1
 62
256
370
-1
  6
ByLayer
 10
20.8000000000000007
 20
14.6000000000000014
 30
0.0
 11
20.7999999999999972
 21
10.5000000000000018
 31
0.0
  0
LINE
  5
12C
100
AcDbEntity
100
AcDbLine
  8
tslotmodel1
 62
256
370
-1
  6
ByLayer
 10
20.7999999999999972
 20
10.5000000000000018
 30
0.0
 11
25.0
 21
6.3000000000000007
 31
0.0
  0
LINE
  5
12D
100
AcDbEntity
100
AcDbLine
  8
tslotmodel1
 62
256
370
-1
  6
ByLayer
 10
25.0
 20
6.3000000000000007
 30
0.0
 11
28.0
 21
6.3000000000000007
 31
0.0
  0
LINE
  5
12E
100
AcDbEntity
100
AcDbLine
  8
tslotmodel1
 62
256
370
-1
  6
ByLayer
 10
28.0
 20
6.3000000000000007
 30
0.0
 11
28.0
 21
11.0000000000000018
 31
0.0
  0
LINE
  5
12F
100
AcDbEntity
100
AcDbLine
  8
tslotmodel1
 62
256
370
-1
  6
ByLayer
 10
28.0
 20
11.0000000000000018
 30
0.0
 11
28.8000000000000007
 21
11.0000000000000018
 31
0.0
  0
LINE
  5
130
100
AcDbEntity
100
AcDbLine
  8
tslotmodel1
 62
256
370
-1
  6
ByLayer
 10
28.8000000000000007
 20
11.0000000000000018
 30
0.0
 11
28.8000000000000007
 21
10.0000000000000018
 31
0.0
  0
LINE
  5
131
100
AcDbEntity
100
AcDbLine
  8
tslotmodel1
 62
256
370
-1
  6
ByLayer
 10
28.8000000000000007
 20
10.0000000000000018
 30
0.0
 11
30.0
 21
10.0
 31
0.0
  0
LINE
  5
132
100
AcDbEntity
100
AcDbLine
  8
tslotmodel1
 62
256
370
-1
  6
ByLayer
 10
30.0
 20
10.0
 30
0.0
 11
30.0
 21
0.0
 31
0.0
  0
LINE
  5
133
100
AcDbEntity
100
AcDbLine
  8
tslotmodel1
 62
256
370
-1
  6
ByLayer
 10
30.0
 20
0.0
 30
0.0
 11
20.0
 21
0.0
 31
0.0
  0
LINE
  5
134
100
AcDbEntity
100
AcDbLine
  8
tslotmodel1
 62
256
370
-1
  6
ByLayer
 10
20.0
 20
0.0
 30
0.0
 11
20.0
 21
1.2
 31
0.0
  0
LINE
  5
135
100
AcDbEntity
100
AcDbLine
  8
tslotmodel1
 62
256
370
-1
  6
ByLayer
 10
20.0
 20
1.2
 30
0.0
 11
19.0
 21
1.2000000000000002
 31
0.0
  0
LINE
  5
136
100
AcDbEntity
100
AcDbLine
  8
tslotmodel1
 62
256
370
-1
  6
ByLayer
 10
19.0
 20
1.2000000000000002
 30
0.0
 11
19.0
 21
2.0
 31
0.0
  0
LINE
  5
137
100
AcDbEntity
100
AcDbLine
  8
tslotmodel1
 62
256
370
-1
  6
ByLayer
 10
19.0
 20
2.0
 30
0.0
 11
23.6999999999999993
 21
2.0
 31
0.0
  0
LINE
  5
138
100
AcDbEntity
100
AcDbLine
  8
tslotmodel1
 62
256
370
-1
  6
ByLayer
 10
23.6999999999999993
 20
2.0
 30
0.0
 11
23.6999999999999993
 21
5.0000000000000009
 31
0.0
  0
LINE
  5
139
100
AcDbEntity
100
AcDbLine
  8
tslotmodel1
 62
256
370
-1
  6
ByLayer
 10
23.6999999999999993
 20
5.0000000000000009
 30
0.0
 11
19.5
 21
9.2000000000000011
 31
0.0
  0
LINE
  5
13A
100
AcDbEntity
100
AcDbLine
  8
tslotmodel1
 62
256
370
-1
  6
ByLayer
 10
19.5
 20
9.2000000000000011
 30
0.0
 11
15.4000000000000021
 21
9.2000000000000011
 31
0.0
  0
LINE
  5
13B
100
AcDbEntity
100
AcDbLine
  8
tslotmodel1
 62
256
370
-1
  6
ByLayer
 10
15.4000000000000021
 20
9.2000000000000011
 30
0.0
 11
15.4000000000000021
 21
10.0
 31
0.0
  0
LINE
  5
13C
100
AcDbEntity
100
AcDbLine
  8
tslotmodel1
 62
256
370
-1
  6
ByLayer
 10
15.4000000000000021
 20
10.0
 30
0.0
 11
14.6000000000000014
 21
10.0
 31
0.0
  0
LINE
  5
13D
100
AcDbEntity
100
AcDbLine
  8
tslotmodel1
 62
256
370
-1
  6
ByLayer
 10
14.6000000000000014
 20
10.0
 30
0.0
 11
14.6000000000000014
 21
9.2000000000000011
 31
0.0
  0
LINE
  5
13E
100
AcDbEntity
100
AcDbLine
  8
tslotmodel1
 62
256
370
-1
  6
ByLayer
 10
14.6000000000000014
 20
9.2000000000000011
 30
0.0
 11
10.5
 21
9.2000000000000011
 31
0.0
  0
LINE
  5
13F
100
AcDbEntity
100
AcDbLine
  8
tslotmodel1
 62
256
370
-1
  6
ByLayer
 10
10.5
 20
9.2000000000000011
 30
0.0
 11
6.3000000000000007
 21
5.0
 31
0.0
  0
LINE
  5
140
100
AcDbEntity
100
AcDbLine
  8
tslotmodel1
 62
256
370
-1
  6
ByLayer
 10
6.3000000000000007
 20
5.0
 30
0.0
 11
6.3000000000000007
 21
2.0
 31
0.0
  0
LINE
  5
141
100
AcDbEntity
100
AcDbLine
  8
tslotmodel1
 62
256
370
-1
  6
ByLayer
 10
6.3000000000000007
 20
2.0
 30
0.0
 11
11.0
 21
2.0
 31
0.0
  0
LINE
  5
142
100
AcDbEntity
100
AcDbLine
  8
tslotmodel1
 62
256
370
-1
  6
ByLayer
 10
11.0
 20
2.0
 30
0.0
 11
11.0
 21
1.2000000000000002
 31
0.0
  0
LINE
  5
143
100
AcDbEntity
100
AcDbLine
  8
tslotmodel1
 62
256
370
-1
  6
ByLayer
 10
11.0
 20
1.2000000000000002
 30
0.0
 11
10.0
 21
1.2000000000000002
 31
0.0
  0
LINE
  5
144
100
AcDbEntity
100
AcDbLine
  8
tslotmodel1
 62
256
370
-1
  6
ByLayer
 10
10.0
 20
1.2000000000000002
 30
0.0
 11
10.0
 21
0.0
 31
0.0
  0
LINE
  5
145
100
AcDbEntity
100
AcDbLine
  8
tslotmodel1
 62
256
370
-1
  6
ByLayer
 10
10.0
 20
0.0
 30
0.0
 11
0.0
 21
0.0
 31
0.0
  0
LINE
  5
146
100
AcDbEntity
100
AcDbLine
  8
tslotmodel1
 62
256
370
-1
  6
ByLayer
 10
0.0
 20
0.0
 30
0.0
 11
0.0
 21
9.7799999999999994
 31
0.0
  0
LINE
  5
147
100
AcDbEntity
100
AcDbLine
  8
tslotmodel1
 62
256
370
-1
  6
ByLayer
 10
0.0
 20
9.7799999999999994
 30
0.0
 11
0.0
 21
10.0
 31
0.0
  0
LINE
  5
148
100
AcDbEntity
100
AcDbLine
  8
tslotrounded2
 62
256
370
-1
  6
ByLayer
 10
1.2000000000000028
 20
10.0
 30
0.0
 11
1.2000000000000028
 21
11.0
 31
0.0
  0
LINE
  5
149
100
AcDbEntity
100
AcDbLine
  8
tslotrounded2
 62
256
370
-1
  6
ByLayer
 10
1.2000000000000028
 20
11.0
 30
0.0
 11
2.0
 21
11.0
 31
0.0
  0
LINE
  5
14A
100
AcDbEntity
100
AcDbLine
  8
tslotrounded2
 62
256
370
-1
  6
ByLayer
 10
5.0
 20
6.3000000000000007
 30
0.0
 11
9.2000000000000028
 21
10.5
 31
0.0
  0
LINE
  5
14B
100
AcDbEntity
100
AcDbLine
  8
tslotrounded2
 62
256
370
-1
  6
ByLayer
 10
9.2000000000000028
 20
10.5
 30
0.0
 11
9.2000000000000028
 21
14.6000000000000014
 31
0.0
  0
LINE
  5
14C
100
AcDbEntity
100
AcDbLine
  8
tslotrounded2
 62
256
370
-1
  6
ByLayer
 10
9.2000000000000028
 20
14.6000000000000014
 30
0.0
 11
10.0
 21
14.6000000000000014
 31
0.0
  0
LINE
  5
14D
100
AcDbEntity
100
AcDbLine
  8
tslotrounded2
 62
256
370
-1
  6
ByLayer
 10
10.0
 20
14.6000000000000014
 30
0.0
 11
10.0
 21
15.0000000000000018
 31
0.0
  0
LINE
  5
14E
100
AcDbEntity
100
AcDbLine
  8
tslotrounded2
 62
256
370
-1
  6
ByLayer
 10
10.0
 20
15.0000000000000018
 30
0.0
 11
10.0
 21
15.4000000000000004
 31
0.0
  0
LINE
  5
14F
100
AcDbEntity
100
AcDbLine
  8
tslotrounded2
 62
256
370
-1
  6
ByLayer
 10
10.0
 20
15.4000000000000004
 30
0.0
 11
9.2000000000000028
 21
15.4000000000000004
 31
0.0
  0
LINE
  5
150
100
AcDbEntity
100
AcDbLine
  8
tslotrounded2
 62
256
370
-1
  6
ByLayer
 10
9.2000000000000028
 20
15.4000000000000004
 30
0.0
 11
9.2000000000000028
 21
19.5
 31
0.0
  0
LINE
  5
151
100
AcDbEntity
100
AcDbLine
  8
tslotrounded2
 62
256
370
-1
  6
ByLayer
 10
9.2000000000000171
 20
19.4999999999999893
 30
0.0
 11
5.0020913964628306
 21
23.6979086035371758
 31
0.0
  0
LINE
  5
152
100
AcDbEntity
100
AcDbLine
  8
tslotrounded2
 62
256
370
-1
  6
ByLayer
 10
2.0
 20
19.0
 30
0.0
 11
1.2000000000000028
 21
19.0
 31
0.0
  0
LINE
  5
153
100
AcDbEntity
100
AcDbLine
  8
tslotrounded2
 62
256
370
-1
  6
ByLayer
 10
1.2000000000000028
 20
19.0
 30
0.0
 11
1.2000000000000028
 21
20.0
 31
0.0
  0
LINE
  5
154
100
AcDbEntity
100
AcDbLine
  8
tslotrounded2
 62
256
370
-1
  6
ByLayer
 10
11.0
 20
28.8000000000000007
 30
0.0
 11
11.0
 21
28.0
 31
0.0
  0
LINE
  5
155
100
AcDbEntity
100
AcDbLine
  8
tslotrounded2
 62
256
370
-1
  6
ByLayer
 10
6.2999999999999972
 20
25.0
 30
0.0
 11
10.5
 21
20.8000000000000007
 31
0.0
  0
LINE
  5
156
100
AcDbEntity
100
AcDbLine
  8
tslotrounded2
 62
256
370
-1
  6
ByLayer
 10
10.5
 20
20.8000000000000007
 30
0.0
 11
14.5999999999999943
 21
20.8000000000000007
 31
0.0
  0
LINE
  5
157
100
AcDbEntity
100
AcDbLine
  8
tslotrounded2
 62
256
370
-1
  6
ByLayer
 10
14.5999999999999943
 20
20.8000000000000007
 30
0.0
 11
14.5999999999999943
 21
20.0
 31
0.0
  0
LINE
  5
158
100
AcDbEntity
100
AcDbLine
  8
tslotrounded2
 62
256
370
-1
  6
ByLayer
 10
14.5999999999999943
 20
20.0
 30
0.0
 11
15.4000000000000057
 21
20.0
 31
0.0
  0
LINE
  5
159
100
AcDbEntity
100
AcDbLine
  8
tslotrounded2
 62
256
370
-1
  6
ByLayer
 10
15.4000000000000057
 20
20.0
 30
0.0
 11
15.4000000000000057
 21
20.8000000000000007
 31
0.0
  0
LINE
  5
15A
100
AcDbEntity
100
AcDbLine
  8
tslotrounded2
 62
256
370
-1
  6
ByLayer
 10
15.4000000000000057
 20
20.8000000000000007
 30
0.0
 11
19.5
 21
20.8000000000000007
 31
0.0
  0
LINE
  5
15B
100
AcDbEntity
100
AcDbLine
  8
tslotrounded2
 62
256
370
-1
  6
ByLayer
 10
19.5
 20
20.8000000000000007
 30
0.0
 11
23.7000000000000028
 21
25.0
 31
0.0
  0
LINE
  5
15C
100
AcDbEntity
100
AcDbLine
  8
tslotrounded2
 62
256
370
-1
  6
ByLayer
 10
19.0
 20
28.0
 30
0.0
 11
19.0
 21
28.8000000000000007
 31
0.0
  0
LINE
  5
15D
100
AcDbEntity
100
AcDbLine
  8
tslotrounded2
 62
256
370
-1
  6
ByLayer
 10
19.0
 20
28.8000000000000007
 30
0.0
 11
20.0
 21
28.8000000000000007
 31
0.0
  0
LINE
  5
15E
100
AcDbEntity
100
AcDbLine
  8
tslotrounded2
 62
256
370
-1
  6
ByLayer
 10
28.7999999999999972
 20
20.0
 30
0.0
 11
28.7999999999999972
 21
19.0
 31
0.0
  0
LINE
  5
15F
100
AcDbEntity
100
AcDbLine
  8
tslotrounded2
 62
256
370
-1
  6
ByLayer
 10
28.7999999999999972
 20
19.0
 30
0.0
 11
28.0
 21
19.0
 31
0.0
  0
LINE
  5
160
100
AcDbEntity
100
AcDbLine
  8
tslotrounded2
 62
256
370
-1
  6
ByLayer
 10
25.0
 20
23.7000000000000028
 30
0.0
 11
20.7999999999999972
 21
19.4999999999999964
 31
0.0
  0
LINE
  5
161
100
AcDbEntity
100
AcDbLine
  8
tslotrounded2
 62
256
370
-1
  6
ByLayer
 10
20.7999999999999972
 20
19.4999999999999964
 30
0.0
 11
20.7999999999999972
 21
15.4000000000000004
 31
0.0
  0
LINE
  5
162
100
AcDbEntity
100
AcDbLine
  8
tslotrounded2
 62
256
370
-1
  6
ByLayer
 10
20.7999999999999972
 20
15.4000000000000004
 30
0.0
 11
20.0
 21
15.4000000000000004
 31
0.0
  0
LINE
  5
163
100
AcDbEntity
100
AcDbLine
  8
tslotrounded2
 62
256
370
-1
  6
ByLayer
 10
20.0
 20
15.4000000000000004
 30
0.0
 11
20.0
 21
14.6000000000000014
 31
0.0
  0
LINE
  5
164
100
AcDbEntity
100
AcDbLine
  8
tslotrounded2
 62
256
370
-1
  6
ByLayer
 10
20.0
 20
14.6000000000000014
 30
0.0
 11
20.7999999999999972
 21
14.6000000000000014
 31
0.0
  0
LINE
  5
165
100
AcDbEntity
100
AcDbLine
  8
tslotrounded2
 62
256
370
-1
  6
ByLayer
 10
20.7999999999999972
 20
14.6000000000000014
 30
0.0
 11
20.7999999999999972
 21
10.5000000000000018
 31
0.0
  0
LINE
  5
166
100
AcDbEntity
100
AcDbLine
  8
tslotrounded2
 62
256
370
-1
  6
ByLayer
 10
20.7999999999999972
 20
10.5000000000000018
 30
0.0
 11
25.0
 21
6.3000000000000007
 31
0.0
  0
LINE
  5
167
100
AcDbEntity
100
AcDbLine
  8
tslotrounded2
 62
256
370
-1
  6
ByLayer
 10
28.0
 20
11.0000000000000018
 30
0.0
 11
28.7999999999999972
 21
11.0000000000000018
 31
0.0
  0
LINE
  5
168
100
AcDbEntity
100
AcDbLine
  8
tslotrounded2
 62
256
370
-1
  6
ByLayer
 10
28.7999999999999972
 20
11.0000000000000018
 30
0.0
 11
28.7999999999999972
 21
10.0000000000000018
 31
0.0
  0
LINE
  5
169
100
AcDbEntity
100
AcDbLine
  8
tslotrounded2
 62
256
370
-1
  6
ByLayer
 10
20.0
 20
1.2
 30
0.0
 11
19.0
 21
1.2000000000000002
 31
0.0
  0
LINE
  5
16A
100
AcDbEntity
100
AcDbLine
  8
tslotrounded2
 62
256
370
-1
  6
ByLayer
 10
19.0
 20
1.2000000000000002
 30
0.0
 11
19.0
 21
2.0
 31
0.0
  0
LINE
  5
16B
100
AcDbEntity
100
AcDbLine
  8
tslotrounded2
 62
256
370
-1
  6
ByLayer
 10
23.7000000000000028
 20
5.0000000000000009
 30
0.0
 11
19.5
 21
9.2000000000000011
 31
0.0
  0
LINE
  5
16C
100
AcDbEntity
100
AcDbLine
  8
tslotrounded2
 62
256
370
-1
  6
ByLayer
 10
19.5
 20
9.2000000000000011
 30
0.0
 11
15.4000000000000057
 21
9.2000000000000011
 31
0.0
  0
LINE
  5
16D
100
AcDbEntity
100
AcDbLine
  8
tslotrounded2
 62
256
370
-1
  6
ByLayer
 10
15.4000000000000057
 20
9.2000000000000011
 30
0.0
 11
15.4000000000000057
 21
10.0
 31
0.0
  0
LINE
  5
16E
100
AcDbEntity
100
AcDbLine
  8
tslotrounded2
 62
256
370
-1
  6
ByLayer
 10
15.4000000000000057
 20
10.0
 30
0.0
 11
14.5999999999999943
 21
10.0
 31
0.0
  0
LINE
  5
16F
100
AcDbEntity
100
AcDbLine
  8
tslotrounded2
 62
256
370
-1
  6
ByLayer
 10
14.5999999999999943
 20
10.0
 30
0.0
 11
14.5999999999999943
 21
9.2000000000000011
 31
0.0
  0
LINE
  5
170
100
AcDbEntity
100
AcDbLine
  8
tslotrounded2
 62
256
370
-1
  6
ByLayer
 10
14.5999999999999943
 20
9.2000000000000011
 30
0.0
 11
10.5
 21
9.2000000000000011
 31
0.0
  0
LINE
  5
171
100
AcDbEntity
100
AcDbLine
  8
tslotrounded2
 62
256
370
-1
  6
ByLayer
 10
10.5
 20
9.2000000000000011
 30
0.0
 11
6.2999999999999972
 21
5.0
 31
0.0
  0
LINE
  5
172
100
AcDbEntity
100
AcDbLine
  8
tslotrounded2
 62
256
370
-1
  6
ByLayer
 10
11.0
 20
2.0
 30
0.0
 11
11.0
 21
1.2000000000000002
 31
0.0
  0
LINE
  5
173
100
AcDbEntity
100
AcDbLine
  8
tslotrounded2
 62
256
370
-1
  6
ByLayer
 10
11.0
 20
1.2000000000000002
 30
0.0
 11
10.0
 21
1.2000000000000002
 31
0.0
  0
ARC
  5
174
100
AcDbEntity
  8
tslotrounded2
 62
256
370
-1
  6
ByLayer
100
AcDbCircle
 10
2.0000000000000009
 20
2.0
 30
0.0
 40
2.0
100
AcDbArc
 50
180.0
 51
270.0
  0
ARC
  5
175
100
AcDbEntity
  8
tslotrounded2
 62
256
370
-1
  6
ByLayer
100
AcDbCircle
 10
2.0
 20
28.0
 30
0.0
 40
2.0
100
AcDbArc
 50
90.0
 51
180.0
  0
ARC
  5
176
100
AcDbEntity
  8
tslotrounded2
 62
256
370
-1
  6
ByLayer
100
AcDbCircle
 10
28.0
 20
28.0
 30
0.0
 40
2.0
100
AcDbArc
 50
0.0
 51
90.0
  0
ARC
  5
177
100
AcDbEntity
  8
tslotrounded2
 62
256
370
-1
  6
ByLayer
100
AcDbCircle
 10
28.0
 20
2.0
 30
0.0
 40
2.0
100
AcDbArc
 50
270.0
 51
0.0
  0
LINE
  5
178
100
AcDbEntity
100
AcDbLine
  8
tslotrounded2
 62
256
370
-1
  6
ByLayer
 10
11.0
 20
28.0
 30
0.0
 11
7.2999999999999972
 21
28.0
 31
0.0
  0
LINE
  5
179
100
AcDbEntity
100
AcDbLine
  8
tslotrounded2
 62
256
370
-1
  6
ByLayer
 10
6.2999999999999972
 20
27.0
 30
0.0
 11
6.2999999999999972
 21
25.0
 31
0.0
  0
ARC
  5
17A
100
AcDbEntity
  8
tslotrounded2
 62
256
370
-1
  6
ByLayer
100
AcDbCircle
 10
7.2999999999999972
 20
27.0
 30
0.0
 40
1.0
100
AcDbArc
 50
90.0
 51
180.0
  0
LINE
  5
17B
100
AcDbEntity
100
AcDbLine
  8
tslotrounded2
 62
256
370
-1
  6
ByLayer
 10
5.0020913964628306
 20
23.6979086035371758
 30
0.0
 11
3.0006966463305527
 21
23.6993028681841729
 31
0.0
  0
LINE
  5
17C
100
AcDbEntity
100
AcDbLine
  8
tslotrounded2
 62
256
370
-1
  6
ByLayer
 10
2.0
 20
22.6993031108422585
 30
0.0
 11
2.0
 21
19.0
 31
0.0
  0
ARC
  5
17D
100
AcDbEntity
  8
tslotrounded2
 62
256
370
-1
  6
ByLayer
100
AcDbCircle
 10
3.0
 20
22.6993031108422585
 30
0.0
 40
1.0
100
AcDbArc
 50
89.960085102217505
 51
180.0
  0
LINE
  5
17E
100
AcDbEntity
100
AcDbLine
  8
tslotrounded2
 62
256
370
-1
  6
ByLayer
 10
22.7000000000000028
 20
28.0
 30
0.0
 11
19.0
 21
28.0
 31
0.0
  0
LINE
  5
17F
100
AcDbEntity
100
AcDbLine
  8
tslotrounded2
 62
256
370
-1
  6
ByLayer
 10
23.7000000000000028
 20
25.0
 30
0.0
 11
23.7000000000000028
 21
27.0
 31
0.0
  0
ARC
  5
180
100
AcDbEntity
  8
tslotrounded2
 62
256
370
-1
  6
ByLayer
100
AcDbCircle
 10
22.7000000000000028
 20
27.0
 30
0.0
 40
1.0
100
AcDbArc
 50
0.0
 51
90.0
  0
LINE
  5
181
100
AcDbEntity
100
AcDbLine
  8
tslotrounded2
 62
256
370
-1
  6
ByLayer
 10
27.0
 20
23.7000000000000028
 30
0.0
 11
25.0
 21
23.7000000000000028
 31
0.0
  0
LINE
  5
182
100
AcDbEntity
100
AcDbLine
  8
tslotrounded2
 62
256
370
-1
  6
ByLayer
 10
28.0
 20
19.0
 30
0.0
 11
28.0
 21
22.7000000000000028
 31
0.0
  0
ARC
  5
183
100
AcDbEntity
  8
tslotrounded2
 62
256
370
-1
  6
ByLayer
100
AcDbCircle
 10
27.0
 20
22.7000000000000028
 30
0.0
 40
1.0
100
AcDbArc
 50
0.0
 51
90.0
  0
LINE
  5
184
100
AcDbEntity
100
AcDbLine
  8
tslotrounded2
 62
256
370
-1
  6
ByLayer
 10
28.0
 20
7.3000000000000007
 30
0.0
 11
28.0
 21
11.0000000000000018
 31
0.0
  0
LINE
  5
185
100
AcDbEntity
100
AcDbLine
  8
tslotrounded2
 62
256
370
-1
  6
ByLayer
 10
25.0
 20
6.3000000000000007
 30
0.0
 11
27.0
 21
6.3000000000000007
 31
0.0
  0
ARC
  5
186
100
AcDbEntity
  8
tslotrounded2
 62
256
370
-1
  6
ByLayer
100
AcDbCircle
 10
27.0
 20
7.3000000000000007
 30
0.0
 40
1.0
100
AcDbArc
 50
270.0
 51
0.0
  0
LINE
  5
187
100
AcDbEntity
100
AcDbLine
  8
tslotrounded2
 62
256
370
-1
  6
ByLayer
 10
23.7000000000000028
 20
3.0
 30
0.0
 11
23.7000000000000028
 21
5.0000000000000009
 31
0.0
  0
LINE
  5
188
100
AcDbEntity
100
AcDbLine
  8
tslotrounded2
 62
256
370
-1
  6
ByLayer
 10
19.0
 20
2.0
 30
0.0
 11
22.7000000000000028
 21
2.0
 31
0.0
  0
ARC
  5
189
100
AcDbEntity
  8
tslotrounded2
 62
256
370
-1
  6
ByLayer
100
AcDbCircle
 10
22.7000000000000028
 20
3.0
 30
0.0
 40
1.0
100
AcDbArc
 50
270.0
 51
0.0
  0
LINE
  5
18A
100
AcDbEntity
100
AcDbLine
  8
tslotrounded2
 62
256
370
-1
  6
ByLayer
 10
7.2999999999999972
 20
2.0
 30
0.0
 11
11.0
 21
2.0
 31
0.0
  0
LINE
  5
18B
100
AcDbEntity
100
AcDbLine
  8
tslotrounded2
 62
256
370
-1
  6
ByLayer
 10
6.2999999999999972
 20
5.0
 30
0.0
 11
6.2999999999999972
 21
3.0
 31
0.0
  0
ARC
  5
18C
100
AcDbEntity
  8
tslotrounded2
 62
256
370
-1
  6
ByLayer
100
AcDbCircle
 10
7.2999999999999972
 20
3.0
 30
0.0
 40
1.0
100
AcDbArc
 50
180.0
 51
270.0
  0
LINE
  5
18D
100
AcDbEntity
100
AcDbLine
  8
tslotrounded2
 62
256
370
-1
  6
ByLayer
 10
3.0
 20
6.3000000000000007
 30
0.0
 11
5.0
 21
6.3000000000000007
 31
0.0
  0
LINE
  5
18E
100
AcDbEntity
100
AcDbLine
  8
tslotrounded2
 62
256
370
-1
  6
ByLayer
 10
2.0
 20
11.0
 30
0.0
 11
2.0
 21
7.3000000000000007
 31
0.0
  0
ARC
  5
18F
100
AcDbEntity
  8
tslotrounded2
 62
256
370
-1
  6
ByLayer
100
AcDbCircle
 10
3.0
 20
7.3000000000000007
 30
0.0
 40
1.0
100
AcDbArc
 50
180.0
 51
270.0
  0
LINE
  5
190
100
AcDbEntity
100
AcDbLine
  8
tslotrounded2
 62
256
370
-1
  6
ByLayer
 10
2.0
 20
30.0
 30
0.0
 11
9.5
 21
30.0
 31
0.0
  0
ARC
  5
191
100
AcDbEntity
  8
tslotrounded2
 62
256
370
-1
  6
ByLayer
100
AcDbCircle
 10
9.5
 20
29.5
 30
0.0
 40
0.5
100
AcDbArc
 50
0.0
 51
90.0
  0
LINE
  5
192
100
AcDbEntity
100
AcDbLine
  8
tslotrounded2
 62
256
370
-1
  6
ByLayer
 10
10.0
 20
29.5
 30
0.0
 11
10.0
 21
29.3000000000000007
 31
0.0
  0
LINE
  5
193
100
AcDbEntity
100
AcDbLine
  8
tslotrounded2
 62
256
370
-1
  6
ByLayer
 10
10.5
 20
28.8000000000000007
 30
0.0
 11
11.0
 21
28.8000000000000007
 31
0.0
  0
ARC
  5
194
100
AcDbEntity
  8
tslotrounded2
 62
256
370
-1
  6
ByLayer
100
AcDbCircle
 10
10.5
 20
29.3000000000000007
 30
0.0
 40
0.5
100
AcDbArc
 50
180.0
 51
270.0
  0
LINE
  5
195
100
AcDbEntity
100
AcDbLine
  8
tslotrounded2
 62
256
370
-1
  6
ByLayer
 10
20.0
 20
28.8000000000000007
 30
0.0
 11
20.0
 21
29.5
 31
0.0
  0
LINE
  5
196
100
AcDbEntity
100
AcDbLine
  8
tslotrounded2
 62
256
370
-1
  6
ByLayer
 10
20.5
 20
30.0
 30
0.0
 11
28.0
 21
30.0
 31
0.0
  0
ARC
  5
197
100
AcDbEntity
  8
tslotrounded2
 62
256
370
-1
  6
ByLayer
100
AcDbCircle
 10
20.5
 20
29.5
 30
0.0
 40
0.5
100
AcDbArc
 50
90.0
 51
180.0
  0
LINE
  5
198
100
AcDbEntity
100
AcDbLine
  8
tslotrounded2
 62
256
370
-1
  6
ByLayer
 10
30.0
 20
28.0
 30
0.0
 11
30.0
 21
20.5
 31
0.0
  0
LINE
  5
199
100
AcDbEntity
100
AcDbLine
  8
tslotrounded2
 62
256
370
-1
  6
ByLayer
 10
29.5
 20
20.0
 30
0.0
 11
28.7999999999999972
 21
20.0
 31
0.0
  0
ARC
  5
19A
100
AcDbEntity
  8
tslotrounded2
 62
256
370
-1
  6
ByLayer
100
AcDbCircle
 10
29.5
 20
20.5
 30
0.0
 40
0.5
100
AcDbArc
 50
270.0
 51
0.0
  0
LINE
  5
19B
100
AcDbEntity
100
AcDbLine
  8
tslotrounded2
 62
256
370
-1
  6
ByLayer
 10
28.7999999999999972
 20
10.0000000000000018
 30
0.0
 11
29.5
 21
10.0
 31
0.0
  0
LINE
  5
19C
100
AcDbEntity
100
AcDbLine
  8
tslotrounded2
 62
256
370
-1
  6
ByLayer
 10
30.0
 20
9.5
 30
0.0
 11
30.0
 21
2.0
 31
0.0
  0
ARC
  5
19D
100
AcDbEntity
  8
tslotrounded2
 62
256
370
-1
  6
ByLayer
100
AcDbCircle
 10
29.5
 20
9.5
 30
0.0
 40
0.5
100
AcDbArc
 50
0.0
 51
90.0
  0
LINE
  5
19E
100
AcDbEntity
100
AcDbLine
  8
tslotrounded2
 62
256
370
-1
  6
ByLayer
 10
28.0
 20
0.0
 30
0.0
 11
20.5
 21
0.0
 31
0.0
  0
LINE
  5
19F
100
AcDbEntity
100
AcDbLine
  8
tslotrounded2
 62
256
370
-1
  6
ByLayer
 10
20.0
 20
0.5
 30
0.0
 11
20.0
 21
1.2
 31
0.0
  0
ARC
  5
1A0
100
AcDbEntity
  8
tslotrounded2
 62
256
370
-1
  6
ByLayer
100
AcDbCircle
 10
20.5
 20
0.5
 30
0.0
 40
0.5
100
AcDbArc
 50
180.0
 51
270.0
  0
LINE
  5
1A1
100
AcDbEntity
100
AcDbLine
  8
tslotrounded2
 62
256
370
-1
  6
ByLayer
 10
10.0
 20
1.2000000000000002
 30
0.0
 11
10.0
 21
0.5
 31
0.0
  0
LINE
  5
1A2
100
AcDbEntity
100
AcDbLine
  8
tslotrounded2
 62
256
370
-1
  6
ByLayer
 10
9.5
 20
0.0
 30
0.0
 11
2.0000000000000009
 21
0.0
 31
0.0
  0
ARC
  5
1A3
100
AcDbEntity
  8
tslotrounded2
 62
256
370
-1
  6
ByLayer
100
AcDbCircle
 10
9.5
 20
0.5
 30
0.0
 40
0.5
100
AcDbArc
 50
270.0
 51
0.0
  0
LINE
  5
1A4
100
AcDbEntity
100
AcDbLine
  8
tslotrounded2
 62
256
370
-1
  6
ByLayer
 10
0.0
 20
2.0
 30
0.0
 11
0.0
 21
9.5
 31
0.0
  0
LINE
  5
1A5
100
AcDbEntity
100
AcDbLine
  8
tslotrounded2
 62
256
370
-1
  6
ByLayer
 10
0.5
 20
10.0
 30
0.0
 11
1.2000000000000028
 21
10.0
 31
0.0
  0
ARC
  5
1A6
100
AcDbEntity
  8
tslotrounded2
 62
256
370
-1
  6
ByLayer
100
AcDbCircle
 10
0.5
 20
9.5
 30
0.0
 40
0.5
100
AcDbArc
 50
90.0
 51
180.0
  0
LINE
  5
1A7
100
AcDbEntity
100
AcDbLine
  8
tslotrounded2
 62
256
370
-1
  6
ByLayer
 10
1.2000000000000028
 20
20.0
 30
0.0
 11
0.5
 21
20.0
 31
0.0
  0
LINE
  5
1A8
100
AcDbEntity
100
AcDbLine
  8
tslotrounded2
 62
256
370
-1
  6
ByLayer
 10
0.0
 20
20.5
 30
0.0
 11
0.0
 21
28.0
 31
0.0
  0
ARC
  5
1A9
100
AcDbEntity
  8
tslotrounded2
 62
256
370
-1
  6
ByLayer
100
AcDbCircle
 10
0.5
 20
20.5
 30
0.0
 40
0.5
100
AcDbArc
 50
180.0
 51
270.0
  0
ARC
  5
1AA
100
AcDbEntity
  8
nutinplace
 62
256
370
-1
  6
ByLayer
100
AcDbCircle
 10
7.5
 20
3.0071067811865477
 30
0.0
 40
0.5
100
AcDbArc
 50
180.0
 51
270.0
  0
LINE
  5
1AB
100
AcDbEntity
100
AcDbLine
  8
nutinplace
 62
256
370
-1
  6
ByLayer
 10
7.0000000000000009
 20
3.0071067811865477
 30
0.0
 11
7.0
 21
4.5999999999999996
 31
0.0
  0
ARC
  5
1AC
100
AcDbEntity
  8
nutinplace
 62
256
370
-1
  6
ByLayer
100
AcDbCircle
 10
7.5
 20
4.5999999999999996
 30
0.0
 40
0.5
100
AcDbArc
 50
135.0
 51
180.0
  0
LINE
  5
1AD
100
AcDbEntity
100
AcDbLine
  8
nutinplace
 62
256
370
-1
  6
ByLayer
 10
7.146446609406726
 20
4.9535533905932736
 30
0.0
 11
10.3535533905932731
 21
8.1606601717798206
 31
0.0
  0
ARC
  5
1AE
100
AcDbEntity
  8
nutinplace
 62
256
370
-1
  6
ByLayer
100
AcDbCircle
 10
10.7071067811865461
 20
7.8071067811865476
 30
0.0
 40
0.5
100
AcDbArc
 50
90.0
 51
135.0
  0
LINE
  5
1AF
100
AcDbEntity
100
AcDbLine
  8
nutinplace
 62
256
370
-1
  6
ByLayer
 10
10.7071067811865461
 20
8.3071067811865476
 30
0.0
 11
19.2928932188134539
 21
8.3071067811865476
 31
0.0
  0
ARC
  5
1B0
100
AcDbEntity
  8
nutinplace
 62
256
370
-1
  6
ByLayer
100
AcDbCircle
 10
19.2928932188134539
 20
7.8071067811865476
 30
0.0
 40
0.5
100
AcDbArc
 50
45.0
 51
90.0
  0
LINE
  5
1B1
100
AcDbEntity
100
AcDbLine
  8
nutinplace
 62
256
370
-1
  6
ByLayer
 10
19.6464466094067269
 20
8.1606601717798206
 30
0.0
 11
22.8535533905932731
 21
4.9535533905932736
 31
0.0
  0
ARC
  5
1B2
100
AcDbEntity
  8
nutinplace
 62
256
370
-1
  6
ByLayer
100
AcDbCircle
 10
22.5
 20
4.6000000000000005
 30
0.0
 40
0.5
100
AcDbArc
 50
0.0
 51
45.0
  0
LINE
  5
1B3
100
AcDbEntity
100
AcDbLine
  8
nutinplace
 62
256
370
-1
  6
ByLayer
 10
23.0
 20
4.6000000000000005
 30
0.0
 11
23.0
 21
3.0071067811865477
 31
0.0
  0
LINE
  5
1B4
100
AcDbEntity
100
AcDbLine
  8
nutinplace
 62
256
370
-1
  6
ByLayer
 10
22.5
 20
2.5071067811865477
 30
0.0
 11
7.5
 21
2.5071067811865477
 31
0.0
  0
ARC
  5
1B5
100
AcDbEntity
  8
nutinplace
 62
256
370
-1
  6
ByLayer
100
AcDbCircle
 10
22.5
 20
3.0071067811865477
 30
0.0
 40
0.5
100
AcDbArc
 50
270.0
 51
0.0
  0
LINE
  5
1B6
100
AcDbEntity
100
AcDbLine
  8
nut4
 62
256
370
-1
  6
ByLayer
 10
-3.4000000000000026
 20
1.8000000000000007
 30
0.0
 11
-3.4000000000000008
 21
4.2999999999999989
 31
0.0
  0
LINE
  5
1B7
100
AcDbEntity
100
AcDbLine
  8
nut4
 62
256
370
-1
  6
ByLayer
 10
-3.4000000000000008
 20
4.2999999999999989
 30
0.0
 11
-8.0000000000000018
 21
4.2999999999999989
 31
0.0
  0
LINE
  5
1B8
100
AcDbEntity
100
AcDbLine
  8
nut4
 62
256
370
-1
  6
ByLayer
 10
-8.0000000000000018
 20
4.2999999999999989
 30
0.0
 11
-8.0000000000000018
 21
6.5999999999999996
 31
0.0
  0
LINE
  5
1B9
100
AcDbEntity
100
AcDbLine
  8
nut4
 62
256
370
-1
  6
ByLayer
 10
-8.0000000000000018
 20
6.5999999999999996
 30
0.0
 11
-4.5000000000000018
 21
10.0999999999999996
 31
0.0
  0
LINE
  5
1BA
100
AcDbEntity
100
AcDbLine
  8
nut4
 62
256
370
-1
  6
ByLayer
 10
-4.5000000000000018
 20
10.0999999999999996
 30
0.0
 11
4.4999999999999982
 21
10.0999999999999996
 31
0.0
  0
LINE
  5
1BB
100
AcDbEntity
100
AcDbLine
  8
nut4
 62
256
370
-1
  6
ByLayer
 10
4.4999999999999982
 20
10.0999999999999996
 30
0.0
 11
7.9999999999999982
 21
6.5999999999999996
 31
0.0
  0
LINE
  5
1BC
100
AcDbEntity
100
AcDbLine
  8
nut4
 62
256
370
-1
  6
ByLayer
 10
7.9999999999999982
 20
6.5999999999999996
 30
0.0
 11
7.9999999999999982
 21
4.2999999999999989
 31
0.0
  0
LINE
  5
1BD
100
AcDbEntity
100
AcDbLine
  8
nut4
 62
256
370
-1
  6
ByLayer
 10
7.9999999999999982
 20
4.2999999999999989
 30
0.0
 11
3.4000000000000008
 21
4.2999999999999989
 31
0.0
  0
LINE
  5
1BE
100
AcDbEntity
100
AcDbLine
  8
nut4
 62
256
370
-1
  6
ByLayer
 10
3.4000000000000008
 20
4.2999999999999989
 30
0.0
 11
3.4000000000000008
 21
1.8000000000000007
 31
0.0
  0
LINE
  5
1BF
100
AcDbEntity
100
AcDbLine
  8
nut4
 62
256
370
-1
  6
ByLayer
 10
3.4000000000000008
 20
1.8000000000000007
 30
0.0
 11
3.4000000000000008
 21
0.0
 31
0.0
  0
LINE
  5
1C0
100
AcDbEntity
100
AcDbLine
  8
nut4
 62
256
370
-1
  6
ByLayer
 10
3.4000000000000008
 20
0.0
 30
0.0
 11
-3.4000000000000008
 21
0.0
 31
0.0
  0
LINE
  5
1C1
100
AcDbEntity
100
AcDbLine
  8
nut4
 62
256
370
-1
  6
ByLayer
 10
-3.4000000000000008
 20
0.0
 30
0.0
 11
-3.4000000000000026
 21
1.8000000000000007
 31
0.0
  0
ENDSEC
  0
SECTION
  2
OBJECTS
  0
DICTIONARY
  5
C
100
AcDbDictionary
280
0
281
1
  3
ACAD_GROUP
350
D
  3
ACAD_LAYOUT
350
1A
  3
ACAD_MLINESTYLE
350
17
  3
ACAD_PLOTSETTINGS
350
19
  3
ACAD_PLOTSTYLENAME
350
E
  3
AcDbVariableDictionary
350
1C2
  0
DICTIONARY
  5
D
100
AcDbDictionary
280
0
281
1
  0
ACDBDICTIONARYWDFLT
  5
E
100
AcDbDictionary
281
1
  3
Normal
350
F
100
AcDbDictionaryWithDefault
340
F
  0
ACDBPLACEHOLDER
  5
F
  0
DICTIONARY
  5
17
100
AcDbDictionary
280
0
281
1
  3
Standard
350
18
  0
MLINESTYLE
  5
18
100
AcDbMlineStyle
  2
STANDARD
 70
0
  3

 62
256
 51
90.0
 52
90.0
 71
2
 49
0.5
 62
256
  6
BYLAYER
 49
-0.5
 62
256
  6
BYLAYER
  0
DICTIONARY
  5
19
100
AcDbDictionary
280
0
281
1
  0
DICTIONARY
  5
1A
100
AcDbDictionary
281
1
  3
Layout1
350
1E
  3
Layout2
350
26
  3
Model
350
22
  0
LAYOUT
  5
1E
100
AcDbPlotSettings
  1

  2
C:\Program Files\AutoCAD 2002\plotters\DWF ePlot (optimized for plotting).pc3
  4

  6

 40
0.0
 41
0.0
 42
0.0
 43
0.0
 44
0.0
 45
0.0
 46
0.0
 47
0.0
 48
0.0
 49
0.0
140
0.0
141
0.0
142
1.0
143
1.0
 70
688
 72
0
 73
0
 74
5
  7

 75
16
147
1.0
148
0.0
149
0.0
100
AcDbLayout
  1
Layout1
 70
1
 71
1
 10
0.0
 20
0.0
 11
420.0
 21
297.0
 12
0.0
 22
0.0
 32
0.0
 14
100000000000000000000.0
 24
100000000000000000000.0
 34
100000000000000000000.0
 15
-100000000000000000000.0
 25
-100000000000000000000.0
 35
-100000000000000000000.0
146
0.0
 13
0.0
 23
0.0
 33
0.0
 16
1.0
 26
0.0
 36
0.0
 17
0.0
 27
1.0
 37
0.0
 76
0
330
1B
  0
LAYOUT
  5
22
100
AcDbPlotSettings
  1

  2
C:\Program Files\AutoCAD 2002\plotters\DWF ePlot (optimized for plotting).pc3
  4

  6

 40
0.0
 41
0.0
 42
0.0
 43
0.0
 44
0.0
 45
0.0
 46
0.0
 47
0.0
 48
0.0
 49
0.0
140
0.0
141
0.0
142
1.0
143
1.0
 70
1712
 72
0
 73
0
 74
0
  7

 75
0
147
1.0
148
0.0
149
0.0
100
AcDbLayout
  1
Model
 70
1
 71
0
 10
0.0
 20
0.0
 11
12.0
 21
9.0
 12
0.0
 22
0.0
 32
0.0
 14
0.0
 24
0.0
 34
0.0
 15
0.0
 25
0.0
 35
0.0
146
0.0
 13
0.0
 23
0.0
 33
0.0
 16
1.0
 26
0.0
 36
0.0
 17
0.0
 27
1.0
 37
0.0
 76
0
330
1F
  0
LAYOUT
  5
26
100
AcDbPlotSettings
  1

  2
C:\Program Files\AutoCAD 2002\plotters\DWF ePlot (optimized for plotting).pc3
  4

  6

 40
0.0
 41
0.0
 42
0.0
 43
0.0
 44
0.0
 45
0.0
 46
0.0
 47
0.0
 48
0.0
 49
0.0
140
0.0
141
0.0
142
1.0
143
1.0
 70
688
 72
0
 73
0
 74
5
  7

 75
16
147
1.0
148
0.0
149
0.0
100
AcDbLayout
  1
Layout2
 70
1
 71
2
 10
0.0
 20
0.0
 11
12.0
 21
9.0
 12
0.0
 22
0.0
 32
0.0
 14
0.0
 24
0.0
 34
0.0
 15
0.0
 25
0.0
 35
0.0
146
0.0
 13
0.0
 23
0.0
 33
0.0
 16
1.0
 26
0.0
 36
0.0
 17
0.0
 27
1.0
 37
0.0
 76
0
330
23
  0
DICTIONARY
  5
1C2
100
AcDbDictionary
281
1
  3
DIMASSOC
350
1C4
  3
HIDETEXT
350
1C3
  0
DICTIONARYVAR
  5
1C3
100
DictionaryVariables
280
0
  1
2
  0
DICTIONARYVAR
  5
1C4
100
DictionaryVariables
280
0
  1
1
  0
ENDSEC
  0
EOF
