solid OpenSCAD_Model
  facet normal 0 1 -0
    outer loop
      vertex 55 -10 -2
      vertex 54.9997 -10 2
      vertex 55 -10 2
    endloop
  endfacet
  facet normal 0 1 0
    outer loop
      vertex 54.9997 -10 2
      vertex 55 -10 -2
      vertex 54.9997 -10 -2
    endloop
  endfacet
  facet normal -0.790155 -0.612907 0
    outer loop
      vertex 23.8192 -23.3859 -2
      vertex 23.1243 -22.49 2
      vertex 23.1243 -22.49 -2
    endloop
  endfacet
  facet normal -0.790155 -0.612907 0
    outer loop
      vertex 23.1243 -22.49 2
      vertex 23.8192 -23.3859 -2
      vertex 23.8192 -23.3859 2
    endloop
  endfacet
  facet normal -0.750111 -0.661312 0
    outer loop
      vertex 24.6917 -24.3755 -2
      vertex 23.8192 -23.3859 2
      vertex 23.8192 -23.3859 -2
    endloop
  endfacet
  facet normal -0.750111 -0.661312 0
    outer loop
      vertex 23.8192 -23.3859 2
      vertex 24.6917 -24.3755 -2
      vertex 24.6917 -24.3755 2
    endloop
  endfacet
  facet normal -0.707106 -0.707108 0
    outer loop
      vertex 24.6917 -24.3755 -2
      vertex 25.6245 -25.3083 2
      vertex 24.6917 -24.3755 2
    endloop
  endfacet
  facet normal -0.707106 -0.707108 -0
    outer loop
      vertex 25.6245 -25.3083 2
      vertex 24.6917 -24.3755 -2
      vertex 25.6245 -25.3083 -2
    endloop
  endfacet
  facet normal -0.661312 -0.750111 0
    outer loop
      vertex 25.6245 -25.3083 -2
      vertex 26.6141 -26.1808 2
      vertex 25.6245 -25.3083 2
    endloop
  endfacet
  facet normal -0.661312 -0.750111 -0
    outer loop
      vertex 26.6141 -26.1808 2
      vertex 25.6245 -25.3083 -2
      vertex 26.6141 -26.1808 -2
    endloop
  endfacet
  facet normal -0.612907 -0.790155 0
    outer loop
      vertex 26.6141 -26.1808 -2
      vertex 27.6565 -26.9894 2
      vertex 26.6141 -26.1808 2
    endloop
  endfacet
  facet normal -0.612907 -0.790155 -0
    outer loop
      vertex 27.6565 -26.9894 2
      vertex 26.6141 -26.1808 -2
      vertex 27.6565 -26.9894 -2
    endloop
  endfacet
  facet normal -0.562083 -0.827081 0
    outer loop
      vertex 27.6565 -26.9894 -2
      vertex 28.7476 -27.7309 2
      vertex 27.6565 -26.9894 2
    endloop
  endfacet
  facet normal -0.562083 -0.827081 -0
    outer loop
      vertex 28.7476 -27.7309 2
      vertex 27.6565 -26.9894 -2
      vertex 28.7476 -27.7309 -2
    endloop
  endfacet
  facet normal -0.509042 -0.860742 0
    outer loop
      vertex 28.7476 -27.7309 -2
      vertex 29.8832 -28.4024 2
      vertex 28.7476 -27.7309 2
    endloop
  endfacet
  facet normal -0.509042 -0.860742 -0
    outer loop
      vertex 29.8832 -28.4024 2
      vertex 28.7476 -27.7309 -2
      vertex 29.8832 -28.4024 -2
    endloop
  endfacet
  facet normal -0.453991 -0.891006 0
    outer loop
      vertex 29.8832 -28.4024 -2
      vertex 31.0586 -29.0014 2
      vertex 29.8832 -28.4024 2
    endloop
  endfacet
  facet normal -0.453991 -0.891006 -0
    outer loop
      vertex 31.0586 -29.0014 2
      vertex 29.8832 -28.4024 -2
      vertex 31.0586 -29.0014 -2
    endloop
  endfacet
  facet normal -0.397147 -0.917755 0
    outer loop
      vertex 31.0586 -29.0014 -2
      vertex 32.2694 -29.5253 2
      vertex 31.0586 -29.0014 2
    endloop
  endfacet
  facet normal -0.397147 -0.917755 -0
    outer loop
      vertex 32.2694 -29.5253 2
      vertex 31.0586 -29.0014 -2
      vertex 32.2694 -29.5253 -2
    endloop
  endfacet
  facet normal -0.338738 -0.940881 0
    outer loop
      vertex 32.2694 -29.5253 -2
      vertex 33.5106 -29.9722 2
      vertex 32.2694 -29.5253 2
    endloop
  endfacet
  facet normal -0.338738 -0.940881 -0
    outer loop
      vertex 33.5106 -29.9722 2
      vertex 32.2694 -29.5253 -2
      vertex 33.5106 -29.9722 -2
    endloop
  endfacet
  facet normal -0.278992 -0.960293 0
    outer loop
      vertex 33.5106 -29.9722 -2
      vertex 34.7775 -30.3402 2
      vertex 33.5106 -29.9722 2
    endloop
  endfacet
  facet normal -0.278992 -0.960293 -0
    outer loop
      vertex 34.7775 -30.3402 2
      vertex 33.5106 -29.9722 -2
      vertex 34.7775 -30.3402 -2
    endloop
  endfacet
  facet normal -0.218142 -0.975917 0
    outer loop
      vertex 34.7775 -30.3402 -2
      vertex 36.065 -30.628 2
      vertex 34.7775 -30.3402 2
    endloop
  endfacet
  facet normal -0.218142 -0.975917 -0
    outer loop
      vertex 36.065 -30.628 2
      vertex 34.7775 -30.3402 -2
      vertex 36.065 -30.628 -2
    endloop
  endfacet
  facet normal -0.156435 -0.987688 0
    outer loop
      vertex 36.065 -30.628 -2
      vertex 37.368 -30.8344 2
      vertex 36.065 -30.628 2
    endloop
  endfacet
  facet normal -0.156435 -0.987688 -0
    outer loop
      vertex 37.368 -30.8344 2
      vertex 36.065 -30.628 -2
      vertex 37.368 -30.8344 -2
    endloop
  endfacet
  facet normal -0.0941088 -0.995562 0
    outer loop
      vertex 37.368 -30.8344 -2
      vertex 38.6814 -30.9586 2
      vertex 37.368 -30.8344 2
    endloop
  endfacet
  facet normal -0.0941088 -0.995562 -0
    outer loop
      vertex 38.6814 -30.9586 2
      vertex 37.368 -30.8344 -2
      vertex 38.6814 -30.9586 -2
    endloop
  endfacet
  facet normal -0.0314111 -0.999507 0
    outer loop
      vertex 38.6814 -30.9586 -2
      vertex 40 -31 2
      vertex 38.6814 -30.9586 2
    endloop
  endfacet
  facet normal -0.0314111 -0.999507 -0
    outer loop
      vertex 40 -31 2
      vertex 38.6814 -30.9586 -2
      vertex 40 -31 -2
    endloop
  endfacet
  facet normal 0.0314111 -0.999507 0
    outer loop
      vertex 40 -31 -2
      vertex 41.3186 -30.9586 2
      vertex 40 -31 2
    endloop
  endfacet
  facet normal 0.0314111 -0.999507 0
    outer loop
      vertex 41.3186 -30.9586 2
      vertex 40 -31 -2
      vertex 41.3186 -30.9586 -2
    endloop
  endfacet
  facet normal 0.0941088 -0.995562 0
    outer loop
      vertex 41.3186 -30.9586 -2
      vertex 42.632 -30.8344 2
      vertex 41.3186 -30.9586 2
    endloop
  endfacet
  facet normal 0.0941088 -0.995562 0
    outer loop
      vertex 42.632 -30.8344 2
      vertex 41.3186 -30.9586 -2
      vertex 42.632 -30.8344 -2
    endloop
  endfacet
  facet normal 0.156434 -0.987688 0
    outer loop
      vertex 42.632 -30.8344 -2
      vertex 43.935 -30.628 2
      vertex 42.632 -30.8344 2
    endloop
  endfacet
  facet normal 0.156434 -0.987688 0
    outer loop
      vertex 43.935 -30.628 2
      vertex 42.632 -30.8344 -2
      vertex 43.935 -30.628 -2
    endloop
  endfacet
  facet normal 0.218143 -0.975917 0
    outer loop
      vertex 43.935 -30.628 -2
      vertex 45.2225 -30.3402 2
      vertex 43.935 -30.628 2
    endloop
  endfacet
  facet normal 0.218143 -0.975917 0
    outer loop
      vertex 45.2225 -30.3402 2
      vertex 43.935 -30.628 -2
      vertex 45.2225 -30.3402 -2
    endloop
  endfacet
  facet normal 0.278991 -0.960294 0
    outer loop
      vertex 45.2225 -30.3402 -2
      vertex 46.4894 -29.9722 2
      vertex 45.2225 -30.3402 2
    endloop
  endfacet
  facet normal 0.278991 -0.960294 0
    outer loop
      vertex 46.4894 -29.9722 2
      vertex 45.2225 -30.3402 -2
      vertex 46.4894 -29.9722 -2
    endloop
  endfacet
  facet normal 0.338738 -0.940881 0
    outer loop
      vertex 46.4894 -29.9722 -2
      vertex 47.7306 -29.5253 2
      vertex 46.4894 -29.9722 2
    endloop
  endfacet
  facet normal 0.338738 -0.940881 0
    outer loop
      vertex 47.7306 -29.5253 2
      vertex 46.4894 -29.9722 -2
      vertex 47.7306 -29.5253 -2
    endloop
  endfacet
  facet normal 0.397148 -0.917754 0
    outer loop
      vertex 47.7306 -29.5253 -2
      vertex 48.9414 -29.0014 2
      vertex 47.7306 -29.5253 2
    endloop
  endfacet
  facet normal 0.397148 -0.917754 0
    outer loop
      vertex 48.9414 -29.0014 2
      vertex 47.7306 -29.5253 -2
      vertex 48.9414 -29.0014 -2
    endloop
  endfacet
  facet normal 0.453991 -0.891006 0
    outer loop
      vertex 48.9414 -29.0014 -2
      vertex 50.1168 -28.4024 2
      vertex 48.9414 -29.0014 2
    endloop
  endfacet
  facet normal 0.453991 -0.891006 0
    outer loop
      vertex 50.1168 -28.4024 2
      vertex 48.9414 -29.0014 -2
      vertex 50.1168 -28.4024 -2
    endloop
  endfacet
  facet normal 0.509042 -0.860742 0
    outer loop
      vertex 50.1168 -28.4024 -2
      vertex 51.2524 -27.7309 2
      vertex 50.1168 -28.4024 2
    endloop
  endfacet
  facet normal 0.509042 -0.860742 0
    outer loop
      vertex 51.2524 -27.7309 2
      vertex 50.1168 -28.4024 -2
      vertex 51.2524 -27.7309 -2
    endloop
  endfacet
  facet normal 0.562082 -0.827082 0
    outer loop
      vertex 51.2524 -27.7309 -2
      vertex 52.3435 -26.9894 2
      vertex 51.2524 -27.7309 2
    endloop
  endfacet
  facet normal 0.562082 -0.827082 0
    outer loop
      vertex 52.3435 -26.9894 2
      vertex 51.2524 -27.7309 -2
      vertex 52.3435 -26.9894 -2
    endloop
  endfacet
  facet normal 0.612908 -0.790155 0
    outer loop
      vertex 52.3435 -26.9894 -2
      vertex 53.3859 -26.1808 2
      vertex 52.3435 -26.9894 2
    endloop
  endfacet
  facet normal 0.612908 -0.790155 0
    outer loop
      vertex 53.3859 -26.1808 2
      vertex 52.3435 -26.9894 -2
      vertex 53.3859 -26.1808 -2
    endloop
  endfacet
  facet normal 0.661312 -0.750111 0
    outer loop
      vertex 53.3859 -26.1808 -2
      vertex 54.3755 -25.3083 2
      vertex 53.3859 -26.1808 2
    endloop
  endfacet
  facet normal 0.661312 -0.750111 0
    outer loop
      vertex 54.3755 -25.3083 2
      vertex 53.3859 -26.1808 -2
      vertex 54.3755 -25.3083 -2
    endloop
  endfacet
  facet normal 0.707107 -0.707107 0
    outer loop
      vertex 54.3755 -25.3083 2
      vertex 55.3083 -24.3755 -2
      vertex 55.3083 -24.3755 2
    endloop
  endfacet
  facet normal 0.707107 -0.707107 0
    outer loop
      vertex 55.3083 -24.3755 -2
      vertex 54.3755 -25.3083 2
      vertex 54.3755 -25.3083 -2
    endloop
  endfacet
  facet normal 0.750111 -0.661312 0
    outer loop
      vertex 55.3083 -24.3755 2
      vertex 56.1808 -23.3859 -2
      vertex 56.1808 -23.3859 2
    endloop
  endfacet
  facet normal 0.750111 -0.661312 0
    outer loop
      vertex 56.1808 -23.3859 -2
      vertex 55.3083 -24.3755 2
      vertex 55.3083 -24.3755 -2
    endloop
  endfacet
  facet normal 0.790155 -0.612908 0
    outer loop
      vertex 56.1808 -23.3859 2
      vertex 56.9894 -22.3435 -2
      vertex 56.9894 -22.3435 2
    endloop
  endfacet
  facet normal 0.790155 -0.612908 0
    outer loop
      vertex 56.9894 -22.3435 -2
      vertex 56.1808 -23.3859 2
      vertex 56.1808 -23.3859 -2
    endloop
  endfacet
  facet normal 0.827082 -0.562082 0
    outer loop
      vertex 56.9894 -22.3435 2
      vertex 57.7309 -21.2524 -2
      vertex 57.7309 -21.2524 2
    endloop
  endfacet
  facet normal 0.827082 -0.562082 0
    outer loop
      vertex 57.7309 -21.2524 -2
      vertex 56.9894 -22.3435 2
      vertex 56.9894 -22.3435 -2
    endloop
  endfacet
  facet normal 0.860742 -0.509042 0
    outer loop
      vertex 57.7309 -21.2524 2
      vertex 58.4024 -20.1168 -2
      vertex 58.4024 -20.1168 2
    endloop
  endfacet
  facet normal 0.860742 -0.509042 0
    outer loop
      vertex 58.4024 -20.1168 -2
      vertex 57.7309 -21.2524 2
      vertex 57.7309 -21.2524 -2
    endloop
  endfacet
  facet normal 0.891007 -0.45399 0
    outer loop
      vertex 58.4024 -20.1168 2
      vertex 59.0014 -18.9414 -2
      vertex 59.0014 -18.9414 2
    endloop
  endfacet
  facet normal 0.891007 -0.45399 0
    outer loop
      vertex 59.0014 -18.9414 -2
      vertex 58.4024 -20.1168 2
      vertex 58.4024 -20.1168 -2
    endloop
  endfacet
  facet normal 0.917754 -0.397149 0
    outer loop
      vertex 59.0014 -18.9414 2
      vertex 59.5253 -17.7306 -2
      vertex 59.5253 -17.7306 2
    endloop
  endfacet
  facet normal 0.917754 -0.397149 0
    outer loop
      vertex 59.5253 -17.7306 -2
      vertex 59.0014 -18.9414 2
      vertex 59.0014 -18.9414 -2
    endloop
  endfacet
  facet normal 0.940881 -0.338738 0
    outer loop
      vertex 59.5253 -17.7306 2
      vertex 59.9722 -16.4894 -2
      vertex 59.9722 -16.4894 2
    endloop
  endfacet
  facet normal 0.940881 -0.338738 0
    outer loop
      vertex 59.9722 -16.4894 -2
      vertex 59.5253 -17.7306 2
      vertex 59.5253 -17.7306 -2
    endloop
  endfacet
  facet normal 0.960294 -0.278989 0
    outer loop
      vertex 59.9722 -16.4894 2
      vertex 60.3402 -15.2225 -2
      vertex 60.3402 -15.2225 2
    endloop
  endfacet
  facet normal 0.960294 -0.278989 0
    outer loop
      vertex 60.3402 -15.2225 -2
      vertex 59.9722 -16.4894 2
      vertex 59.9722 -16.4894 -2
    endloop
  endfacet
  facet normal 0.975916 -0.218145 0
    outer loop
      vertex 60.3402 -15.2225 2
      vertex 60.628 -13.935 -2
      vertex 60.628 -13.935 2
    endloop
  endfacet
  facet normal 0.975916 -0.218145 0
    outer loop
      vertex 60.628 -13.935 -2
      vertex 60.3402 -15.2225 2
      vertex 60.3402 -15.2225 -2
    endloop
  endfacet
  facet normal 0.987689 -0.156433 0
    outer loop
      vertex 60.628 -13.935 2
      vertex 60.8344 -12.632 -2
      vertex 60.8344 -12.632 2
    endloop
  endfacet
  facet normal 0.987689 -0.156433 0
    outer loop
      vertex 60.8344 -12.632 -2
      vertex 60.628 -13.935 2
      vertex 60.628 -13.935 -2
    endloop
  endfacet
  facet normal 0.995562 -0.0941088 0
    outer loop
      vertex 60.8344 -12.632 2
      vertex 60.9586 -11.3186 -2
      vertex 60.9586 -11.3186 2
    endloop
  endfacet
  facet normal 0.995562 -0.0941088 0
    outer loop
      vertex 60.9586 -11.3186 -2
      vertex 60.8344 -12.632 2
      vertex 60.8344 -12.632 -2
    endloop
  endfacet
  facet normal -0 0 1
    outer loop
      vertex 19.5 22.51 2
      vertex 25.5 -13.8193 2
      vertex 25.5 26.51 2
    endloop
  endfacet
  facet normal 0 -0 1
    outer loop
      vertex 23.8192 -23.3859 2
      vertex 25.5 -13.8193 2
      vertex 23.1243 -22.49 2
    endloop
  endfacet
  facet normal 0 0 1
    outer loop
      vertex 25.5 -13.8193 2
      vertex 23.8192 -23.3859 2
      vertex 24.6917 -24.3755 2
    endloop
  endfacet
  facet normal 0 0 1
    outer loop
      vertex 25.5 -13.8193 2
      vertex 19.5 22.51 2
      vertex 19.5 -18.49 2
    endloop
  endfacet
  facet normal 0 0 1
    outer loop
      vertex 25.5 26.51 2
      vertex 11.5 22.51 2
      vertex 19.5 22.51 2
    endloop
  endfacet
  facet normal 0 0 1
    outer loop
      vertex 11.5 22.51 2
      vertex 5.5 22.5 2
      vertex 11.5 -18.49 2
    endloop
  endfacet
  facet normal 0 0 1
    outer loop
      vertex 25.5 26.51 2
      vertex 5.5 22.5 2
      vertex 11.5 22.51 2
    endloop
  endfacet
  facet normal -0 0 1
    outer loop
      vertex -9.5 26.51 2
      vertex 5.5 22.5 2
      vertex 25.5 26.51 2
    endloop
  endfacet
  facet normal 0 0 1
    outer loop
      vertex 5.5 22.5 2
      vertex -9.5 26.51 2
      vertex -5.5 22.5 2
    endloop
  endfacet
  facet normal 0 0 1
    outer loop
      vertex -9.5 -22.49 2
      vertex -5.5 22.5 2
      vertex -9.5 26.51 2
    endloop
  endfacet
  facet normal 0 0 1
    outer loop
      vertex -5.5 22.5 2
      vertex -9.5 -22.49 2
      vertex -5.5 -22.49 2
    endloop
  endfacet
  facet normal 0 0 1
    outer loop
      vertex 61 4.5 2
      vertex 60.9843 -10.5 2
      vertex 61 -10.5 2
    endloop
  endfacet
  facet normal -0 0 1
    outer loop
      vertex 55 -10 2
      vertex 60.9843 -10.5 2
      vertex 61 4.5 2
    endloop
  endfacet
  facet normal 0 0 1
    outer loop
      vertex 54.9704 -10.9319 2
      vertex 60.9843 -10.5 2
      vertex 55 -10 2
    endloop
  endfacet
  facet normal 0 0 1
    outer loop
      vertex 60.9843 -10.5 2
      vertex 54.9704 -10.9319 2
      vertex 60.9586 -11.3186 2
    endloop
  endfacet
  facet normal 0 0 1
    outer loop
      vertex 60.9586 -11.3186 2
      vertex 54.9704 -10.9319 2
      vertex 60.8344 -12.632 2
    endloop
  endfacet
  facet normal -0 0 1
    outer loop
      vertex 54.8817 -11.87 2
      vertex 60.8344 -12.632 2
      vertex 54.9704 -10.9319 2
    endloop
  endfacet
  facet normal 0 0 1
    outer loop
      vertex 60.8344 -12.632 2
      vertex 54.8817 -11.87 2
      vertex 60.628 -13.935 2
    endloop
  endfacet
  facet normal -0 0 1
    outer loop
      vertex 54.7343 -12.8007 2
      vertex 60.628 -13.935 2
      vertex 54.8817 -11.87 2
    endloop
  endfacet
  facet normal 0 0 1
    outer loop
      vertex 60.628 -13.935 2
      vertex 54.7343 -12.8007 2
      vertex 60.3402 -15.2225 2
    endloop
  endfacet
  facet normal -0 0 1
    outer loop
      vertex 54.5287 -13.7203 2
      vertex 60.3402 -15.2225 2
      vertex 54.7343 -12.8007 2
    endloop
  endfacet
  facet normal 0 0 1
    outer loop
      vertex 60.3402 -15.2225 2
      vertex 54.5287 -13.7203 2
      vertex 59.9722 -16.4894 2
    endloop
  endfacet
  facet normal 0 0 1
    outer loop
      vertex 59.9722 -16.4894 2
      vertex 54.2658 -14.6253 2
      vertex 59.5253 -17.7306 2
    endloop
  endfacet
  facet normal 0 0 1
    outer loop
      vertex 59.5253 -17.7306 2
      vertex 53.9466 -15.5119 2
      vertex 59.0014 -18.9414 2
    endloop
  endfacet
  facet normal 0 0 1
    outer loop
      vertex 55 -10 2
      vertex 61 4.5 2
      vertex 55 4.5 2
    endloop
  endfacet
  facet normal -0 0 1
    outer loop
      vertex 54.2658 -14.6253 2
      vertex 59.9722 -16.4894 2
      vertex 54.5287 -13.7203 2
    endloop
  endfacet
  facet normal 0 0 1
    outer loop
      vertex 54.9704 -10.9319 2
      vertex 55 -10 2
      vertex 54.9997 -10 2
    endloop
  endfacet
  facet normal -0 0 1
    outer loop
      vertex 53.9466 -15.5119 2
      vertex 59.5253 -17.7306 2
      vertex 54.2658 -14.6253 2
    endloop
  endfacet
  facet normal -0 0 1
    outer loop
      vertex 53.5724 -16.3767 2
      vertex 59.0014 -18.9414 2
      vertex 53.9466 -15.5119 2
    endloop
  endfacet
  facet normal 0 0 1
    outer loop
      vertex 59.0014 -18.9414 2
      vertex 53.5724 -16.3767 2
      vertex 58.4024 -20.1168 2
    endloop
  endfacet
  facet normal -0 0 1
    outer loop
      vertex 53.1446 -17.2163 2
      vertex 58.4024 -20.1168 2
      vertex 53.5724 -16.3767 2
    endloop
  endfacet
  facet normal 0 0 1
    outer loop
      vertex 58.4024 -20.1168 2
      vertex 53.1446 -17.2163 2
      vertex 57.7309 -21.2524 2
    endloop
  endfacet
  facet normal -0 0 1
    outer loop
      vertex 52.6649 -18.0274 2
      vertex 57.7309 -21.2524 2
      vertex 53.1446 -17.2163 2
    endloop
  endfacet
  facet normal 0 0 1
    outer loop
      vertex 57.7309 -21.2524 2
      vertex 52.6649 -18.0274 2
      vertex 56.9894 -22.3435 2
    endloop
  endfacet
  facet normal -0 0 1
    outer loop
      vertex 52.1353 -18.8068 2
      vertex 56.9894 -22.3435 2
      vertex 52.6649 -18.0274 2
    endloop
  endfacet
  facet normal 0 0 1
    outer loop
      vertex 56.9894 -22.3435 2
      vertex 52.1353 -18.8068 2
      vertex 56.1808 -23.3859 2
    endloop
  endfacet
  facet normal -0 0 1
    outer loop
      vertex 51.5577 -19.5514 2
      vertex 56.1808 -23.3859 2
      vertex 52.1353 -18.8068 2
    endloop
  endfacet
  facet normal 0 0 1
    outer loop
      vertex 56.1808 -23.3859 2
      vertex 51.5577 -19.5514 2
      vertex 55.3083 -24.3755 2
    endloop
  endfacet
  facet normal -0 0 1
    outer loop
      vertex 50.9345 -20.2582 2
      vertex 55.3083 -24.3755 2
      vertex 51.5577 -19.5514 2
    endloop
  endfacet
  facet normal 0 0 1
    outer loop
      vertex 55.3083 -24.3755 2
      vertex 50.9345 -20.2582 2
      vertex 54.3755 -25.3083 2
    endloop
  endfacet
  facet normal -0 0 1
    outer loop
      vertex 50.2682 -20.9245 2
      vertex 54.3755 -25.3083 2
      vertex 50.9345 -20.2582 2
    endloop
  endfacet
  facet normal 0 0 1
    outer loop
      vertex 54.3755 -25.3083 2
      vertex 50.2682 -20.9245 2
      vertex 53.3859 -26.1808 2
    endloop
  endfacet
  facet normal -0 0 1
    outer loop
      vertex 49.5614 -21.5477 2
      vertex 53.3859 -26.1808 2
      vertex 50.2682 -20.9245 2
    endloop
  endfacet
  facet normal 0 0 1
    outer loop
      vertex 53.3859 -26.1808 2
      vertex 49.5614 -21.5477 2
      vertex 52.3435 -26.9894 2
    endloop
  endfacet
  facet normal -0 0 1
    outer loop
      vertex 48.8168 -22.1253 2
      vertex 52.3435 -26.9894 2
      vertex 49.5614 -21.5477 2
    endloop
  endfacet
  facet normal 0 0 1
    outer loop
      vertex 52.3435 -26.9894 2
      vertex 48.8168 -22.1253 2
      vertex 51.2524 -27.7309 2
    endloop
  endfacet
  facet normal -0 0 1
    outer loop
      vertex 48.0374 -22.6549 2
      vertex 51.2524 -27.7309 2
      vertex 48.8168 -22.1253 2
    endloop
  endfacet
  facet normal 0 0 1
    outer loop
      vertex 51.2524 -27.7309 2
      vertex 48.0374 -22.6549 2
      vertex 50.1168 -28.4024 2
    endloop
  endfacet
  facet normal -0 0 1
    outer loop
      vertex 47.2263 -23.1346 2
      vertex 50.1168 -28.4024 2
      vertex 48.0374 -22.6549 2
    endloop
  endfacet
  facet normal 0 0 1
    outer loop
      vertex 50.1168 -28.4024 2
      vertex 47.2263 -23.1346 2
      vertex 48.9414 -29.0014 2
    endloop
  endfacet
  facet normal -0 0 1
    outer loop
      vertex 46.3867 -23.5624 2
      vertex 48.9414 -29.0014 2
      vertex 47.2263 -23.1346 2
    endloop
  endfacet
  facet normal 0 0 1
    outer loop
      vertex 48.9414 -29.0014 2
      vertex 46.3867 -23.5624 2
      vertex 47.7306 -29.5253 2
    endloop
  endfacet
  facet normal -0 0 1
    outer loop
      vertex 45.5219 -23.9366 2
      vertex 47.7306 -29.5253 2
      vertex 46.3867 -23.5624 2
    endloop
  endfacet
  facet normal 0 0 1
    outer loop
      vertex 47.7306 -29.5253 2
      vertex 45.5219 -23.9366 2
      vertex 46.4894 -29.9722 2
    endloop
  endfacet
  facet normal -0 0 1
    outer loop
      vertex 44.6353 -24.2558 2
      vertex 46.4894 -29.9722 2
      vertex 45.5219 -23.9366 2
    endloop
  endfacet
  facet normal 0 0 1
    outer loop
      vertex 46.4894 -29.9722 2
      vertex 44.6353 -24.2558 2
      vertex 45.2225 -30.3402 2
    endloop
  endfacet
  facet normal -0 0 1
    outer loop
      vertex 43.7303 -24.5187 2
      vertex 45.2225 -30.3402 2
      vertex 44.6353 -24.2558 2
    endloop
  endfacet
  facet normal 0 0 1
    outer loop
      vertex 45.2225 -30.3402 2
      vertex 43.7303 -24.5187 2
      vertex 43.935 -30.628 2
    endloop
  endfacet
  facet normal -0 0 1
    outer loop
      vertex 42.8107 -24.7243 2
      vertex 43.935 -30.628 2
      vertex 43.7303 -24.5187 2
    endloop
  endfacet
  facet normal 0 0 1
    outer loop
      vertex 42.8107 -24.7243 2
      vertex 42.632 -30.8344 2
      vertex 43.935 -30.628 2
    endloop
  endfacet
  facet normal -0 0 1
    outer loop
      vertex 41.88 -24.8717 2
      vertex 42.632 -30.8344 2
      vertex 42.8107 -24.7243 2
    endloop
  endfacet
  facet normal 0 0 1
    outer loop
      vertex 41.88 -24.8717 2
      vertex 41.3186 -30.9586 2
      vertex 42.632 -30.8344 2
    endloop
  endfacet
  facet normal -0 0 1
    outer loop
      vertex 40.9419 -24.9604 2
      vertex 41.3186 -30.9586 2
      vertex 41.88 -24.8717 2
    endloop
  endfacet
  facet normal -0 0 1
    outer loop
      vertex 40 -24.99 2
      vertex 41.3186 -30.9586 2
      vertex 40.9419 -24.9604 2
    endloop
  endfacet
  facet normal 0 0 1
    outer loop
      vertex 40 -24.99 2
      vertex 40 -31 2
      vertex 41.3186 -30.9586 2
    endloop
  endfacet
  facet normal 0 0 1
    outer loop
      vertex 39.0581 -24.9604 2
      vertex 40 -31 2
      vertex 40 -24.99 2
    endloop
  endfacet
  facet normal 0 0 1
    outer loop
      vertex 39.0581 -24.9604 2
      vertex 38.6814 -30.9586 2
      vertex 40 -31 2
    endloop
  endfacet
  facet normal 0 0 1
    outer loop
      vertex 38.12 -24.8717 2
      vertex 38.6814 -30.9586 2
      vertex 39.0581 -24.9604 2
    endloop
  endfacet
  facet normal 0 0 1
    outer loop
      vertex 38.12 -24.8717 2
      vertex 37.368 -30.8344 2
      vertex 38.6814 -30.9586 2
    endloop
  endfacet
  facet normal 0 0 1
    outer loop
      vertex 37.1893 -24.7243 2
      vertex 37.368 -30.8344 2
      vertex 38.12 -24.8717 2
    endloop
  endfacet
  facet normal 0 0 1
    outer loop
      vertex 36.065 -30.628 2
      vertex 37.1893 -24.7243 2
      vertex 36.2697 -24.5187 2
    endloop
  endfacet
  facet normal 0 0 1
    outer loop
      vertex 37.1893 -24.7243 2
      vertex 36.065 -30.628 2
      vertex 37.368 -30.8344 2
    endloop
  endfacet
  facet normal 0 0 1
    outer loop
      vertex 34.7775 -30.3402 2
      vertex 36.2697 -24.5187 2
      vertex 35.3647 -24.2558 2
    endloop
  endfacet
  facet normal 0 0 1
    outer loop
      vertex 36.2697 -24.5187 2
      vertex 34.7775 -30.3402 2
      vertex 36.065 -30.628 2
    endloop
  endfacet
  facet normal 0 0 1
    outer loop
      vertex 33.5106 -29.9722 2
      vertex 35.3647 -24.2558 2
      vertex 34.4781 -23.9366 2
    endloop
  endfacet
  facet normal 0 0 1
    outer loop
      vertex 32.2694 -29.5253 2
      vertex 34.4781 -23.9366 2
      vertex 33.6133 -23.5624 2
    endloop
  endfacet
  facet normal 0 0 1
    outer loop
      vertex 35.3647 -24.2558 2
      vertex 33.5106 -29.9722 2
      vertex 34.7775 -30.3402 2
    endloop
  endfacet
  facet normal 0 0 1
    outer loop
      vertex 31.0586 -29.0014 2
      vertex 33.6133 -23.5624 2
      vertex 32.7737 -23.1346 2
    endloop
  endfacet
  facet normal 0 0 1
    outer loop
      vertex 34.4781 -23.9366 2
      vertex 32.2694 -29.5253 2
      vertex 33.5106 -29.9722 2
    endloop
  endfacet
  facet normal 0 0 1
    outer loop
      vertex 29.8832 -28.4024 2
      vertex 32.7737 -23.1346 2
      vertex 31.9626 -22.6549 2
    endloop
  endfacet
  facet normal 0 0 1
    outer loop
      vertex 28.7476 -27.7309 2
      vertex 31.9626 -22.6549 2
      vertex 31.1832 -22.1253 2
    endloop
  endfacet
  facet normal 0 0 1
    outer loop
      vertex 33.6133 -23.5624 2
      vertex 31.0586 -29.0014 2
      vertex 32.2694 -29.5253 2
    endloop
  endfacet
  facet normal 0 0 1
    outer loop
      vertex 27.6565 -26.9894 2
      vertex 31.1832 -22.1253 2
      vertex 30.4386 -21.5477 2
    endloop
  endfacet
  facet normal 0 0 1
    outer loop
      vertex 32.7737 -23.1346 2
      vertex 29.8832 -28.4024 2
      vertex 31.0586 -29.0014 2
    endloop
  endfacet
  facet normal 0 0 1
    outer loop
      vertex 26.6141 -26.1808 2
      vertex 30.4386 -21.5477 2
      vertex 29.7318 -20.9245 2
    endloop
  endfacet
  facet normal 0 0 1
    outer loop
      vertex 25.6245 -25.3083 2
      vertex 29.7318 -20.9245 2
      vertex 29.0655 -20.2582 2
    endloop
  endfacet
  facet normal 0 0 1
    outer loop
      vertex 31.9626 -22.6549 2
      vertex 28.7476 -27.7309 2
      vertex 29.8832 -28.4024 2
    endloop
  endfacet
  facet normal 0 0 1
    outer loop
      vertex 24.6917 -24.3755 2
      vertex 29.0655 -20.2582 2
      vertex 28.4423 -19.5514 2
    endloop
  endfacet
  facet normal 0 0 1
    outer loop
      vertex 24.6917 -24.3755 2
      vertex 28.4423 -19.5514 2
      vertex 27.8647 -18.8068 2
    endloop
  endfacet
  facet normal 0 0 1
    outer loop
      vertex 31.1832 -22.1253 2
      vertex 27.6565 -26.9894 2
      vertex 28.7476 -27.7309 2
    endloop
  endfacet
  facet normal 0 0 1
    outer loop
      vertex 24.6917 -24.3755 2
      vertex 27.8647 -18.8068 2
      vertex 27.3351 -18.0274 2
    endloop
  endfacet
  facet normal 0 0 1
    outer loop
      vertex 24.6917 -24.3755 2
      vertex 27.3351 -18.0274 2
      vertex 26.8554 -17.2163 2
    endloop
  endfacet
  facet normal 0 0 1
    outer loop
      vertex 30.4386 -21.5477 2
      vertex 26.6141 -26.1808 2
      vertex 27.6565 -26.9894 2
    endloop
  endfacet
  facet normal 0 0 1
    outer loop
      vertex 24.6917 -24.3755 2
      vertex 26.8554 -17.2163 2
      vertex 26.4276 -16.3767 2
    endloop
  endfacet
  facet normal 0 0 1
    outer loop
      vertex 24.6917 -24.3755 2
      vertex 26.4276 -16.3767 2
      vertex 26.0534 -15.5119 2
    endloop
  endfacet
  facet normal 0 0 1
    outer loop
      vertex 24.6917 -24.3755 2
      vertex 26.0534 -15.5119 2
      vertex 25.7342 -14.6253 2
    endloop
  endfacet
  facet normal 0 0 1
    outer loop
      vertex 29.7318 -20.9245 2
      vertex 25.6245 -25.3083 2
      vertex 26.6141 -26.1808 2
    endloop
  endfacet
  facet normal 0 0 1
    outer loop
      vertex 24.6917 -24.3755 2
      vertex 25.7342 -14.6253 2
      vertex 25.5 -13.8193 2
    endloop
  endfacet
  facet normal 0 0 1
    outer loop
      vertex 29.0655 -20.2582 2
      vertex 24.6917 -24.3755 2
      vertex 25.6245 -25.3083 2
    endloop
  endfacet
  facet normal 0 0 1
    outer loop
      vertex 25.5 -13.8193 2
      vertex 19.5 -18.49 2
      vertex 23.1243 -22.49 2
    endloop
  endfacet
  facet normal -0 0 1
    outer loop
      vertex 11.5 -18.49 2
      vertex 23.1243 -22.49 2
      vertex 19.5 -18.49 2
    endloop
  endfacet
  facet normal 0 0 1
    outer loop
      vertex 11.5 -18.49 2
      vertex 5.5 -22.49 2
      vertex 23.1243 -22.49 2
    endloop
  endfacet
  facet normal 0 0 1
    outer loop
      vertex 5.5 -22.49 2
      vertex 11.5 -18.49 2
      vertex 5.5 22.5 2
    endloop
  endfacet
  facet normal 0.999507 -0.0314117 0
    outer loop
      vertex 60.9586 -11.3186 2
      vertex 60.9843 -10.5 -2
      vertex 60.9843 -10.5 2
    endloop
  endfacet
  facet normal 0.999507 -0.0314117 0
    outer loop
      vertex 60.9843 -10.5 -2
      vertex 60.9586 -11.3186 2
      vertex 60.9586 -11.3186 -2
    endloop
  endfacet
  facet normal 0 0 -1
    outer loop
      vertex -5.5 -22.49 -2
      vertex -9.5 -22.49 -2
      vertex -5.5 22.5 -2
    endloop
  endfacet
  facet normal 0 0 -1
    outer loop
      vertex 23.1243 -22.49 -2
      vertex 11.5 -18.49 -2
      vertex 19.5 -18.49 -2
    endloop
  endfacet
  facet normal 0 0 -1
    outer loop
      vertex 5.5 22.5 -2
      vertex 11.5 -18.49 -2
      vertex 5.5 -22.49 -2
    endloop
  endfacet
  facet normal 0 0 -1
    outer loop
      vertex 5.5 -22.49 -2
      vertex 11.5 -18.49 -2
      vertex 23.1243 -22.49 -2
    endloop
  endfacet
  facet normal 0 0 -1
    outer loop
      vertex 59.9722 -16.4894 -2
      vertex 54.9997 -10 -2
      vertex 55 -10 -2
    endloop
  endfacet
  facet normal 0 0 -1
    outer loop
      vertex 56.1808 -23.3859 -2
      vertex 54.9704 -10.9319 -2
      vertex 54.9997 -10 -2
    endloop
  endfacet
  facet normal 0 0 -1
    outer loop
      vertex 56.1808 -23.3859 -2
      vertex 54.8817 -11.87 -2
      vertex 54.9704 -10.9319 -2
    endloop
  endfacet
  facet normal 0 0 -1
    outer loop
      vertex 56.1808 -23.3859 -2
      vertex 54.7343 -12.8007 -2
      vertex 54.8817 -11.87 -2
    endloop
  endfacet
  facet normal 0 0 -1
    outer loop
      vertex 56.1808 -23.3859 -2
      vertex 54.5287 -13.7203 -2
      vertex 54.7343 -12.8007 -2
    endloop
  endfacet
  facet normal 0 0 -1
    outer loop
      vertex 50.9345 -20.2582 -2
      vertex 55.3083 -24.3755 -2
      vertex 54.3755 -25.3083 -2
    endloop
  endfacet
  facet normal 0 0 -1
    outer loop
      vertex 56.1808 -23.3859 -2
      vertex 54.2658 -14.6253 -2
      vertex 54.5287 -13.7203 -2
    endloop
  endfacet
  facet normal 0 0 -1
    outer loop
      vertex 56.1808 -23.3859 -2
      vertex 53.9466 -15.5119 -2
      vertex 54.2658 -14.6253 -2
    endloop
  endfacet
  facet normal 0 0 -1
    outer loop
      vertex 56.1808 -23.3859 -2
      vertex 53.5724 -16.3767 -2
      vertex 53.9466 -15.5119 -2
    endloop
  endfacet
  facet normal 0 0 -1
    outer loop
      vertex 50.2682 -20.9245 -2
      vertex 54.3755 -25.3083 -2
      vertex 53.3859 -26.1808 -2
    endloop
  endfacet
  facet normal 0 0 -1
    outer loop
      vertex 56.1808 -23.3859 -2
      vertex 53.1446 -17.2163 -2
      vertex 53.5724 -16.3767 -2
    endloop
  endfacet
  facet normal 0 0 -1
    outer loop
      vertex 56.1808 -23.3859 -2
      vertex 52.6649 -18.0274 -2
      vertex 53.1446 -17.2163 -2
    endloop
  endfacet
  facet normal 0 0 -1
    outer loop
      vertex 49.5614 -21.5477 -2
      vertex 53.3859 -26.1808 -2
      vertex 52.3435 -26.9894 -2
    endloop
  endfacet
  facet normal 0 0 -1
    outer loop
      vertex 56.1808 -23.3859 -2
      vertex 52.1353 -18.8068 -2
      vertex 52.6649 -18.0274 -2
    endloop
  endfacet
  facet normal 0 0 -1
    outer loop
      vertex 56.1808 -23.3859 -2
      vertex 51.5577 -19.5514 -2
      vertex 52.1353 -18.8068 -2
    endloop
  endfacet
  facet normal 0 0 -1
    outer loop
      vertex 48.8168 -22.1253 -2
      vertex 52.3435 -26.9894 -2
      vertex 51.2524 -27.7309 -2
    endloop
  endfacet
  facet normal 0 0 -1
    outer loop
      vertex 55.3083 -24.3755 -2
      vertex 50.9345 -20.2582 -2
      vertex 51.5577 -19.5514 -2
    endloop
  endfacet
  facet normal 0 0 -1
    outer loop
      vertex 54.3755 -25.3083 -2
      vertex 50.2682 -20.9245 -2
      vertex 50.9345 -20.2582 -2
    endloop
  endfacet
  facet normal 0 0 -1
    outer loop
      vertex 48.0374 -22.6549 -2
      vertex 51.2524 -27.7309 -2
      vertex 50.1168 -28.4024 -2
    endloop
  endfacet
  facet normal 0 0 -1
    outer loop
      vertex 53.3859 -26.1808 -2
      vertex 49.5614 -21.5477 -2
      vertex 50.2682 -20.9245 -2
    endloop
  endfacet
  facet normal 0 0 -1
    outer loop
      vertex 47.2263 -23.1346 -2
      vertex 50.1168 -28.4024 -2
      vertex 48.9414 -29.0014 -2
    endloop
  endfacet
  facet normal 0 0 -1
    outer loop
      vertex 52.3435 -26.9894 -2
      vertex 48.8168 -22.1253 -2
      vertex 49.5614 -21.5477 -2
    endloop
  endfacet
  facet normal 0 0 -1
    outer loop
      vertex 51.2524 -27.7309 -2
      vertex 48.0374 -22.6549 -2
      vertex 48.8168 -22.1253 -2
    endloop
  endfacet
  facet normal 0 0 -1
    outer loop
      vertex 46.3867 -23.5624 -2
      vertex 48.9414 -29.0014 -2
      vertex 47.7306 -29.5253 -2
    endloop
  endfacet
  facet normal 0 0 -1
    outer loop
      vertex 50.1168 -28.4024 -2
      vertex 47.2263 -23.1346 -2
      vertex 48.0374 -22.6549 -2
    endloop
  endfacet
  facet normal 0 0 -1
    outer loop
      vertex 45.5219 -23.9366 -2
      vertex 47.7306 -29.5253 -2
      vertex 46.4894 -29.9722 -2
    endloop
  endfacet
  facet normal 0 0 -1
    outer loop
      vertex 48.9414 -29.0014 -2
      vertex 46.3867 -23.5624 -2
      vertex 47.2263 -23.1346 -2
    endloop
  endfacet
  facet normal 0 0 -1
    outer loop
      vertex 47.7306 -29.5253 -2
      vertex 45.5219 -23.9366 -2
      vertex 46.3867 -23.5624 -2
    endloop
  endfacet
  facet normal 0 0 -1
    outer loop
      vertex 44.6353 -24.2558 -2
      vertex 46.4894 -29.9722 -2
      vertex 45.2225 -30.3402 -2
    endloop
  endfacet
  facet normal 0 0 -1
    outer loop
      vertex 46.4894 -29.9722 -2
      vertex 44.6353 -24.2558 -2
      vertex 45.5219 -23.9366 -2
    endloop
  endfacet
  facet normal 0 0 -1
    outer loop
      vertex 43.7303 -24.5187 -2
      vertex 45.2225 -30.3402 -2
      vertex 43.935 -30.628 -2
    endloop
  endfacet
  facet normal 0 0 -1
    outer loop
      vertex 45.2225 -30.3402 -2
      vertex 43.7303 -24.5187 -2
      vertex 44.6353 -24.2558 -2
    endloop
  endfacet
  facet normal 0 0 -1
    outer loop
      vertex 43.935 -30.628 -2
      vertex 42.8107 -24.7243 -2
      vertex 43.7303 -24.5187 -2
    endloop
  endfacet
  facet normal 0 0 -1
    outer loop
      vertex 42.632 -30.8344 -2
      vertex 42.8107 -24.7243 -2
      vertex 43.935 -30.628 -2
    endloop
  endfacet
  facet normal 0 0 -1
    outer loop
      vertex 42.632 -30.8344 -2
      vertex 41.88 -24.8717 -2
      vertex 42.8107 -24.7243 -2
    endloop
  endfacet
  facet normal 0 0 -1
    outer loop
      vertex 41.3186 -30.9586 -2
      vertex 41.88 -24.8717 -2
      vertex 42.632 -30.8344 -2
    endloop
  endfacet
  facet normal 0 0 -1
    outer loop
      vertex 41.3186 -30.9586 -2
      vertex 40.9419 -24.9604 -2
      vertex 41.88 -24.8717 -2
    endloop
  endfacet
  facet normal 0 0 -1
    outer loop
      vertex 40 -31 -2
      vertex 40.9419 -24.9604 -2
      vertex 41.3186 -30.9586 -2
    endloop
  endfacet
  facet normal 0 0 -1
    outer loop
      vertex 40 -31 -2
      vertex 40 -24.99 -2
      vertex 40.9419 -24.9604 -2
    endloop
  endfacet
  facet normal 0 0 -1
    outer loop
      vertex 40 -31 -2
      vertex 39.0581 -24.9604 -2
      vertex 40 -24.99 -2
    endloop
  endfacet
  facet normal 0 0 -1
    outer loop
      vertex 38.6814 -30.9586 -2
      vertex 39.0581 -24.9604 -2
      vertex 40 -31 -2
    endloop
  endfacet
  facet normal 0 0 -1
    outer loop
      vertex 38.6814 -30.9586 -2
      vertex 38.12 -24.8717 -2
      vertex 39.0581 -24.9604 -2
    endloop
  endfacet
  facet normal 0 0 -1
    outer loop
      vertex 37.368 -30.8344 -2
      vertex 38.12 -24.8717 -2
      vertex 38.6814 -30.9586 -2
    endloop
  endfacet
  facet normal 0 0 -1
    outer loop
      vertex 37.368 -30.8344 -2
      vertex 37.1893 -24.7243 -2
      vertex 38.12 -24.8717 -2
    endloop
  endfacet
  facet normal 0 0 -1
    outer loop
      vertex 36.065 -30.628 -2
      vertex 37.1893 -24.7243 -2
      vertex 37.368 -30.8344 -2
    endloop
  endfacet
  facet normal -0 0 -1
    outer loop
      vertex 37.1893 -24.7243 -2
      vertex 36.065 -30.628 -2
      vertex 36.2697 -24.5187 -2
    endloop
  endfacet
  facet normal 0 0 -1
    outer loop
      vertex 34.7775 -30.3402 -2
      vertex 36.2697 -24.5187 -2
      vertex 36.065 -30.628 -2
    endloop
  endfacet
  facet normal -0 0 -1
    outer loop
      vertex 36.2697 -24.5187 -2
      vertex 34.7775 -30.3402 -2
      vertex 35.3647 -24.2558 -2
    endloop
  endfacet
  facet normal 0 0 -1
    outer loop
      vertex 33.5106 -29.9722 -2
      vertex 35.3647 -24.2558 -2
      vertex 34.7775 -30.3402 -2
    endloop
  endfacet
  facet normal -0 0 -1
    outer loop
      vertex 35.3647 -24.2558 -2
      vertex 33.5106 -29.9722 -2
      vertex 34.4781 -23.9366 -2
    endloop
  endfacet
  facet normal 0 0 -1
    outer loop
      vertex 32.2694 -29.5253 -2
      vertex 34.4781 -23.9366 -2
      vertex 33.5106 -29.9722 -2
    endloop
  endfacet
  facet normal -0 0 -1
    outer loop
      vertex 34.4781 -23.9366 -2
      vertex 32.2694 -29.5253 -2
      vertex 33.6133 -23.5624 -2
    endloop
  endfacet
  facet normal 0 0 -1
    outer loop
      vertex 31.0586 -29.0014 -2
      vertex 33.6133 -23.5624 -2
      vertex 32.2694 -29.5253 -2
    endloop
  endfacet
  facet normal -0 0 -1
    outer loop
      vertex 33.6133 -23.5624 -2
      vertex 31.0586 -29.0014 -2
      vertex 32.7737 -23.1346 -2
    endloop
  endfacet
  facet normal 0 0 -1
    outer loop
      vertex 29.8832 -28.4024 -2
      vertex 32.7737 -23.1346 -2
      vertex 31.0586 -29.0014 -2
    endloop
  endfacet
  facet normal -0 0 -1
    outer loop
      vertex 32.7737 -23.1346 -2
      vertex 29.8832 -28.4024 -2
      vertex 31.9626 -22.6549 -2
    endloop
  endfacet
  facet normal 0 0 -1
    outer loop
      vertex 28.7476 -27.7309 -2
      vertex 31.9626 -22.6549 -2
      vertex 29.8832 -28.4024 -2
    endloop
  endfacet
  facet normal -0 0 -1
    outer loop
      vertex 31.9626 -22.6549 -2
      vertex 28.7476 -27.7309 -2
      vertex 31.1832 -22.1253 -2
    endloop
  endfacet
  facet normal 0 0 -1
    outer loop
      vertex 27.6565 -26.9894 -2
      vertex 31.1832 -22.1253 -2
      vertex 28.7476 -27.7309 -2
    endloop
  endfacet
  facet normal -0 0 -1
    outer loop
      vertex 31.1832 -22.1253 -2
      vertex 27.6565 -26.9894 -2
      vertex 30.4386 -21.5477 -2
    endloop
  endfacet
  facet normal 0 0 -1
    outer loop
      vertex 26.6141 -26.1808 -2
      vertex 30.4386 -21.5477 -2
      vertex 27.6565 -26.9894 -2
    endloop
  endfacet
  facet normal -0 0 -1
    outer loop
      vertex 30.4386 -21.5477 -2
      vertex 26.6141 -26.1808 -2
      vertex 29.7318 -20.9245 -2
    endloop
  endfacet
  facet normal 0 0 -1
    outer loop
      vertex 25.6245 -25.3083 -2
      vertex 29.7318 -20.9245 -2
      vertex 26.6141 -26.1808 -2
    endloop
  endfacet
  facet normal -0 0 -1
    outer loop
      vertex 29.7318 -20.9245 -2
      vertex 25.6245 -25.3083 -2
      vertex 29.0655 -20.2582 -2
    endloop
  endfacet
  facet normal 0 0 -1
    outer loop
      vertex 24.6917 -24.3755 -2
      vertex 29.0655 -20.2582 -2
      vertex 25.6245 -25.3083 -2
    endloop
  endfacet
  facet normal -0 0 -1
    outer loop
      vertex 29.0655 -20.2582 -2
      vertex 24.6917 -24.3755 -2
      vertex 28.4423 -19.5514 -2
    endloop
  endfacet
  facet normal 0 0 -1
    outer loop
      vertex 23.8192 -23.3859 -2
      vertex 28.4423 -19.5514 -2
      vertex 24.6917 -24.3755 -2
    endloop
  endfacet
  facet normal 0 0 -1
    outer loop
      vertex 23.1243 -22.49 -2
      vertex 28.4423 -19.5514 -2
      vertex 23.8192 -23.3859 -2
    endloop
  endfacet
  facet normal -0 0 -1
    outer loop
      vertex 28.4423 -19.5514 -2
      vertex 23.1243 -22.49 -2
      vertex 27.8647 -18.8068 -2
    endloop
  endfacet
  facet normal -0 0 -1
    outer loop
      vertex 27.8647 -18.8068 -2
      vertex 23.1243 -22.49 -2
      vertex 27.3351 -18.0274 -2
    endloop
  endfacet
  facet normal -0 0 -1
    outer loop
      vertex 27.3351 -18.0274 -2
      vertex 23.1243 -22.49 -2
      vertex 26.8554 -17.2163 -2
    endloop
  endfacet
  facet normal 0 0 -1
    outer loop
      vertex 19.5 -18.49 -2
      vertex 26.8554 -17.2163 -2
      vertex 23.1243 -22.49 -2
    endloop
  endfacet
  facet normal -0 0 -1
    outer loop
      vertex 26.8554 -17.2163 -2
      vertex 19.5 -18.49 -2
      vertex 26.4276 -16.3767 -2
    endloop
  endfacet
  facet normal -0 0 -1
    outer loop
      vertex 26.4276 -16.3767 -2
      vertex 19.5 -18.49 -2
      vertex 26.0534 -15.5119 -2
    endloop
  endfacet
  facet normal -0 0 -1
    outer loop
      vertex 26.0534 -15.5119 -2
      vertex 19.5 -18.49 -2
      vertex 25.7342 -14.6253 -2
    endloop
  endfacet
  facet normal -0 0 -1
    outer loop
      vertex 25.7342 -14.6253 -2
      vertex 19.5 -18.49 -2
      vertex 25.5 -13.8193 -2
    endloop
  endfacet
  facet normal 0 0 -1
    outer loop
      vertex 19.5 22.51 -2
      vertex 25.5 -13.8193 -2
      vertex 19.5 -18.49 -2
    endloop
  endfacet
  facet normal 0 0 -1
    outer loop
      vertex 25.5 -13.8193 -2
      vertex 19.5 22.51 -2
      vertex 25.5 26.51 -2
    endloop
  endfacet
  facet normal 0 0 -1
    outer loop
      vertex 11.5 22.51 -2
      vertex 25.5 26.51 -2
      vertex 19.5 22.51 -2
    endloop
  endfacet
  facet normal 0 0 -1
    outer loop
      vertex 11.5 -18.49 -2
      vertex 5.5 22.5 -2
      vertex 11.5 22.51 -2
    endloop
  endfacet
  facet normal 0 0 -1
    outer loop
      vertex 5.5 22.5 -2
      vertex 25.5 26.51 -2
      vertex 11.5 22.51 -2
    endloop
  endfacet
  facet normal 0 0 -1
    outer loop
      vertex -9.5 26.51 -2
      vertex 5.5 22.5 -2
      vertex -5.5 22.5 -2
    endloop
  endfacet
  facet normal 0 0 -1
    outer loop
      vertex 5.5 22.5 -2
      vertex -9.5 26.51 -2
      vertex 25.5 26.51 -2
    endloop
  endfacet
  facet normal 0 0 -1
    outer loop
      vertex -9.5 26.51 -2
      vertex -5.5 22.5 -2
      vertex -9.5 -22.49 -2
    endloop
  endfacet
  facet normal 0 0 -1
    outer loop
      vertex 60.9843 -10.5 -2
      vertex 61 4.5 -2
      vertex 61 -10.5 -2
    endloop
  endfacet
  facet normal 0 0 -1
    outer loop
      vertex 55 -10 -2
      vertex 60.9843 -10.5 -2
      vertex 60.9586 -11.3186 -2
    endloop
  endfacet
  facet normal 0 0 -1
    outer loop
      vertex 55 -10 -2
      vertex 60.9586 -11.3186 -2
      vertex 60.8344 -12.632 -2
    endloop
  endfacet
  facet normal 0 0 -1
    outer loop
      vertex 55 -10 -2
      vertex 60.8344 -12.632 -2
      vertex 60.628 -13.935 -2
    endloop
  endfacet
  facet normal 0 0 -1
    outer loop
      vertex 55 -10 -2
      vertex 60.628 -13.935 -2
      vertex 60.3402 -15.2225 -2
    endloop
  endfacet
  facet normal 0 0 -1
    outer loop
      vertex 55 -10 -2
      vertex 60.3402 -15.2225 -2
      vertex 59.9722 -16.4894 -2
    endloop
  endfacet
  facet normal 0 0 -1
    outer loop
      vertex 54.9997 -10 -2
      vertex 59.9722 -16.4894 -2
      vertex 59.5253 -17.7306 -2
    endloop
  endfacet
  facet normal 0 0 -1
    outer loop
      vertex 54.9997 -10 -2
      vertex 59.5253 -17.7306 -2
      vertex 59.0014 -18.9414 -2
    endloop
  endfacet
  facet normal 0 0 -1
    outer loop
      vertex 54.9997 -10 -2
      vertex 59.0014 -18.9414 -2
      vertex 58.4024 -20.1168 -2
    endloop
  endfacet
  facet normal 0 0 -1
    outer loop
      vertex 54.9997 -10 -2
      vertex 58.4024 -20.1168 -2
      vertex 57.7309 -21.2524 -2
    endloop
  endfacet
  facet normal 0 0 -1
    outer loop
      vertex 54.9997 -10 -2
      vertex 57.7309 -21.2524 -2
      vertex 56.9894 -22.3435 -2
    endloop
  endfacet
  facet normal 0 0 -1
    outer loop
      vertex 54.9997 -10 -2
      vertex 56.9894 -22.3435 -2
      vertex 56.1808 -23.3859 -2
    endloop
  endfacet
  facet normal 0 0 -1
    outer loop
      vertex 51.5577 -19.5514 -2
      vertex 56.1808 -23.3859 -2
      vertex 55.3083 -24.3755 -2
    endloop
  endfacet
  facet normal 0 0 -1
    outer loop
      vertex 60.9843 -10.5 -2
      vertex 55 -10 -2
      vertex 61 4.5 -2
    endloop
  endfacet
  facet normal -0 0 -1
    outer loop
      vertex 61 4.5 -2
      vertex 55 -10 -2
      vertex 55 4.5 -2
    endloop
  endfacet
  facet normal 0.940881 0.338738 0
    outer loop
      vertex 26.0534 -15.5119 2
      vertex 25.7342 -14.6253 -2
      vertex 25.7342 -14.6253 2
    endloop
  endfacet
  facet normal 0.940881 0.338738 0
    outer loop
      vertex 25.7342 -14.6253 -2
      vertex 26.0534 -15.5119 2
      vertex 26.0534 -15.5119 -2
    endloop
  endfacet
  facet normal -0.45399 0.891007 0
    outer loop
      vertex 47.2263 -23.1346 -2
      vertex 46.3867 -23.5624 2
      vertex 47.2263 -23.1346 2
    endloop
  endfacet
  facet normal -0.45399 0.891007 0
    outer loop
      vertex 46.3867 -23.5624 2
      vertex 47.2263 -23.1346 -2
      vertex 46.3867 -23.5624 -2
    endloop
  endfacet
  facet normal 0.707106 0.707108 -0
    outer loop
      vertex 29.7318 -20.9245 -2
      vertex 29.0655 -20.2582 2
      vertex 29.7318 -20.9245 2
    endloop
  endfacet
  facet normal 0.707106 0.707108 0
    outer loop
      vertex 29.0655 -20.2582 2
      vertex 29.7318 -20.9245 -2
      vertex 29.0655 -20.2582 -2
    endloop
  endfacet
  facet normal -0.278991 0.960294 0
    outer loop
      vertex 44.6353 -24.2558 -2
      vertex 43.7303 -24.5187 2
      vertex 44.6353 -24.2558 2
    endloop
  endfacet
  facet normal -0.278991 0.960294 0
    outer loop
      vertex 43.7303 -24.5187 2
      vertex 44.6353 -24.2558 -2
      vertex 43.7303 -24.5187 -2
    endloop
  endfacet
  facet normal -0.975917 0.218141 0
    outer loop
      vertex 54.5287 -13.7203 -2
      vertex 54.7343 -12.8007 2
      vertex 54.7343 -12.8007 -2
    endloop
  endfacet
  facet normal -0.975917 0.218141 0
    outer loop
      vertex 54.7343 -12.8007 2
      vertex 54.5287 -13.7203 -2
      vertex 54.5287 -13.7203 2
    endloop
  endfacet
  facet normal 0.0941082 0.995562 -0
    outer loop
      vertex 39.0581 -24.9604 -2
      vertex 38.12 -24.8717 2
      vertex 39.0581 -24.9604 2
    endloop
  endfacet
  facet normal 0.0941082 0.995562 0
    outer loop
      vertex 38.12 -24.8717 2
      vertex 39.0581 -24.9604 -2
      vertex 38.12 -24.8717 -2
    endloop
  endfacet
  facet normal -0.999507 0.0314114 0
    outer loop
      vertex 54.9704 -10.9319 -2
      vertex 54.9997 -10 2
      vertex 54.9997 -10 -2
    endloop
  endfacet
  facet normal -0.999507 0.0314114 0
    outer loop
      vertex 54.9997 -10 2
      vertex 54.9704 -10.9319 -2
      vertex 54.9704 -10.9319 2
    endloop
  endfacet
  facet normal -0.218143 0.975917 0
    outer loop
      vertex 43.7303 -24.5187 -2
      vertex 42.8107 -24.7243 2
      vertex 43.7303 -24.5187 2
    endloop
  endfacet
  facet normal -0.218143 0.975917 0
    outer loop
      vertex 42.8107 -24.7243 2
      vertex 43.7303 -24.5187 -2
      vertex 42.8107 -24.7243 -2
    endloop
  endfacet
  facet normal -0.562083 0.827081 0
    outer loop
      vertex 48.8168 -22.1253 -2
      vertex 48.0374 -22.6549 2
      vertex 48.8168 -22.1253 2
    endloop
  endfacet
  facet normal -0.562083 0.827081 0
    outer loop
      vertex 48.0374 -22.6549 2
      vertex 48.8168 -22.1253 -2
      vertex 48.0374 -22.6549 -2
    endloop
  endfacet
  facet normal -0.612906 0.790156 0
    outer loop
      vertex 49.5614 -21.5477 -2
      vertex 48.8168 -22.1253 2
      vertex 49.5614 -21.5477 2
    endloop
  endfacet
  facet normal -0.612906 0.790156 0
    outer loop
      vertex 48.8168 -22.1253 2
      vertex 49.5614 -21.5477 -2
      vertex 48.8168 -22.1253 -2
    endloop
  endfacet
  facet normal -0.661313 0.75011 0
    outer loop
      vertex 50.2682 -20.9245 -2
      vertex 49.5614 -21.5477 2
      vertex 50.2682 -20.9245 2
    endloop
  endfacet
  facet normal -0.661313 0.75011 0
    outer loop
      vertex 49.5614 -21.5477 2
      vertex 50.2682 -20.9245 -2
      vertex 49.5614 -21.5477 -2
    endloop
  endfacet
  facet normal -0.827081 0.562083 0
    outer loop
      vertex 52.1353 -18.8068 -2
      vertex 52.6649 -18.0274 2
      vertex 52.6649 -18.0274 -2
    endloop
  endfacet
  facet normal -0.827081 0.562083 0
    outer loop
      vertex 52.6649 -18.0274 2
      vertex 52.1353 -18.8068 -2
      vertex 52.1353 -18.8068 2
    endloop
  endfacet
  facet normal -0.860741 0.509043 0
    outer loop
      vertex 52.6649 -18.0274 -2
      vertex 53.1446 -17.2163 2
      vertex 53.1446 -17.2163 -2
    endloop
  endfacet
  facet normal -0.860741 0.509043 0
    outer loop
      vertex 53.1446 -17.2163 2
      vertex 52.6649 -18.0274 -2
      vertex 52.6649 -18.0274 2
    endloop
  endfacet
  facet normal -0.940881 0.338736 0
    outer loop
      vertex 53.9466 -15.5119 -2
      vertex 54.2658 -14.6253 2
      vertex 54.2658 -14.6253 -2
    endloop
  endfacet
  facet normal -0.940881 0.338736 0
    outer loop
      vertex 54.2658 -14.6253 2
      vertex 53.9466 -15.5119 -2
      vertex 53.9466 -15.5119 2
    endloop
  endfacet
  facet normal 0.612907 0.790155 -0
    outer loop
      vertex 31.1832 -22.1253 -2
      vertex 30.4386 -21.5477 2
      vertex 31.1832 -22.1253 2
    endloop
  endfacet
  facet normal 0.612907 0.790155 0
    outer loop
      vertex 30.4386 -21.5477 2
      vertex 31.1832 -22.1253 -2
      vertex 30.4386 -21.5477 -2
    endloop
  endfacet
  facet normal 0.562084 0.82708 -0
    outer loop
      vertex 31.9626 -22.6549 -2
      vertex 31.1832 -22.1253 2
      vertex 31.9626 -22.6549 2
    endloop
  endfacet
  facet normal 0.562084 0.82708 0
    outer loop
      vertex 31.1832 -22.1253 2
      vertex 31.9626 -22.6549 -2
      vertex 31.1832 -22.1253 -2
    endloop
  endfacet
  facet normal 0.278993 0.960293 -0
    outer loop
      vertex 36.2697 -24.5187 -2
      vertex 35.3647 -24.2558 2
      vertex 36.2697 -24.5187 2
    endloop
  endfacet
  facet normal 0.278993 0.960293 0
    outer loop
      vertex 35.3647 -24.2558 2
      vertex 36.2697 -24.5187 -2
      vertex 35.3647 -24.2558 -2
    endloop
  endfacet
  facet normal 0.860742 0.509041 0
    outer loop
      vertex 27.3351 -18.0274 2
      vertex 26.8554 -17.2163 -2
      vertex 26.8554 -17.2163 2
    endloop
  endfacet
  facet normal 0.860742 0.509041 0
    outer loop
      vertex 26.8554 -17.2163 -2
      vertex 27.3351 -18.0274 2
      vertex 27.3351 -18.0274 -2
    endloop
  endfacet
  facet normal 0.827081 0.562083 0
    outer loop
      vertex 27.8647 -18.8068 2
      vertex 27.3351 -18.0274 -2
      vertex 27.3351 -18.0274 2
    endloop
  endfacet
  facet normal 0.827081 0.562083 0
    outer loop
      vertex 27.3351 -18.0274 -2
      vertex 27.8647 -18.8068 2
      vertex 27.8647 -18.8068 -2
    endloop
  endfacet
  facet normal 0.891007 0.45399 0
    outer loop
      vertex 26.8554 -17.2163 2
      vertex 26.4276 -16.3767 -2
      vertex 26.4276 -16.3767 2
    endloop
  endfacet
  facet normal 0.891007 0.45399 0
    outer loop
      vertex 26.4276 -16.3767 -2
      vertex 26.8554 -17.2163 2
      vertex 26.8554 -17.2163 -2
    endloop
  endfacet
  facet normal -0.397147 0.917755 0
    outer loop
      vertex 46.3867 -23.5624 -2
      vertex 45.5219 -23.9366 2
      vertex 46.3867 -23.5624 2
    endloop
  endfacet
  facet normal -0.397147 0.917755 0
    outer loop
      vertex 45.5219 -23.9366 2
      vertex 46.3867 -23.5624 -2
      vertex 45.5219 -23.9366 -2
    endloop
  endfacet
  facet normal -0.33874 0.94088 0
    outer loop
      vertex 45.5219 -23.9366 -2
      vertex 44.6353 -24.2558 2
      vertex 45.5219 -23.9366 2
    endloop
  endfacet
  facet normal -0.33874 0.94088 0
    outer loop
      vertex 44.6353 -24.2558 2
      vertex 45.5219 -23.9366 -2
      vertex 44.6353 -24.2558 -2
    endloop
  endfacet
  facet normal -0.0941082 0.995562 0
    outer loop
      vertex 41.88 -24.8717 -2
      vertex 40.9419 -24.9604 2
      vertex 41.88 -24.8717 2
    endloop
  endfacet
  facet normal -0.0941082 0.995562 0
    outer loop
      vertex 40.9419 -24.9604 2
      vertex 41.88 -24.8717 -2
      vertex 40.9419 -24.9604 -2
    endloop
  endfacet
  facet normal -0.156434 0.987688 0
    outer loop
      vertex 42.8107 -24.7243 -2
      vertex 41.88 -24.8717 2
      vertex 42.8107 -24.7243 2
    endloop
  endfacet
  facet normal -0.156434 0.987688 0
    outer loop
      vertex 41.88 -24.8717 2
      vertex 42.8107 -24.7243 -2
      vertex 41.88 -24.8717 -2
    endloop
  endfacet
  facet normal -0.509041 0.860742 0
    outer loop
      vertex 48.0374 -22.6549 -2
      vertex 47.2263 -23.1346 2
      vertex 48.0374 -22.6549 2
    endloop
  endfacet
  facet normal -0.509041 0.860742 0
    outer loop
      vertex 47.2263 -23.1346 2
      vertex 48.0374 -22.6549 -2
      vertex 47.2263 -23.1346 -2
    endloop
  endfacet
  facet normal -0.707107 0.707107 0
    outer loop
      vertex 50.2682 -20.9245 -2
      vertex 50.9345 -20.2582 2
      vertex 50.9345 -20.2582 -2
    endloop
  endfacet
  facet normal -0.707107 0.707107 0
    outer loop
      vertex 50.9345 -20.2582 2
      vertex 50.2682 -20.9245 -2
      vertex 50.2682 -20.9245 2
    endloop
  endfacet
  facet normal -0.750111 0.661312 0
    outer loop
      vertex 50.9345 -20.2582 -2
      vertex 51.5577 -19.5514 2
      vertex 51.5577 -19.5514 -2
    endloop
  endfacet
  facet normal -0.750111 0.661312 0
    outer loop
      vertex 51.5577 -19.5514 2
      vertex 50.9345 -20.2582 -2
      vertex 50.9345 -20.2582 2
    endloop
  endfacet
  facet normal -0.987688 0.156434 0
    outer loop
      vertex 54.7343 -12.8007 -2
      vertex 54.8817 -11.87 2
      vertex 54.8817 -11.87 -2
    endloop
  endfacet
  facet normal -0.987688 0.156434 0
    outer loop
      vertex 54.8817 -11.87 2
      vertex 54.7343 -12.8007 -2
      vertex 54.7343 -12.8007 2
    endloop
  endfacet
  facet normal -0.995562 0.0941122 0
    outer loop
      vertex 54.8817 -11.87 -2
      vertex 54.9704 -10.9319 2
      vertex 54.9704 -10.9319 -2
    endloop
  endfacet
  facet normal -0.995562 0.0941122 0
    outer loop
      vertex 54.9704 -10.9319 2
      vertex 54.8817 -11.87 -2
      vertex 54.8817 -11.87 2
    endloop
  endfacet
  facet normal -0.790155 0.612907 0
    outer loop
      vertex 51.5577 -19.5514 -2
      vertex 52.1353 -18.8068 2
      vertex 52.1353 -18.8068 -2
    endloop
  endfacet
  facet normal -0.790155 0.612907 0
    outer loop
      vertex 52.1353 -18.8068 2
      vertex 51.5577 -19.5514 -2
      vertex 51.5577 -19.5514 2
    endloop
  endfacet
  facet normal -0.917754 0.39715 0
    outer loop
      vertex 53.5724 -16.3767 -2
      vertex 53.9466 -15.5119 2
      vertex 53.9466 -15.5119 -2
    endloop
  endfacet
  facet normal -0.917754 0.39715 0
    outer loop
      vertex 53.9466 -15.5119 2
      vertex 53.5724 -16.3767 -2
      vertex 53.5724 -16.3767 2
    endloop
  endfacet
  facet normal -0.891007 0.453989 0
    outer loop
      vertex 53.1446 -17.2163 -2
      vertex 53.5724 -16.3767 2
      vertex 53.5724 -16.3767 -2
    endloop
  endfacet
  facet normal -0.891007 0.453989 0
    outer loop
      vertex 53.5724 -16.3767 2
      vertex 53.1446 -17.2163 -2
      vertex 53.1446 -17.2163 2
    endloop
  endfacet
  facet normal -0.960293 0.278993 0
    outer loop
      vertex 54.2658 -14.6253 -2
      vertex 54.5287 -13.7203 2
      vertex 54.5287 -13.7203 -2
    endloop
  endfacet
  facet normal -0.960293 0.278993 0
    outer loop
      vertex 54.5287 -13.7203 2
      vertex 54.2658 -14.6253 -2
      vertex 54.2658 -14.6253 2
    endloop
  endfacet
  facet normal 0.0314119 0.999507 -0
    outer loop
      vertex 40 -24.99 -2
      vertex 39.0581 -24.9604 2
      vertex 40 -24.99 2
    endloop
  endfacet
  facet normal 0.0314119 0.999507 0
    outer loop
      vertex 39.0581 -24.9604 2
      vertex 40 -24.99 -2
      vertex 39.0581 -24.9604 -2
    endloop
  endfacet
  facet normal 0.661312 0.750111 -0
    outer loop
      vertex 30.4386 -21.5477 -2
      vertex 29.7318 -20.9245 2
      vertex 30.4386 -21.5477 2
    endloop
  endfacet
  facet normal 0.661312 0.750111 0
    outer loop
      vertex 29.7318 -20.9245 2
      vertex 30.4386 -21.5477 -2
      vertex 29.7318 -20.9245 -2
    endloop
  endfacet
  facet normal 0.453989 0.891007 -0
    outer loop
      vertex 33.6133 -23.5624 -2
      vertex 32.7737 -23.1346 2
      vertex 33.6133 -23.5624 2
    endloop
  endfacet
  facet normal 0.453989 0.891007 0
    outer loop
      vertex 32.7737 -23.1346 2
      vertex 33.6133 -23.5624 -2
      vertex 32.7737 -23.1346 -2
    endloop
  endfacet
  facet normal 0.509042 0.860741 -0
    outer loop
      vertex 32.7737 -23.1346 -2
      vertex 31.9626 -22.6549 2
      vertex 32.7737 -23.1346 2
    endloop
  endfacet
  facet normal 0.509042 0.860741 0
    outer loop
      vertex 31.9626 -22.6549 2
      vertex 32.7737 -23.1346 -2
      vertex 31.9626 -22.6549 -2
    endloop
  endfacet
  facet normal 0.397148 0.917754 -0
    outer loop
      vertex 34.4781 -23.9366 -2
      vertex 33.6133 -23.5624 2
      vertex 34.4781 -23.9366 2
    endloop
  endfacet
  facet normal 0.397148 0.917754 0
    outer loop
      vertex 33.6133 -23.5624 2
      vertex 34.4781 -23.9366 -2
      vertex 33.6133 -23.5624 -2
    endloop
  endfacet
  facet normal 0.960294 0.27899 0
    outer loop
      vertex 25.7342 -14.6253 2
      vertex 25.5 -13.8193 -2
      vertex 25.5 -13.8193 2
    endloop
  endfacet
  facet normal 0.960294 0.27899 0
    outer loop
      vertex 25.5 -13.8193 -2
      vertex 25.7342 -14.6253 2
      vertex 25.7342 -14.6253 -2
    endloop
  endfacet
  facet normal 0.917754 0.397149 0
    outer loop
      vertex 26.4276 -16.3767 2
      vertex 26.0534 -15.5119 -2
      vertex 26.0534 -15.5119 2
    endloop
  endfacet
  facet normal 0.917754 0.397149 0
    outer loop
      vertex 26.0534 -15.5119 -2
      vertex 26.4276 -16.3767 2
      vertex 26.4276 -16.3767 -2
    endloop
  endfacet
  facet normal 0.790155 0.612907 0
    outer loop
      vertex 28.4423 -19.5514 2
      vertex 27.8647 -18.8068 -2
      vertex 27.8647 -18.8068 2
    endloop
  endfacet
  facet normal 0.790155 0.612907 0
    outer loop
      vertex 27.8647 -18.8068 -2
      vertex 28.4423 -19.5514 2
      vertex 28.4423 -19.5514 -2
    endloop
  endfacet
  facet normal 0.750111 0.661312 0
    outer loop
      vertex 29.0655 -20.2582 2
      vertex 28.4423 -19.5514 -2
      vertex 28.4423 -19.5514 2
    endloop
  endfacet
  facet normal 0.750111 0.661312 0
    outer loop
      vertex 28.4423 -19.5514 -2
      vertex 29.0655 -20.2582 2
      vertex 29.0655 -20.2582 -2
    endloop
  endfacet
  facet normal -0.0314119 0.999507 0
    outer loop
      vertex 40.9419 -24.9604 -2
      vertex 40 -24.99 2
      vertex 40.9419 -24.9604 2
    endloop
  endfacet
  facet normal -0.0314119 0.999507 0
    outer loop
      vertex 40 -24.99 2
      vertex 40.9419 -24.9604 -2
      vertex 40 -24.99 -2
    endloop
  endfacet
  facet normal 0.156434 0.987688 -0
    outer loop
      vertex 38.12 -24.8717 -2
      vertex 37.1893 -24.7243 2
      vertex 38.12 -24.8717 2
    endloop
  endfacet
  facet normal 0.156434 0.987688 0
    outer loop
      vertex 37.1893 -24.7243 2
      vertex 38.12 -24.8717 -2
      vertex 37.1893 -24.7243 -2
    endloop
  endfacet
  facet normal 0.218143 0.975917 -0
    outer loop
      vertex 37.1893 -24.7243 -2
      vertex 36.2697 -24.5187 2
      vertex 37.1893 -24.7243 2
    endloop
  endfacet
  facet normal 0.218143 0.975917 0
    outer loop
      vertex 36.2697 -24.5187 2
      vertex 37.1893 -24.7243 -2
      vertex 36.2697 -24.5187 -2
    endloop
  endfacet
  facet normal 0.338737 0.940881 -0
    outer loop
      vertex 35.3647 -24.2558 -2
      vertex 34.4781 -23.9366 2
      vertex 35.3647 -24.2558 2
    endloop
  endfacet
  facet normal 0.338737 0.940881 0
    outer loop
      vertex 34.4781 -23.9366 2
      vertex 35.3647 -24.2558 -2
      vertex 34.4781 -23.9366 -2
    endloop
  endfacet
  facet normal -1 0 0
    outer loop
      vertex 55 -10 -2
      vertex 55 4.5 2
      vertex 55 4.5 -2
    endloop
  endfacet
  facet normal -1 -0 0
    outer loop
      vertex 55 4.5 2
      vertex 55 -10 -2
      vertex 55 -10 2
    endloop
  endfacet
  facet normal 1 -0 0
    outer loop
      vertex 61 -10.5 2
      vertex 61 4.5 -2
      vertex 61 4.5 2
    endloop
  endfacet
  facet normal 1 0 0
    outer loop
      vertex 61 4.5 -2
      vertex 61 -10.5 2
      vertex 61 -10.5 -2
    endloop
  endfacet
  facet normal 0 -1 0
    outer loop
      vertex 60.9843 -10.5 -2
      vertex 61 -10.5 2
      vertex 60.9843 -10.5 2
    endloop
  endfacet
  facet normal 0 -1 -0
    outer loop
      vertex 61 -10.5 2
      vertex 60.9843 -10.5 -2
      vertex 61 -10.5 -2
    endloop
  endfacet
  facet normal 0 1 -0
    outer loop
      vertex 61 4.5 -2
      vertex 55 4.5 2
      vertex 61 4.5 2
    endloop
  endfacet
  facet normal 0 1 0
    outer loop
      vertex 55 4.5 2
      vertex 61 4.5 -2
      vertex 55 4.5 -2
    endloop
  endfacet
  facet normal -1 0 0
    outer loop
      vertex -9.5 -22.49 -2
      vertex -9.5 26.51 2
      vertex -9.5 26.51 -2
    endloop
  endfacet
  facet normal -1 -0 0
    outer loop
      vertex -9.5 26.51 2
      vertex -9.5 -22.49 -2
      vertex -9.5 -22.49 2
    endloop
  endfacet
  facet normal 1 -0 0
    outer loop
      vertex 25.5 -13.8193 2
      vertex 25.5 26.51 -2
      vertex 25.5 26.51 2
    endloop
  endfacet
  facet normal 1 0 0
    outer loop
      vertex 25.5 26.51 -2
      vertex 25.5 -13.8193 2
      vertex 25.5 -13.8193 -2
    endloop
  endfacet
  facet normal 0 1 -0
    outer loop
      vertex 25.5 26.51 -2
      vertex -9.5 26.51 2
      vertex 25.5 26.51 2
    endloop
  endfacet
  facet normal 0 1 0
    outer loop
      vertex -9.5 26.51 2
      vertex 25.5 26.51 -2
      vertex -9.5 26.51 -2
    endloop
  endfacet
  facet normal 0 -1 0
    outer loop
      vertex -9.5 -22.49 -2
      vertex -5.5 -22.49 2
      vertex -9.5 -22.49 2
    endloop
  endfacet
  facet normal 0 -1 -0
    outer loop
      vertex -5.5 -22.49 2
      vertex -9.5 -22.49 -2
      vertex -5.5 -22.49 -2
    endloop
  endfacet
  facet normal 0 -1 0
    outer loop
      vertex 5.5 -22.49 -2
      vertex 23.1243 -22.49 2
      vertex 5.5 -22.49 2
    endloop
  endfacet
  facet normal 0 -1 -0
    outer loop
      vertex 23.1243 -22.49 2
      vertex 5.5 -22.49 -2
      vertex 23.1243 -22.49 -2
    endloop
  endfacet
  facet normal 1 -0 0
    outer loop
      vertex -5.5 -22.49 2
      vertex -5.5 22.5 -2
      vertex -5.5 22.5 2
    endloop
  endfacet
  facet normal 1 0 0
    outer loop
      vertex -5.5 22.5 -2
      vertex -5.5 -22.49 2
      vertex -5.5 -22.49 -2
    endloop
  endfacet
  facet normal -1 0 0
    outer loop
      vertex 5.5 -22.49 -2
      vertex 5.5 22.5 2
      vertex 5.5 22.5 -2
    endloop
  endfacet
  facet normal -1 -0 0
    outer loop
      vertex 5.5 22.5 2
      vertex 5.5 -22.49 -2
      vertex 5.5 -22.49 2
    endloop
  endfacet
  facet normal 0 -1 0
    outer loop
      vertex -5.5 22.5 -2
      vertex 5.5 22.5 2
      vertex -5.5 22.5 2
    endloop
  endfacet
  facet normal 0 -1 -0
    outer loop
      vertex 5.5 22.5 2
      vertex -5.5 22.5 -2
      vertex 5.5 22.5 -2
    endloop
  endfacet
  facet normal 1 -0 0
    outer loop
      vertex 11.5 -18.49 2
      vertex 11.5 22.51 -2
      vertex 11.5 22.51 2
    endloop
  endfacet
  facet normal 1 0 0
    outer loop
      vertex 11.5 22.51 -2
      vertex 11.5 -18.49 2
      vertex 11.5 -18.49 -2
    endloop
  endfacet
  facet normal -1 0 0
    outer loop
      vertex 19.5 -18.49 -2
      vertex 19.5 22.51 2
      vertex 19.5 22.51 -2
    endloop
  endfacet
  facet normal -1 -0 0
    outer loop
      vertex 19.5 22.51 2
      vertex 19.5 -18.49 -2
      vertex 19.5 -18.49 2
    endloop
  endfacet
  facet normal 0 -1 0
    outer loop
      vertex 11.5 22.51 -2
      vertex 19.5 22.51 2
      vertex 11.5 22.51 2
    endloop
  endfacet
  facet normal 0 -1 -0
    outer loop
      vertex 19.5 22.51 2
      vertex 11.5 22.51 -2
      vertex 19.5 22.51 -2
    endloop
  endfacet
  facet normal 0 1 -0
    outer loop
      vertex 19.5 -18.49 -2
      vertex 11.5 -18.49 2
      vertex 19.5 -18.49 2
    endloop
  endfacet
  facet normal 0 1 0
    outer loop
      vertex 11.5 -18.49 2
      vertex 19.5 -18.49 -2
      vertex 11.5 -18.49 -2
    endloop
  endfacet
endsolid OpenSCAD_Model
